<svg width="191" height="42" viewBox="0 0 191 42" fill="none" xmlns="http://www.w3.org/2000/svg">
<g clip-path="url(#clip0_587_10745)">
<path fill-rule="evenodd" clip-rule="evenodd" d="M108.614 6.17773C109.703 8.18497 109.97 10.51 110.104 12.9192H104.751C104.735 11.2298 104.785 9.43941 103.496 8.2859C102.961 7.88457 102.074 7.81728 101.455 8.10206C100.401 8.60371 100.017 9.72479 99.9835 10.8122C100.034 13.1373 101.756 14.9102 103.58 16.3821L107.26 19.6775C110.773 23.1236 112.229 28.4928 110.272 33.1105C109.034 36.0207 106.04 37.7606 102.911 37.6609C100.268 37.6939 97.6915 36.6906 96.4371 34.231C95.3833 32.1565 94.9483 29.814 95.015 27.2726L100.301 27.3057C100.368 29.1129 100.368 31.0029 101.874 32.1565C102.66 32.6082 103.798 32.5416 104.516 31.99C105.687 31.036 105.922 29.4133 105.52 27.9912C105.135 26.6532 104.198 25.5165 103.078 24.512L99.2638 21.2335C95.6675 18.2055 93.9444 14.024 94.8312 9.37333C95.283 6.83079 97.0559 4.08758 99.6489 3.20082C102.275 2.26359 105.62 2.582 107.578 4.74004C107.996 5.19063 108.347 5.67547 108.614 6.17773ZM53.9973 3.43453C57.5606 3.50121 61.1738 4.65593 62.8295 8.08463C64.4024 11.2796 64.5364 15.094 64.5694 18.9415L64.5526 24.813C64.4355 28.0573 63.9506 31.1531 62.3279 33.7624C60.6721 36.1042 58.1122 37.0409 55.4026 37.2085H48.0249V3.43453H53.9973ZM74.7402 37.2253H68.4169V3.43453H74.7402V37.2253ZM92.991 8.70345H85.2955L85.2792 17.1517L91.0168 17.168L91.0336 22.7223H85.3627V31.8885H93.3586V37.2253H79.0226V3.43453H92.991V8.70345ZM127.651 8.61994H120.04L120.024 17.1517L125.762 17.168V22.7223H120.207V31.7714H128.188V37.2253H113.734V3.43453H127.651V8.61994ZM137.186 31.7383H144.296V37.2253H130.964V3.43453H137.186V31.7383Z" fill="black"/>
<path fill-rule="evenodd" clip-rule="evenodd" d="M57.1762 9.87407C57.962 11.3292 58.0293 13.1027 58.1128 14.8588L58.0966 27.1714C57.9128 28.9786 57.7289 31.1528 55.7547 31.8557C55.2525 32.0059 54.6841 31.9555 54.165 31.8888V8.70312C55.336 8.70312 56.5742 8.76982 57.1762 9.87407Z" fill="white"/>
</g>
<defs>
<clipPath id="clip0_587_10745">
<rect width="97.7805" height="35.3096" fill="white" transform="translate(46.8379 2.67383)"/>
</clipPath>
</defs>
</svg>
