<svg width="231" height="37" viewBox="0 0 231 37" fill="none" xmlns="http://www.w3.org/2000/svg">
<g clip-path="url(#clip0_587_10720)">
<path d="M41.3856 16.6437C42.8128 15.3949 43.5858 13.6705 43.5858 11.7676C43.5858 7.90245 40.791 5.34549 35.6771 5.34549H25.7466V30.9745H37.9367C43.0506 30.9745 46.2022 27.6445 46.2022 23.1847C46.2617 19.9142 44.4778 17.6546 41.3856 16.6437ZM30.6821 15.3949V9.92423H35.3798C37.8178 9.92423 39.0071 10.9351 39.0071 12.6596C39.0071 14.384 37.8773 15.3949 35.3798 15.3949H30.6821ZM41.2667 23.1253C41.2667 25.2065 39.899 26.3958 37.2826 26.3958H30.6821V19.8547H37.2826C39.899 19.8547 41.2667 21.044 41.2667 23.1253ZM70.1663 30.9745H75.5775L65.647 5.34549H60.9493L50.781 30.9745H56.1327L57.9761 26.2174H68.3229L70.1663 30.9745ZM59.8195 21.7576L63.209 13.0758L66.5984 21.7576H59.8195ZM87.173 5.28603H82.2375V30.9745H96.7467V26.2769H87.173V5.28603ZM115.181 25.0876H118.511L124.873 13.3137V31.0934H130.225V5.22656H123.268L116.786 17.0599L110.126 5.22656H103.407V31.1529H108.58V13.4921L115.181 25.0876ZM155.438 30.9745H160.849L150.918 5.34549H146.221L136.052 30.9745H141.404L143.248 26.2174H153.594L155.438 30.9745ZM145.091 21.7576L148.48 13.0758L151.87 21.7576H145.091ZM166.855 30.9745H171.909V5.34549H166.855V30.9745ZM199.025 5.34549V21.9954L185.764 5.34549H180.591V30.9745H185.527V13.0758L199.738 30.9745H203.96V5.34549H199.025Z" fill="#020203"/>
</g>
<defs>
<clipPath id="clip0_587_10720">
<rect width="178.392" height="26.1642" fill="white" transform="translate(25.6904 4.86914)"/>
</clipPath>
</defs>
</svg>
