<svg width="191" height="37" viewBox="0 0 191 37" fill="none" xmlns="http://www.w3.org/2000/svg">
<g clip-path="url(#clip0_587_10725)">
<path d="M33.8223 16.5752L23.6413 16.5622V9.31405H33.5305C33.5305 9.31405 37.5305 8.9564 37.5305 13.0535C37.5305 16.8997 33.8223 16.5752 33.8223 16.5752ZM42.8376 12.9093C42.8376 5.72026 36.222 5.28906 36.222 5.28906H18.2612V29.5861L23.7142 29.7289V20.3132C23.7142 20.3132 27.9316 20.3132 35.7858 20.3132C43.6385 20.3132 42.8376 12.9093 42.8376 12.9093Z" fill="#231F20"/>
<path d="M57.5992 29.729H51.4912V5.36133H57.5992V29.729Z" fill="#231F20"/>
<path d="M89.7373 29.729H95.4091V5.36133H89.7373L89.7723 23.476L74.541 5.36133H67.6321V29.729H73.3039V11.7586L89.0108 29.729H89.7373Z" fill="#231F20"/>
<path d="M135.478 29.729L117.882 16.9344L133.443 5.43343H125.445L110.897 16.5955V5.36133H105.153V29.729H110.897V17.6786L127.407 29.729H135.478Z" fill="#231F20"/>
<mask id="mask0_587_10725" style="mask-type:luminance" maskUnits="userSpaceOnUse" x="138" y="4" width="34" height="27">
<path d="M138.515 4.78711H171.759V30.9517H138.515V4.78711Z" fill="white"/>
</mask>
<g mask="url(#mask0_587_10725)">
<path d="M156.683 26.9233C155.236 26.9233 153.7 26.9233 153.7 26.9233C153.7 26.9233 144.838 26.6551 144.838 17.6273C144.838 17.6273 145.29 8.68757 153.157 8.68757H156.05C156.05 8.68757 165.455 8.41933 165.455 17.1803C165.455 25.9398 158.13 26.9233 156.683 26.9233ZM157.869 4.78516H153.506C137.872 4.78516 138.817 18.1552 138.817 18.1552V18.6585C138.817 30.9512 153.07 30.9512 153.07 30.9512H157.869C170.885 30.9512 171.757 18.7306 171.757 18.7306V16.2155C171.757 5.14569 157.869 4.78516 157.869 4.78516Z" fill="#231F20"/>
</g>
</g>
<defs>
<clipPath id="clip0_587_10725">
<rect width="153.497" height="26.1642" fill="white" transform="translate(18.2607 4.78711)"/>
</clipPath>
</defs>
</svg>
