<svg width="60" height="60" viewBox="0 0 60 60" fill="none" xmlns="http://www.w3.org/2000/svg">
<circle cx="30" cy="30" r="30" fill="#F7F8FB"/>
<path d="M30 19.5C27.8127 19.5025 25.7157 20.3725 24.1691 21.9191C22.6225 23.4657 21.7525 25.5627 21.75 27.75C21.75 34.8094 29.25 40.1409 29.5697 40.3641C29.6958 40.4524 29.846 40.4998 30 40.4998C30.154 40.4998 30.3042 40.4524 30.4303 40.3641C30.75 40.1409 38.25 34.8094 38.25 27.75C38.2475 25.5627 37.3775 23.4657 35.8309 21.9191C34.2843 20.3725 32.1873 19.5025 30 19.5ZM30 24.75C30.5933 24.75 31.1734 24.9259 31.6667 25.2556C32.1601 25.5852 32.5446 26.0538 32.7716 26.6019C32.9987 27.1501 33.0581 27.7533 32.9424 28.3353C32.8266 28.9172 32.5409 29.4518 32.1213 29.8713C31.7018 30.2909 31.1672 30.5766 30.5853 30.6924C30.0033 30.8081 29.4001 30.7487 28.8519 30.5216C28.3038 30.2946 27.8352 29.9101 27.5056 29.4167C27.1759 28.9234 27 28.3433 27 27.75C27 26.9544 27.3161 26.1913 27.8787 25.6287C28.4413 25.0661 29.2044 24.75 30 24.75Z" fill="#1A212B"/>
</svg>
