<svg width="60" height="60" viewBox="0 0 60 60" fill="none" xmlns="http://www.w3.org/2000/svg">
<circle cx="30" cy="30" r="30" fill="#F7F8FB"/>
<path d="M39.9852 28.7229L35.7571 32.4129L37.0236 37.9067C37.0906 38.1939 37.0715 38.4945 36.9686 38.7709C36.8658 39.0472 36.6837 39.2872 36.4452 39.4606C36.2067 39.6341 35.9223 39.7334 35.6277 39.7462C35.3331 39.7589 35.0412 39.6845 34.7886 39.5323L29.9971 36.6261L25.2158 39.5323C24.9632 39.6845 24.6714 39.7589 24.3767 39.7462C24.0821 39.7334 23.7977 39.6341 23.5592 39.4606C23.3207 39.2872 23.1387 39.0472 23.0358 38.7709C22.9329 38.4945 22.9138 38.1939 22.9808 37.9067L24.2455 32.4186L20.0164 28.7229C19.7927 28.53 19.631 28.2754 19.5515 27.9909C19.472 27.7064 19.4782 27.4048 19.5694 27.1239C19.6606 26.8429 19.8327 26.5951 20.0642 26.4116C20.2957 26.2281 20.5761 26.117 20.8705 26.0923L26.4449 25.6095L28.6208 20.4195C28.7344 20.1472 28.9261 19.9146 29.1717 19.7509C29.4172 19.5873 29.7057 19.5 30.0008 19.5C30.2959 19.5 30.5844 19.5873 30.8299 19.7509C31.0755 19.9146 31.2672 20.1472 31.3808 20.4195L33.5633 25.6095L39.1358 26.0923C39.4301 26.117 39.7106 26.2281 39.9421 26.4116C40.1736 26.5951 40.3457 26.8429 40.4369 27.1239C40.5281 27.4048 40.5343 27.7064 40.4548 27.9909C40.3753 28.2754 40.2135 28.53 39.9899 28.7229H39.9852Z" fill="#1A212B"/>
</svg>
