<svg width="60" height="60" viewBox="0 0 60 60" fill="none" xmlns="http://www.w3.org/2000/svg">
<circle cx="30" cy="30" r="30" fill="#F7F8FB"/>
<rect width="24" height="24" transform="translate(18 18)" fill="#F7F8FB"/>
<path d="M37.5 21H35.25V20.25C35.25 20.0511 35.171 19.8603 35.0303 19.7197C34.8897 19.579 34.6989 19.5 34.5 19.5C34.3011 19.5 34.1103 19.579 33.9697 19.7197C33.829 19.8603 33.75 20.0511 33.75 20.25V21H26.25V20.25C26.25 20.0511 26.171 19.8603 26.0303 19.7197C25.8897 19.579 25.6989 19.5 25.5 19.5C25.3011 19.5 25.1103 19.579 24.9697 19.7197C24.829 19.8603 24.75 20.0511 24.75 20.25V21H22.5C22.1022 21 21.7206 21.158 21.4393 21.4393C21.158 21.7206 21 22.1022 21 22.5V37.5C21 37.8978 21.158 38.2794 21.4393 38.5607C21.7206 38.842 22.1022 39 22.5 39H37.5C37.8978 39 38.2794 38.842 38.5607 38.5607C38.842 38.2794 39 37.8978 39 37.5V22.5C39 22.1022 38.842 21.7206 38.5607 21.4393C38.2794 21.158 37.8978 21 37.5 21ZM37.5 25.5H22.5V22.5H24.75V23.25C24.75 23.4489 24.829 23.6397 24.9697 23.7803C25.1103 23.921 25.3011 24 25.5 24C25.6989 24 25.8897 23.921 26.0303 23.7803C26.171 23.6397 26.25 23.4489 26.25 23.25V22.5H33.75V23.25C33.75 23.4489 33.829 23.6397 33.9697 23.7803C34.1103 23.921 34.3011 24 34.5 24C34.6989 24 34.8897 23.921 35.0303 23.7803C35.171 23.6397 35.25 23.4489 35.25 23.25V22.5H37.5V25.5Z" fill="#1A212B"/>
</svg>
