<svg width="68" height="32" viewBox="0 0 68 32" fill="none" xmlns="http://www.w3.org/2000/svg">
<path d="M0.890031 14.9164L14.6593 1.14717C14.9463 0.8601 15.3357 0.698823 15.7417 0.698823C16.1477 0.698823 16.537 0.8601 16.8241 1.14717C17.1112 1.43425 17.2724 1.8236 17.2724 2.22959C17.2724 2.63557 17.1112 3.02493 16.8241 3.31201L5.66528 14.4689L66.2289 14.4689C66.6346 14.4689 67.0238 14.6301 67.3107 14.917C67.5976 15.2039 67.7588 15.5931 67.7588 15.9988C67.7588 16.4046 67.5976 16.7937 67.3107 17.0806C67.0238 17.3676 66.6346 17.5287 66.2289 17.5287L5.66528 17.5287L16.8241 28.6856C17.1112 28.9727 17.2724 29.3621 17.2724 29.7681C17.2724 30.174 17.1112 30.5634 16.8241 30.8505C16.537 31.1375 16.1477 31.2988 15.7417 31.2988C15.3357 31.2988 14.9463 31.1375 14.6593 30.8505L0.890031 17.0812C0.747785 16.9392 0.634938 16.7704 0.557947 16.5847C0.480955 16.399 0.441331 16.1999 0.441331 15.9988C0.441331 15.7978 0.480955 15.5987 0.557947 15.413C0.634939 15.2272 0.747785 15.0585 0.890031 14.9164Z"/>
</svg>
