<?xml version="1.0" encoding="utf-8"?>
<!-- Generator: Adobe Illustrator 19.2.1, SVG Export Plug-In . SVG Version: 6.00 Build 0)  -->
<svg version="1.1" id="Слой_1" xmlns="http://www.w3.org/2000/svg" xmlns:xlink="http://www.w3.org/1999/xlink" x="0px" y="0px"
	 viewBox="0 0 32 32" style="enable-background:new 0 0 32 32;" xml:space="preserve">
<path d="M27.9,7.1C26.5,5.8,24.7,5,22.8,5c-1.9,0-3.8,0.8-5.1,2.1L16,8.6l-1.6-1.5C13,5.7,11.2,5,9.2,5C7.3,5,5.5,5.8,4.1,7.1C2.8,8.5,2,10.3,2,12.3c0,1.9,0.8,3.8,2.1,5.1l11.2,11.3c0.1,0.1,0.2,0.2,0.3,0.2C15.7,29,15.9,29,16,29c0.1,0,0.3,0,0.4-0.1c0.1-0.1,0.2-0.1,0.3-0.2l11.2-11.3c1.4-1.4,2.1-3.2,2.1-5.1C30,10.3,29.2,8.5,27.9,7.1z"/>
</svg>
