<svg width="32" height="32" viewBox="0 0 32 32" fill="none" xmlns="http://www.w3.org/2000/svg">
<path d="M27.8751 7.12405C26.5165 5.76886 24.6766 5.00678 22.7577 5.00444C20.8387 5.00209 18.997 5.75968 17.6351 7.11155L16.0001 8.6303L14.3638 7.10655C13.0023 5.7488 11.1571 4.98755 9.23428 4.99024C7.31145 4.99294 5.46844 5.75937 4.1107 7.12092C2.75295 8.48248 1.9917 10.3276 1.99439 12.2505C1.99709 14.1733 2.76352 16.0163 4.12507 17.374L15.2938 28.7065C15.3869 28.801 15.4978 28.8761 15.6201 28.9273C15.7424 28.9785 15.8737 29.0049 16.0063 29.0049C16.1389 29.0049 16.2702 28.9785 16.3925 28.9273C16.5149 28.8761 16.6258 28.801 16.7188 28.7065L27.8751 17.374C29.2338 16.0145 29.997 14.1711 29.997 12.249C29.997 10.327 29.2338 8.48356 27.8751 7.12405ZM26.4563 15.969L16.0001 26.574L5.53757 15.959C4.55295 14.9744 3.9998 13.639 3.9998 12.2465C3.9998 10.8541 4.55295 9.51866 5.53757 8.53405C6.52219 7.54943 7.85761 6.99628 9.25007 6.99628C10.6425 6.99628 11.978 7.54943 12.9626 8.53405L12.9876 8.55905L15.3188 10.7278C15.5039 10.9 15.7473 10.9957 16.0001 10.9957C16.2529 10.9957 16.4963 10.9 16.6813 10.7278L19.0126 8.55905L19.0376 8.53405C20.0229 7.55009 21.3586 6.99784 22.7511 6.99878C24.1436 6.99972 25.4786 7.55377 26.4626 8.53905C27.4465 9.52432 27.9988 10.8601 27.9978 12.2526C27.9969 13.645 27.4429 14.9801 26.4576 15.964L26.4563 15.969Z"/>
</svg>
