<svg width="32" height="32" viewBox="0 0 32 32" fill="none" xmlns="http://www.w3.org/2000/svg">
<path fill-rule="evenodd" clip-rule="evenodd" d="M4.26653 30.6838C2.39095 31.2887 0.763234 29.6238 1.41204 27.763C1.72798 26.8568 2.04646 25.9532 2.35923 25.0439C2.63665 24.2374 2.53422 23.3553 2.16914 22.5844C-2.73695 12.226 4.61374 1.04697 14.441 0.0857373C24.0761 -0.856837 31.976 6.08093 32 15.5493C32.0251 25.5399 22.3594 33.9291 11.4871 30.5193C10.667 30.2621 9.65221 29.424 8.69734 29.3677C7.36286 29.2889 5.61397 30.2494 4.26653 30.6838V30.6838ZM8.13463 26.6508C8.70163 26.4841 9.30652 26.5873 9.82973 26.8622C18.4348 31.382 28.3454 25.4921 29.2102 17.0299C30.0174 9.12945 23.9631 2.88204 15.5 3.5C6.16545 4.18143 0.209413 14.2659 5.17991 22.5781C5.51227 23.1339 5.61366 23.7973 5.39971 24.4085V24.4085C4.88062 25.8915 6.23748 27.2332 7.7389 26.7701C7.8701 26.7296 8.00195 26.6898 8.13463 26.6508Z" fill="#1A212B"/>
<path fill-rule="evenodd" clip-rule="evenodd" d="M3.27111 28.9283C3.72884 27.4132 4.27511 25.3896 4.80162 23.9432C-1.14618 15.4824 5.33811 2.20494 15 1.49961C23.4631 0.881651 30.8072 9.09958 30 17C29.1082 25.727 17.7903 32.7358 9.0106 27.3944C7.34935 27.813 4.88295 28.4604 3.27111 28.9283ZM8.69714 13.9038C10.105 17.8732 15.9392 23.2494 20.1842 23.4452C22.1964 23.538 24.5753 22.4916 24.4508 19.6615C23.2392 18.7923 21.8425 18.1087 20.3484 17.523C19.6331 18.2317 19.071 19.0939 18.2149 19.6615C15.6407 18.5133 13.6659 16.7642 12.4715 14.2328C14.8235 12.9469 13.395 10.0825 12.4715 8.14599C8.82253 7.04383 7.86176 11.5486 8.69714 13.9038Z" fill="#1A212B"/>
</svg>
