<svg aria-hidden="true" style="width: 0px; height: 0px; overflow: hidden; position: absolute;" xmlns="http://www.w3.org/2000/svg">
    <symbol id="send_arrow_icon" viewBox="0 0 24 24">
      <path d="M20.7806 12.531L14.0306 19.281C13.8899 19.4218 13.699 19.5008 13.5 19.5008C13.301 19.5008 13.1101 19.4218 12.9694 19.281C12.8286 19.1403 12.7496 18.9494 12.7496 18.7504C12.7496 18.5514 12.8286 18.3605 12.9694 18.2198L18.4397 12.7504H3.75C3.55109 12.7504 3.36032 12.6714 3.21967 12.5307C3.07902 12.3901 3 12.1993 3 12.0004C3 11.8015 3.07902 11.6107 3.21967 11.4701C3.36032 11.3294 3.55109 11.2504 3.75 11.2504H18.4397L12.9694 5.78104C12.8286 5.64031 12.7496 5.44944 12.7496 5.25042C12.7496 5.05139 12.8286 4.86052 12.9694 4.71979C13.1101 4.57906 13.301 4.5 13.5 4.5C13.699 4.5 13.8899 4.57906 14.0306 4.71979L20.7806 11.4698C20.8504 11.5394 20.9057 11.6222 20.9434 11.7132C20.9812 11.8043 21.0006 11.9019 21.0006 12.0004C21.0006 12.099 20.9812 12.1966 20.9434 12.2876C20.9057 12.3787 20.8504 12.4614 20.7806 12.531Z"/>
    </symbol>
    <symbol id="wa_icon" viewBox="0 0 32 32">
      <path fill-rule="evenodd" clip-rule="evenodd" d="M4.26653 30.6838C2.39095 31.2887 0.763234 29.6238 1.41204 27.763C1.72798 26.8568 2.04646 25.9532 2.35923 25.0439C2.63665 24.2374 2.53422 23.3553 2.16914 22.5844C-2.73695 12.226 4.61374 1.04697 14.441 0.0857373C24.0761 -0.856837 31.976 6.08093 32 15.5493C32.0251 25.5399 22.3594 33.9291 11.4871 30.5193C10.667 30.2621 9.65221 29.424 8.69734 29.3677C7.36286 29.2889 5.61397 30.2494 4.26653 30.6838V30.6838ZM8.13463 26.6508C8.70163 26.4841 9.30652 26.5873 9.82973 26.8622C18.4348 31.382 28.3454 25.4921 29.2102 17.0299C30.0174 9.12945 23.9631 2.88204 15.5 3.5C6.16545 4.18143 0.209413 14.2659 5.17991 22.5781C5.51227 23.1339 5.61366 23.7973 5.39971 24.4085V24.4085C4.88062 25.8915 6.23748 27.2332 7.7389 26.7701C7.8701 26.7296 8.00195 26.6898 8.13463 26.6508Z"/>
      <path fill-rule="evenodd" clip-rule="evenodd" d="M3.27111 28.9283C3.72884 27.4132 4.27511 25.3896 4.80162 23.9432C-1.14618 15.4824 5.33811 2.20494 15 1.49961C23.4631 0.881651 30.8072 9.09958 30 17C29.1082 25.727 17.7903 32.7358 9.0106 27.3944C7.34935 27.813 4.88295 28.4604 3.27111 28.9283ZM8.69714 13.9038C10.105 17.8732 15.9392 23.2494 20.1842 23.4452C22.1964 23.538 24.5753 22.4916 24.4508 19.6615C23.2392 18.7923 21.8425 18.1087 20.3484 17.523C19.6331 18.2317 19.071 19.0939 18.2149 19.6615C15.6407 18.5133 13.6659 16.7642 12.4715 14.2328C14.8235 12.9469 13.395 10.0825 12.4715 8.14599C8.82253 7.04383 7.86176 11.5486 8.69714 13.9038Z"/>
    </symbol>
    <symbol id="tg_icon" viewBox="0 0 32 32">
      <path d="M16 32C24.8366 32 32 24.8366 32 16C32 7.16344 24.8366 0 16 0C7.16344 0 0 7.16344 0 16C0 24.8366 7.16344 32 16 32Z"/>
      <path fill-rule="evenodd" clip-rule="evenodd" d="M7.24334 15.8319C11.9077 13.7997 15.0179 12.46 16.5742 11.8127C21.0175 9.96457 21.9408 9.64353 22.5426 9.63293C22.675 9.63059 22.9709 9.6634 23.1626 9.81895C23.3245 9.95029 23.369 10.1277 23.3903 10.2522C23.4117 10.3768 23.4382 10.6605 23.4171 10.8821C23.1763 13.4121 22.1344 19.5517 21.6044 22.3853C21.3801 23.5843 20.9385 23.9863 20.5109 24.0257C19.5818 24.1112 18.8762 23.4116 17.9763 22.8217C16.5681 21.8986 15.7725 21.324 14.4056 20.4232C12.8259 19.3822 13.85 18.8101 14.7503 17.875C14.9859 17.6303 19.0797 13.9066 19.1589 13.5688C19.1689 13.5266 19.1781 13.3691 19.0845 13.2859C18.9909 13.2028 18.8529 13.2312 18.7532 13.2538C18.612 13.2859 16.3624 14.7728 12.0043 17.7146C11.3658 18.1531 10.7874 18.3667 10.2692 18.3555C9.69791 18.3432 8.599 18.0325 7.78206 17.767C6.78006 17.4413 5.98369 17.2691 6.05304 16.7159C6.08916 16.4278 6.48592 16.1331 7.24334 15.8319Z" fill="#fff"/>
    </symbol>
    <symbol id="vk_icon" viewBox="0 0 32 32">
      <path fill-rule="evenodd" clip-rule="evenodd" d="M2.38535 2.38535C0.158203 4.61251 0.158203 8.19705 0.158203 15.3661V16.6334C0.158203 23.8025 0.158203 27.3871 2.38535 29.6142C4.61251 31.8414 8.19705 31.8414 15.3661 31.8414H16.6334C23.8025 31.8414 27.3871 31.8414 29.6142 29.6142C31.8414 27.3871 31.8414 23.8025 31.8414 16.6334V15.3661C31.8414 8.19705 31.8414 4.61251 29.6142 2.38535C27.3871 0.158203 23.8025 0.158203 16.6334 0.158203H15.3661C8.19705 0.158203 4.61251 0.158203 2.38535 2.38535ZM5.5048 9.79524C5.6764 18.0329 9.79518 22.9833 17.0163 22.9833H17.4256V18.2705C20.0791 18.5345 22.0856 20.4751 22.8908 22.9833H26.6401C25.6104 19.2342 22.904 17.1615 21.2142 16.3695C22.904 15.3926 25.2803 13.0163 25.8479 9.79524H22.4419C21.7026 12.4091 19.5114 14.7853 17.4256 15.0097V9.79524H14.0196V18.9305C11.9074 18.4025 9.24075 15.8414 9.12194 9.79524H5.5048Z"/>
    </symbol>
    <symbol id="phone_icon" viewBox="0 0 24 24">
      <path d="M20.8472 14.8554L16.4306 12.8764L16.4184 12.8707C16.1892 12.7727 15.939 12.7333 15.6907 12.7562C15.4424 12.7792 15.2037 12.8636 14.9963 13.002C14.9718 13.0181 14.9484 13.0357 14.9259 13.0545L12.6441 14.9998C11.1984 14.2976 9.70595 12.8164 9.00376 11.3895L10.9519 9.07293C10.9706 9.0495 10.9884 9.02606 11.0053 9.00075C11.1407 8.79384 11.2229 8.55667 11.2445 8.31035C11.2661 8.06402 11.2264 7.81618 11.1291 7.58887V7.57762L9.14438 3.15356C9.0157 2.85662 8.79444 2.60926 8.51362 2.44841C8.2328 2.28756 7.9075 2.22184 7.58626 2.26106C6.31592 2.42822 5.14986 3.05209 4.30588 4.01615C3.4619 4.98021 2.99771 6.21852 3.00001 7.49981C3.00001 14.9436 9.05626 20.9998 16.5 20.9998C17.7813 21.0021 19.0196 20.5379 19.9837 19.6939C20.9477 18.85 21.5716 17.6839 21.7388 16.4136C21.7781 16.0924 21.7125 15.7672 21.5518 15.4864C21.3911 15.2056 21.144 14.9843 20.8472 14.8554ZM16.5 19.4998C13.3185 19.4963 10.2682 18.2309 8.01856 15.9813C5.76888 13.7316 4.50348 10.6813 4.50001 7.49981C4.49648 6.58433 4.82631 5.69887 5.42789 5.00878C6.02947 4.3187 6.86167 3.87118 7.76907 3.74981C7.7687 3.75355 7.7687 3.75732 7.76907 3.76106L9.73782 8.16731L7.80001 10.4867C7.78034 10.5093 7.76247 10.5335 7.74657 10.5589C7.60549 10.7754 7.52273 11.0246 7.5063 11.2825C7.48988 11.5404 7.54035 11.7981 7.65282 12.0307C8.5022 13.7679 10.2525 15.5051 12.0084 16.3536C12.2428 16.465 12.502 16.5137 12.7608 16.495C13.0196 16.4762 13.2692 16.3907 13.485 16.2467C13.5091 16.2305 13.5322 16.2129 13.5544 16.1942L15.8334 14.2498L20.2397 16.2232C20.2397 16.2232 20.2472 16.2232 20.25 16.2232C20.1301 17.1319 19.6833 17.9658 18.9931 18.5689C18.3028 19.1719 17.4166 19.5029 16.5 19.4998Z"/>
    </symbol>
    <symbol id="pin_icon" viewBox="0 0 24 24">
      <path d="M12 6C11.2583 6 10.5333 6.21993 9.91661 6.63199C9.29993 7.04404 8.81928 7.62971 8.53545 8.31494C8.25162 9.00016 8.17736 9.75416 8.32205 10.4816C8.46675 11.209 8.8239 11.8772 9.34835 12.4017C9.8728 12.9261 10.541 13.2833 11.2684 13.4279C11.9958 13.5726 12.7498 13.4984 13.4351 13.2145C14.1203 12.9307 14.706 12.4501 15.118 11.8334C15.5301 11.2167 15.75 10.4917 15.75 9.75C15.75 8.75544 15.3549 7.80161 14.6517 7.09835C13.9484 6.39509 12.9946 6 12 6ZM12 12C11.555 12 11.12 11.868 10.75 11.6208C10.38 11.3736 10.0916 11.0222 9.92127 10.611C9.75097 10.1999 9.70642 9.7475 9.79323 9.31105C9.88005 8.87459 10.0943 8.47368 10.409 8.15901C10.7237 7.84434 11.1246 7.63005 11.561 7.54323C11.9975 7.45642 12.4499 7.50097 12.861 7.67127C13.2722 7.84157 13.6236 8.12996 13.8708 8.49997C14.118 8.86998 14.25 9.30499 14.25 9.75C14.25 10.3467 14.0129 10.919 13.591 11.341C13.169 11.7629 12.5967 12 12 12ZM12 1.5C9.81273 1.50248 7.71575 2.37247 6.16911 3.91911C4.62247 5.46575 3.75248 7.56273 3.75 9.75C3.75 12.6937 5.11031 15.8138 7.6875 18.7734C8.84552 20.1108 10.1489 21.3151 11.5734 22.3641C11.6995 22.4524 11.8498 22.4998 12.0037 22.4998C12.1577 22.4998 12.308 22.4524 12.4341 22.3641C13.856 21.3147 15.1568 20.1104 16.3125 18.7734C18.8859 15.8138 20.25 12.6937 20.25 9.75C20.2475 7.56273 19.3775 5.46575 17.8309 3.91911C16.2843 2.37247 14.1873 1.50248 12 1.5ZM12 20.8125C10.4503 19.5938 5.25 15.1172 5.25 9.75C5.25 7.95979 5.96116 6.2429 7.22703 4.97703C8.4929 3.71116 10.2098 3 12 3C13.7902 3 15.5071 3.71116 16.773 4.97703C18.0388 6.2429 18.75 7.95979 18.75 9.75C18.75 15.1153 13.5497 19.5938 12 20.8125Z"/>
    </symbol>
    <symbol id="clock_icon" viewBox="0 0 24 24">
      <path d="M12 2.25C10.0716 2.25 8.18657 2.82183 6.58319 3.89317C4.97982 4.96452 3.73013 6.48726 2.99218 8.26884C2.25422 10.0504 2.06114 12.0108 2.43735 13.9021C2.81355 15.7934 3.74215 17.5307 5.10571 18.8943C6.46928 20.2579 8.20656 21.1865 10.0979 21.5627C11.9892 21.9389 13.9496 21.7458 15.7312 21.0078C17.5127 20.2699 19.0355 19.0202 20.1068 17.4168C21.1782 15.8134 21.75 13.9284 21.75 12C21.7473 9.41498 20.7192 6.93661 18.8913 5.10872C17.0634 3.28084 14.585 2.25273 12 2.25ZM12 20.25C10.3683 20.25 8.77326 19.7661 7.41655 18.8596C6.05984 17.9531 5.00242 16.6646 4.378 15.1571C3.75358 13.6496 3.5902 11.9908 3.90853 10.3905C4.22685 8.79016 5.01259 7.32015 6.16637 6.16637C7.32016 5.01259 8.79017 4.22685 10.3905 3.90852C11.9909 3.59019 13.6497 3.75357 15.1571 4.37799C16.6646 5.00242 17.9531 6.05984 18.8596 7.41655C19.7662 8.77325 20.25 10.3683 20.25 12C20.2475 14.1873 19.3775 16.2843 17.8309 17.8309C16.2843 19.3775 14.1873 20.2475 12 20.25ZM18 12C18 12.1989 17.921 12.3897 17.7803 12.5303C17.6397 12.671 17.4489 12.75 17.25 12.75H12C11.8011 12.75 11.6103 12.671 11.4697 12.5303C11.329 12.3897 11.25 12.1989 11.25 12V6.75C11.25 6.55109 11.329 6.36032 11.4697 6.21967C11.6103 6.07902 11.8011 6 12 6C12.1989 6 12.3897 6.07902 12.5303 6.21967C12.671 6.36032 12.75 6.55109 12.75 6.75V11.25H17.25C17.4489 11.25 17.6397 11.329 17.7803 11.4697C17.921 11.6103 18 11.8011 18 12Z"/>
    </symbol>
    <symbol id="plus_icon" viewBox="0 0 24 24">
      <path d="M21 12C21 12.1989 20.921 12.3897 20.7803 12.5303C20.6397 12.671 20.4489 12.75 20.25 12.75H12.75V20.25C12.75 20.4489 12.671 20.6397 12.5303 20.7803C12.3897 20.921 12.1989 21 12 21C11.8011 21 11.6103 20.921 11.4697 20.7803C11.329 20.6397 11.25 20.4489 11.25 20.25V12.75H3.75C3.55109 12.75 3.36032 12.671 3.21967 12.5303C3.07902 12.3897 3 12.1989 3 12C3 11.8011 3.07902 11.6103 3.21967 11.4697C3.36032 11.329 3.55109 11.25 3.75 11.25H11.25V3.75C11.25 3.55109 11.329 3.36032 11.4697 3.21967C11.6103 3.07902 11.8011 3 12 3C12.1989 3 12.3897 3.07902 12.5303 3.21967C12.671 3.36032 12.75 3.55109 12.75 3.75V11.25H20.25C20.4489 11.25 20.6397 11.329 20.7803 11.4697C20.921 11.6103 21 11.8011 21 12Z"/>
    </symbol>
    <symbol id="burger_icon" viewBox="0 0 32 32">
      <path d="M28 16C28 16.2652 27.8946 16.5196 27.7071 16.7071C27.5196 16.8946 27.2652 17 27 17H5C4.73478 17 4.48043 16.8946 4.29289 16.7071C4.10536 16.5196 4 16.2652 4 16C4 15.7348 4.10536 15.4804 4.29289 15.2929C4.48043 15.1054 4.73478 15 5 15H27C27.2652 15 27.5196 15.1054 27.7071 15.2929C27.8946 15.4804 28 15.7348 28 16ZM5 9H27C27.2652 9 27.5196 8.89464 27.7071 8.70711C27.8946 8.51957 28 8.26522 28 8C28 7.73478 27.8946 7.48043 27.7071 7.29289C27.5196 7.10536 27.2652 7 27 7H5C4.73478 7 4.48043 7.10536 4.29289 7.29289C4.10536 7.48043 4 7.73478 4 8C4 8.26522 4.10536 8.51957 4.29289 8.70711C4.48043 8.89464 4.73478 9 5 9ZM27 23H5C4.73478 23 4.48043 23.1054 4.29289 23.2929C4.10536 23.4804 4 23.7348 4 24C4 24.2652 4.10536 24.5196 4.29289 24.7071C4.48043 24.8946 4.73478 25 5 25H27C27.2652 25 27.5196 24.8946 27.7071 24.7071C27.8946 24.5196 28 24.2652 28 24C28 23.7348 27.8946 23.4804 27.7071 23.2929C27.5196 23.1054 27.2652 23 27 23Z"/>
    </symbol>
    <symbol id="search_icon" viewBox="0 0 32 32">
      <path d="M28.7075 27.2928L22.4488 21.0353C24.2628 18.8574 25.1674 16.064 24.9743 13.2362C24.7813 10.4084 23.5054 7.76385 21.4122 5.85275C19.319 3.94164 16.5696 2.9111 13.7359 2.9755C10.9023 3.0399 8.20249 4.19429 6.19827 6.19851C4.19404 8.20274 3.03966 10.9025 2.97526 13.7362C2.91086 16.5698 3.9414 19.3193 5.85251 21.4125C7.76361 23.5057 10.4081 24.7815 13.236 24.9746C16.0638 25.1676 18.8572 24.2631 21.035 22.449L27.2925 28.7078C27.3855 28.8007 27.4958 28.8744 27.6171 28.9247C27.7385 28.975 27.8686 29.0008 28 29.0008C28.1314 29.0008 28.2615 28.975 28.3829 28.9247C28.5043 28.8744 28.6146 28.8007 28.7075 28.7078C28.8005 28.6149 28.8742 28.5046 28.9244 28.3832C28.9747 28.2618 29.0006 28.1317 29.0006 28.0003C29.0006 27.8689 28.9747 27.7388 28.9244 27.6174C28.8742 27.496 28.8005 27.3857 28.7075 27.2928ZM5.00004 14.0003C5.00004 12.2203 5.52788 10.4802 6.51681 9.00015C7.50575 7.52011 8.91136 6.36656 10.5559 5.68537C12.2004 5.00418 14.01 4.82595 15.7559 5.17322C17.5017 5.52048 19.1053 6.37765 20.364 7.63632C21.6227 8.895 22.4798 10.4986 22.8271 12.2445C23.1744 13.9903 22.9961 15.7999 22.315 17.4444C21.6338 19.089 20.4802 20.4946 19.0002 21.4835C17.5201 22.4724 15.7801 23.0003 14 23.0003C11.6139 22.9976 9.32626 22.0486 7.639 20.3613C5.95175 18.6741 5.00269 16.3864 5.00004 14.0003Z"/>
    </symbol>
    <symbol id="fav_icon" viewBox="0 0 32 32">
      <path d="M27.8751 7.12405C26.5165 5.76886 24.6766 5.00678 22.7577 5.00444C20.8387 5.00209 18.997 5.75968 17.6351 7.11155L16.0001 8.6303L14.3638 7.10655C13.0023 5.7488 11.1571 4.98755 9.23428 4.99024C7.31145 4.99294 5.46844 5.75937 4.1107 7.12092C2.75295 8.48248 1.9917 10.3276 1.99439 12.2505C1.99709 14.1733 2.76352 16.0163 4.12507 17.374L15.2938 28.7065C15.3869 28.801 15.4978 28.8761 15.6201 28.9273C15.7424 28.9785 15.8737 29.0049 16.0063 29.0049C16.1389 29.0049 16.2702 28.9785 16.3925 28.9273C16.5149 28.8761 16.6258 28.801 16.7188 28.7065L27.8751 17.374C29.2338 16.0145 29.997 14.1711 29.997 12.249C29.997 10.327 29.2338 8.48356 27.8751 7.12405ZM26.4563 15.969L16.0001 26.574L5.53757 15.959C4.55295 14.9744 3.9998 13.639 3.9998 12.2465C3.9998 10.8541 4.55295 9.51866 5.53757 8.53405C6.52219 7.54943 7.85761 6.99628 9.25007 6.99628C10.6425 6.99628 11.978 7.54943 12.9626 8.53405L12.9876 8.55905L15.3188 10.7278C15.5039 10.9 15.7473 10.9957 16.0001 10.9957C16.2529 10.9957 16.4963 10.9 16.6813 10.7278L19.0126 8.55905L19.0376 8.53405C20.0229 7.55009 21.3586 6.99784 22.7511 6.99878C24.1436 6.99972 25.4786 7.55377 26.4626 8.53905C27.4465 9.52432 27.9988 10.8601 27.9978 12.2526C27.9969 13.645 27.4429 14.9801 26.4576 15.964L26.4563 15.969Z"/>
    </symbol>
    <symbol id="cart_icon" viewBox="0 0 32 32">
      <path d="M16.9999 14.9993V21.9993C16.9999 22.2645 16.8946 22.5188 16.707 22.7064C16.5195 22.8939 16.2651 22.9993 15.9999 22.9993C15.7347 22.9993 15.4803 22.8939 15.2928 22.7064C15.1053 22.5188 14.9999 22.2645 14.9999 21.9993V14.9993C14.9999 14.734 15.1053 14.4797 15.2928 14.2922C15.4803 14.1046 15.7347 13.9993 15.9999 13.9993C16.2651 13.9993 16.5195 14.1046 16.707 14.2922C16.8946 14.4797 16.9999 14.734 16.9999 14.9993ZM29.9824 12.263L28.2499 25.2643C28.1857 25.7448 27.9491 26.1856 27.5842 26.5047C27.2193 26.8239 26.7509 26.9996 26.2662 26.9993H5.73367C5.2489 26.9996 4.78051 26.8239 4.41561 26.5047C4.05071 26.1856 3.81415 25.7448 3.74992 25.2643L2.01617 12.2643C1.97839 11.9816 2.00148 11.6942 2.08389 11.4212C2.1663 11.1482 2.30613 10.8961 2.494 10.6816C2.68187 10.467 2.91343 10.2952 3.17316 10.1775C3.43289 10.0598 3.71478 9.99907 3.99992 9.99927H8.54617L15.2499 2.34052C15.3438 2.23411 15.4592 2.14889 15.5885 2.09052C15.7178 2.03214 15.858 2.00195 15.9999 2.00195C16.1418 2.00195 16.282 2.03214 16.4114 2.09052C16.5407 2.14889 16.6561 2.23411 16.7499 2.34052L23.4537 9.99927H27.9999C28.2847 9.99945 28.5662 10.0605 28.8255 10.1782C29.0849 10.296 29.3161 10.4678 29.5036 10.6821C29.6912 10.8964 29.8308 11.1483 29.9132 11.421C29.9956 11.6936 30.0187 11.9807 29.9812 12.263H29.9824ZM11.2037 9.99927H20.7962L15.9999 4.51802L11.2037 9.99927ZM27.9999 11.9993H3.99992L5.73367 24.9993H26.2662L27.9999 11.9993ZM21.6049 14.8993L20.9049 21.8993C20.8911 22.0303 20.9033 22.1628 20.9408 22.2891C20.9784 22.4155 21.0405 22.5331 21.1237 22.6353C21.2069 22.7376 21.3094 22.8223 21.4255 22.8848C21.5415 22.9473 21.6688 22.9862 21.7999 22.9993C21.8336 23.0011 21.8674 23.0011 21.9012 22.9993C22.1489 22.999 22.3876 22.9067 22.5712 22.7405C22.7548 22.5742 22.8702 22.3457 22.8949 22.0993L23.5949 15.0993C23.6214 14.8354 23.542 14.5718 23.3742 14.3664C23.2064 14.1611 22.9638 14.0308 22.6999 14.0043C22.436 13.9777 22.1724 14.0571 21.9671 14.225C21.7617 14.3928 21.6314 14.6354 21.6049 14.8993ZM10.3949 14.8993C10.3684 14.6354 10.2381 14.3928 10.0328 14.225C9.82743 14.0571 9.56381 13.9777 9.29992 14.0043C9.03603 14.0308 8.79348 14.1611 8.62564 14.3664C8.45779 14.5718 8.3784 14.8354 8.40492 15.0993L9.10492 22.0993C9.12979 22.3468 9.24603 22.5762 9.43094 22.7426C9.61585 22.909 9.85615 23.0005 10.1049 22.9993C10.1386 23.0011 10.1724 23.0011 10.2062 22.9993C10.3368 22.9861 10.4636 22.9474 10.5793 22.8853C10.695 22.8231 10.7973 22.7388 10.8805 22.6371C10.9636 22.5354 11.0258 22.4184 11.0637 22.2927C11.1016 22.1669 11.1143 22.0349 11.1012 21.9043L10.3949 14.8993Z"/>
    </symbol>
    <symbol id="user_icon" viewBox="0 0 32 32">
      <path d="M28.865 26.4995C26.9612 23.2082 24.0275 20.8482 20.6037 19.7295C22.2973 18.7213 23.613 17.1851 24.349 15.3567C25.0849 13.5284 25.2004 11.509 24.6775 9.60869C24.1547 7.70838 23.0226 6.03224 21.4549 4.83765C19.8873 3.64306 17.9709 2.99609 16 2.99609C14.0291 2.99609 12.1126 3.64306 10.545 4.83765C8.97737 6.03224 7.84522 7.70838 7.3224 9.60869C6.79958 11.509 6.91501 13.5284 7.65096 15.3567C8.38691 17.1851 9.70268 18.7213 11.3962 19.7295C7.97247 20.847 5.03872 23.207 3.13497 26.4995C3.06516 26.6133 3.01885 26.74 2.99878 26.872C2.97872 27.004 2.98529 27.1387 3.01813 27.2682C3.05096 27.3976 3.10939 27.5192 3.18996 27.6257C3.27053 27.7322 3.37162 27.8214 3.48725 27.8882C3.60289 27.955 3.73073 27.998 3.86323 28.0146C3.99574 28.0311 4.13022 28.021 4.25875 27.9848C4.38728 27.9486 4.50725 27.8869 4.61158 27.8036C4.71592 27.7202 4.8025 27.6168 4.86622 27.4995C7.22122 23.4295 11.3837 20.9995 16 20.9995C20.6162 20.9995 24.7787 23.4295 27.1337 27.4995C27.1974 27.6168 27.284 27.7202 27.3884 27.8036C27.4927 27.8869 27.6127 27.9486 27.7412 27.9848C27.8697 28.021 28.0042 28.0311 28.1367 28.0146C28.2692 27.998 28.3971 27.955 28.5127 27.8882C28.6283 27.8214 28.7294 27.7322 28.81 27.6257C28.8906 27.5192 28.949 27.3976 28.9818 27.2682C29.0147 27.1387 29.0212 27.004 29.0012 26.872C28.9811 26.74 28.9348 26.6133 28.865 26.4995ZM8.99997 11.9995C8.99997 10.615 9.41051 9.26165 10.1797 8.1105C10.9489 6.95936 12.0421 6.06215 13.3212 5.53234C14.6003 5.00252 16.0077 4.8639 17.3656 5.134C18.7235 5.40409 19.9708 6.07078 20.9497 7.04975C21.9287 8.02871 22.5954 9.276 22.8655 10.6339C23.1356 11.9917 22.9969 13.3992 22.4671 14.6783C21.9373 15.9574 21.0401 17.0506 19.889 17.8198C18.7378 18.589 17.3844 18.9995 16 18.9995C14.1441 18.9975 12.3647 18.2594 11.0524 16.9471C9.74009 15.6347 9.00196 13.8554 8.99997 11.9995Z"/>
    </symbol>
    <symbol id="catalog_icon" viewBox="0 0 32 32">
      <path d="M30.5 21.0006L18.5 12.0006L20.9 10.2006C21.0863 10.0609 21.2375 9.87975 21.3416 9.67146C21.4458 9.46318 21.5 9.23351 21.5 9.00064C21.5007 7.60091 20.9676 6.25359 20.0095 5.23319C19.0513 4.21279 17.7402 3.5961 16.3432 3.50877C14.9462 3.42144 13.5684 3.87003 12.4906 4.76316C11.4129 5.65628 10.7162 6.92672 10.5425 8.31564C10.5179 8.51115 10.532 8.70959 10.5841 8.89963C10.6361 9.08968 10.7251 9.26761 10.846 9.42326C10.9668 9.57892 11.1171 9.70925 11.2883 9.80681C11.4595 9.90438 11.6482 9.96727 11.8438 9.99189C12.0393 10.0165 12.2377 10.0024 12.4277 9.95032C12.6178 9.89825 12.7957 9.80926 12.9514 9.68843C13.107 9.5676 13.2374 9.41729 13.3349 9.24609C13.4325 9.07489 13.4954 8.88615 13.52 8.69064C13.5924 8.11859 13.8603 7.58915 14.2784 7.19202C14.6965 6.79489 15.239 6.55449 15.814 6.51153C16.389 6.46858 16.9612 6.62572 17.4336 6.95633C17.906 7.28694 18.2497 7.77069 18.4062 8.32564L15.125 10.7806C15.1062 10.7931 15.0887 10.8069 15.0712 10.8206L1.5 21.0006C1.08024 21.3155 0.770167 21.7544 0.613716 22.2552C0.457266 22.7561 0.462365 23.2934 0.628292 23.7912C0.794218 24.289 1.11256 24.7219 1.53822 25.0287C1.96389 25.3355 2.47529 25.5006 3 25.5006H29C29.5247 25.5006 30.0361 25.3355 30.4618 25.0287C30.8874 24.7219 31.2058 24.289 31.3717 23.7912C31.5376 23.2934 31.5427 22.7561 31.3863 22.2552C31.2298 21.7544 30.9198 21.3155 30.5 21.0006ZM4.5 22.5006L16 13.8756L27.5 22.5006H4.5Z"/>
    </symbol>
    <symbol id="chevron_down" viewBox="0 0 512 512">
      <path d="M84.5,201c-11.4-11.4-11.3-29.9,0.1-41.3c11.4-11.4,29.9-11.3,41.3,0.1L256,290.3l130.1-130.5c11.4-11.4,29.9-11.5,41.3-0.1c11.4,11.4,11.5,29.9,0.1,41.3L276.6,352.3c-11.4,11.4-29.9,11.3-41.3-0.1L84.5,201z"/>
    </symbol>
    <symbol id="close_icon" viewBox="0 0 32 32">
      <path d="M26.0612 23.938C26.343 24.2198 26.5013 24.602 26.5013 25.0005C26.5013 25.399 26.343 25.7812 26.0612 26.063C25.7794 26.3448 25.3972 26.5031 24.9987 26.5031C24.6002 26.5031 24.218 26.3448 23.9362 26.063L15.9999 18.1242L8.0612 26.0605C7.7794 26.3423 7.39721 26.5006 6.9987 26.5006C6.60018 26.5006 6.21799 26.3423 5.9362 26.0605C5.6544 25.7787 5.49609 25.3965 5.49609 24.998C5.49609 24.5995 5.6544 24.2173 5.9362 23.9355L13.8749 15.9992L5.9387 8.06049C5.6569 7.7787 5.49859 7.39651 5.49859 6.99799C5.49859 6.59948 5.6569 6.21729 5.9387 5.93549C6.22049 5.6537 6.60268 5.49539 7.0012 5.49539C7.39971 5.49539 7.7819 5.6537 8.0637 5.93549L15.9999 13.8742L23.9387 5.93424C24.2205 5.65245 24.6027 5.49414 25.0012 5.49414C25.3997 5.49414 25.7819 5.65245 26.0637 5.93424C26.3455 6.21603 26.5038 6.59823 26.5038 6.99674C26.5038 7.39526 26.3455 7.77745 26.0637 8.05924L18.1249 15.9992L26.0612 23.938Z"/>
    </symbol>
    <symbol id="email_icon" viewBox="0 0 24 24">
      <path d="M21 4.5H3C2.80109 4.5 2.61032 4.57902 2.46967 4.71967C2.32902 4.86032 2.25 5.05109 2.25 5.25V18C2.25 18.3978 2.40804 18.7794 2.68934 19.0607C2.97064 19.342 3.35218 19.5 3.75 19.5H20.25C20.6478 19.5 21.0294 19.342 21.3107 19.0607C21.592 18.7794 21.75 18.3978 21.75 18V5.25C21.75 5.05109 21.671 4.86032 21.5303 4.71967C21.3897 4.57902 21.1989 4.5 21 4.5ZM19.0716 6L12 12.4828L4.92844 6H19.0716ZM20.25 18H3.75V6.95531L11.4928 14.0531C11.6312 14.1801 11.8122 14.2506 12 14.2506C12.1878 14.2506 12.3688 14.1801 12.5072 14.0531L20.25 6.95531V18Z"/>
    </symbol>
</svg>
