<svg width="68" height="32" viewBox="0 0 68 32" fill="none" xmlns="http://www.w3.org/2000/svg">
<path d="M67.3102 17.0816L53.5409 30.8509C53.2539 31.1379 52.8645 31.2992 52.4585 31.2992C52.0525 31.2992 51.6632 31.1379 51.3761 30.8509C51.089 30.5638 50.9277 30.1744 50.9277 29.7685C50.9277 29.3625 51.089 28.9731 51.3761 28.686L62.5349 17.5291H1.97132C1.56556 17.5291 1.17642 17.3679 0.889508 17.081C0.602594 16.7941 0.441406 16.405 0.441406 15.9992C0.441406 15.5935 0.602594 15.2043 0.889508 14.9174C1.17642 14.6305 1.56556 14.4693 1.97132 14.4693H62.5349L51.3761 3.3124C51.089 3.02532 50.9277 2.63597 50.9277 2.22998C50.9277 1.824 51.089 1.43464 51.3761 1.14757C51.6632 0.860495 52.0525 0.699219 52.4585 0.699219C52.8645 0.699219 53.2539 0.860495 53.5409 1.14757L67.3102 14.9168C67.4524 15.0589 67.5653 15.2276 67.6423 15.4134C67.7192 15.5991 67.7589 15.7982 67.7589 15.9992C67.7589 16.2003 67.7192 16.3994 67.6423 16.5851C67.5653 16.7708 67.4524 16.9395 67.3102 17.0816Z"/>
</svg>
