<svg width="32" height="32" viewBox="0 0 32 32" fill="none" xmlns="http://www.w3.org/2000/svg">
<path d="M16.9999 14.9993V21.9993C16.9999 22.2645 16.8946 22.5188 16.707 22.7064C16.5195 22.8939 16.2651 22.9993 15.9999 22.9993C15.7347 22.9993 15.4803 22.8939 15.2928 22.7064C15.1053 22.5188 14.9999 22.2645 14.9999 21.9993V14.9993C14.9999 14.734 15.1053 14.4797 15.2928 14.2922C15.4803 14.1046 15.7347 13.9993 15.9999 13.9993C16.2651 13.9993 16.5195 14.1046 16.707 14.2922C16.8946 14.4797 16.9999 14.734 16.9999 14.9993ZM29.9824 12.263L28.2499 25.2643C28.1857 25.7448 27.9491 26.1856 27.5842 26.5047C27.2193 26.8239 26.7509 26.9996 26.2662 26.9993H5.73367C5.2489 26.9996 4.78051 26.8239 4.41561 26.5047C4.05071 26.1856 3.81415 25.7448 3.74992 25.2643L2.01617 12.2643C1.97839 11.9816 2.00148 11.6942 2.08389 11.4212C2.1663 11.1482 2.30613 10.8961 2.494 10.6816C2.68187 10.467 2.91343 10.2952 3.17316 10.1775C3.43289 10.0598 3.71478 9.99907 3.99992 9.99927H8.54617L15.2499 2.34052C15.3438 2.23411 15.4592 2.14889 15.5885 2.09052C15.7178 2.03214 15.858 2.00195 15.9999 2.00195C16.1418 2.00195 16.282 2.03214 16.4114 2.09052C16.5407 2.14889 16.6561 2.23411 16.7499 2.34052L23.4537 9.99927H27.9999C28.2847 9.99945 28.5662 10.0605 28.8255 10.1782C29.0849 10.296 29.3161 10.4678 29.5036 10.6821C29.6912 10.8964 29.8308 11.1483 29.9132 11.421C29.9956 11.6936 30.0187 11.9807 29.9812 12.263H29.9824ZM11.2037 9.99927H20.7962L15.9999 4.51802L11.2037 9.99927ZM27.9999 11.9993H3.99992L5.73367 24.9993H26.2662L27.9999 11.9993ZM21.6049 14.8993L20.9049 21.8993C20.8911 22.0303 20.9033 22.1628 20.9408 22.2891C20.9784 22.4155 21.0405 22.5331 21.1237 22.6353C21.2069 22.7376 21.3094 22.8223 21.4255 22.8848C21.5415 22.9473 21.6688 22.9862 21.7999 22.9993C21.8336 23.0011 21.8674 23.0011 21.9012 22.9993C22.1489 22.999 22.3876 22.9067 22.5712 22.7405C22.7548 22.5742 22.8702 22.3457 22.8949 22.0993L23.5949 15.0993C23.6214 14.8354 23.542 14.5718 23.3742 14.3664C23.2064 14.1611 22.9638 14.0308 22.6999 14.0043C22.436 13.9777 22.1724 14.0571 21.9671 14.225C21.7617 14.3928 21.6314 14.6354 21.6049 14.8993ZM10.3949 14.8993C10.3684 14.6354 10.2381 14.3928 10.0328 14.225C9.82743 14.0571 9.56381 13.9777 9.29992 14.0043C9.03603 14.0308 8.79348 14.1611 8.62564 14.3664C8.45779 14.5718 8.3784 14.8354 8.40492 15.0993L9.10492 22.0993C9.12979 22.3468 9.24603 22.5762 9.43094 22.7426C9.61585 22.909 9.85615 23.0005 10.1049 22.9993C10.1386 23.0011 10.1724 23.0011 10.2062 22.9993C10.3368 22.9861 10.4636 22.9474 10.5793 22.8853C10.695 22.8231 10.7973 22.7388 10.8805 22.6371C10.9636 22.5354 11.0258 22.4184 11.0637 22.2927C11.1016 22.1669 11.1143 22.0349 11.1012 21.9043L10.3949 14.8993Z"/>
</svg>
