<svg width="32" height="32" viewBox="0 0 32 32" fill="none" xmlns="http://www.w3.org/2000/svg">
<path d="M30.5 21.0006L18.5 12.0006L20.9 10.2006C21.0863 10.0609 21.2375 9.87975 21.3416 9.67146C21.4458 9.46318 21.5 9.23351 21.5 9.00064C21.5007 7.60091 20.9676 6.25359 20.0095 5.23319C19.0513 4.21279 17.7402 3.5961 16.3432 3.50877C14.9462 3.42144 13.5684 3.87003 12.4906 4.76316C11.4129 5.65628 10.7162 6.92672 10.5425 8.31564C10.5179 8.51115 10.532 8.70959 10.5841 8.89963C10.6361 9.08968 10.7251 9.26761 10.846 9.42326C10.9668 9.57892 11.1171 9.70925 11.2883 9.80681C11.4595 9.90438 11.6482 9.96727 11.8438 9.99189C12.0393 10.0165 12.2377 10.0024 12.4277 9.95032C12.6178 9.89825 12.7957 9.80926 12.9514 9.68843C13.107 9.5676 13.2374 9.41729 13.3349 9.24609C13.4325 9.07489 13.4954 8.88615 13.52 8.69064C13.5924 8.11859 13.8603 7.58915 14.2784 7.19202C14.6965 6.79489 15.239 6.55449 15.814 6.51153C16.389 6.46858 16.9612 6.62572 17.4336 6.95633C17.906 7.28694 18.2497 7.77069 18.4062 8.32564L15.125 10.7806C15.1062 10.7931 15.0887 10.8069 15.0712 10.8206L1.5 21.0006C1.08024 21.3155 0.770167 21.7544 0.613716 22.2552C0.457266 22.7561 0.462365 23.2934 0.628292 23.7912C0.794218 24.289 1.11256 24.7219 1.53822 25.0287C1.96389 25.3355 2.47529 25.5006 3 25.5006H29C29.5247 25.5006 30.0361 25.3355 30.4618 25.0287C30.8874 24.7219 31.2058 24.289 31.3717 23.7912C31.5376 23.2934 31.5427 22.7561 31.3863 22.2552C31.2298 21.7544 30.9198 21.3155 30.5 21.0006ZM4.5 22.5006L16 13.8756L27.5 22.5006H4.5Z"/>
</svg>
