<svg width="26" height="26" viewBox="0 0 26 26" fill="none" xmlns="http://www.w3.org/2000/svg">
<path d="M20.6484 6.32726L6.3302 20.6454C6.18094 20.7947 5.9785 20.8786 5.76741 20.8786C5.55633 20.8786 5.35389 20.7947 5.20463 20.6454C5.05537 20.4962 4.97151 20.2937 4.97151 20.0827C4.97151 19.8716 5.05537 19.6691 5.20463 19.5199L19.5228 5.20169C19.6719 5.05243 19.8743 4.96852 20.0852 4.96843C20.2962 4.96834 20.4986 5.05206 20.6479 5.20119C20.7971 5.35032 20.881 5.55263 20.8811 5.76362C20.8812 5.97462 20.7975 6.177 20.6484 6.32626V6.32726ZM5.22451 10.2846C4.55324 9.61324 4.17618 8.70267 4.17627 7.75326C4.17636 6.80384 4.55361 5.89335 5.22501 5.22207C5.89642 4.5508 6.80698 4.17373 7.7564 4.17383C8.70582 4.17392 9.61631 4.55116 10.2876 5.22257C10.9589 5.89397 11.3359 6.80454 11.3358 7.75396C11.3357 8.70337 10.9585 9.61387 10.2871 10.2851C9.61568 10.9564 8.70511 11.3335 7.7557 11.3334C6.80628 11.3333 5.89579 10.956 5.22451 10.2846ZM5.76741 7.7551C5.76767 8.08208 5.84855 8.40395 6.00289 8.69221C6.15723 8.98047 6.38027 9.22623 6.65226 9.40772C6.92425 9.58921 7.23679 9.70083 7.56221 9.7327C7.88763 9.76457 8.2159 9.71571 8.51793 9.59044C8.81996 9.46517 9.08644 9.26735 9.29378 9.01451C9.50111 8.76167 9.6429 8.46161 9.70659 8.14089C9.77028 7.82018 9.75391 7.4887 9.65892 7.17583C9.56393 6.86295 9.39326 6.57832 9.16201 6.34714C8.88378 6.06899 8.52929 5.87962 8.14341 5.80299C7.75752 5.72635 7.35757 5.7659 6.99417 5.91663C6.63076 6.06736 6.32023 6.32249 6.10186 6.64974C5.88349 6.977 5.7671 7.36168 5.76741 7.7551ZM21.6765 18.096C21.6763 18.9241 21.389 19.7266 20.8635 20.3666C20.338 21.0067 19.6068 21.4447 18.7945 21.6061C17.9823 21.7675 17.1392 21.6422 16.4089 21.2517C15.6787 20.8612 15.1064 20.2295 14.7896 19.4644C14.4729 18.6992 14.4312 17.8479 14.6717 17.0554C14.9123 16.263 15.4202 15.5785 16.1088 15.1185C16.7975 14.6586 17.6243 14.4516 18.4484 14.5329C19.2726 14.6142 20.043 14.9788 20.6285 15.5645C20.9619 15.8962 21.2262 16.2907 21.4061 16.7252C21.586 17.1598 21.6779 17.6257 21.6765 18.096ZM20.0856 18.096C20.0857 17.6359 19.9263 17.19 19.6345 16.8343C19.3427 16.4786 18.9365 16.2351 18.4853 16.1452C18.0341 16.0554 17.5657 16.1248 17.1599 16.3416C16.7541 16.5584 16.436 16.9092 16.2598 17.3342C16.0837 17.7593 16.0604 18.2322 16.1939 18.6725C16.3273 19.1128 16.6094 19.4932 16.9919 19.7489C17.3744 20.0046 17.8337 20.1197 18.2916 20.0747C18.7494 20.0297 19.1775 19.8273 19.5029 19.502C19.6882 19.3178 19.8351 19.0987 19.9351 18.8573C20.0351 18.616 20.0862 18.3572 20.0856 18.096Z"/>
</svg>
