<svg width="32" height="32" viewBox="0 0 32 32" fill="none" xmlns="http://www.w3.org/2000/svg">
<path d="M16 32C24.8366 32 32 24.8366 32 16C32 7.16344 24.8366 0 16 0C7.16344 0 0 7.16344 0 16C0 24.8366 7.16344 32 16 32Z" fill="#1A212B"/>
<path fill-rule="evenodd" clip-rule="evenodd" d="M7.24334 15.8319C11.9077 13.7997 15.0179 12.46 16.5742 11.8127C21.0175 9.96457 21.9408 9.64353 22.5426 9.63293C22.675 9.63059 22.9709 9.6634 23.1626 9.81895C23.3245 9.95029 23.369 10.1277 23.3903 10.2522C23.4117 10.3768 23.4382 10.6605 23.4171 10.8821C23.1763 13.4121 22.1344 19.5517 21.6044 22.3853C21.3801 23.5843 20.9385 23.9863 20.5109 24.0257C19.5818 24.1112 18.8762 23.4116 17.9763 22.8217C16.5681 21.8986 15.7725 21.324 14.4056 20.4232C12.8259 19.3822 13.85 18.8101 14.7503 17.875C14.9859 17.6303 19.0797 13.9066 19.1589 13.5688C19.1689 13.5266 19.1781 13.3691 19.0845 13.2859C18.9909 13.2028 18.8529 13.2312 18.7532 13.2538C18.612 13.2859 16.3624 14.7728 12.0043 17.7146C11.3658 18.1531 10.7874 18.3667 10.2692 18.3555C9.69791 18.3432 8.599 18.0325 7.78206 17.767C6.78006 17.4413 5.98369 17.2691 6.05304 16.7159C6.08916 16.4278 6.48592 16.1331 7.24334 15.8319Z" fill="white"/>
</svg>
