<svg width="32" height="32" viewBox="0 0 32 32" fill="none" xmlns="http://www.w3.org/2000/svg">
<path d="M28.865 26.4995C26.9612 23.2082 24.0275 20.8482 20.6037 19.7295C22.2973 18.7213 23.613 17.1851 24.349 15.3567C25.0849 13.5284 25.2004 11.509 24.6775 9.60869C24.1547 7.70838 23.0226 6.03224 21.4549 4.83765C19.8873 3.64306 17.9709 2.99609 16 2.99609C14.0291 2.99609 12.1126 3.64306 10.545 4.83765C8.97737 6.03224 7.84522 7.70838 7.3224 9.60869C6.79958 11.509 6.91501 13.5284 7.65096 15.3567C8.38691 17.1851 9.70268 18.7213 11.3962 19.7295C7.97247 20.847 5.03872 23.207 3.13497 26.4995C3.06516 26.6133 3.01885 26.74 2.99878 26.872C2.97872 27.004 2.98529 27.1387 3.01813 27.2682C3.05096 27.3976 3.10939 27.5192 3.18996 27.6257C3.27053 27.7322 3.37162 27.8214 3.48725 27.8882C3.60289 27.955 3.73073 27.998 3.86323 28.0146C3.99574 28.0311 4.13022 28.021 4.25875 27.9848C4.38728 27.9486 4.50725 27.8869 4.61158 27.8036C4.71592 27.7202 4.8025 27.6168 4.86622 27.4995C7.22122 23.4295 11.3837 20.9995 16 20.9995C20.6162 20.9995 24.7787 23.4295 27.1337 27.4995C27.1974 27.6168 27.284 27.7202 27.3884 27.8036C27.4927 27.8869 27.6127 27.9486 27.7412 27.9848C27.8697 28.021 28.0042 28.0311 28.1367 28.0146C28.2692 27.998 28.3971 27.955 28.5127 27.8882C28.6283 27.8214 28.7294 27.7322 28.81 27.6257C28.8906 27.5192 28.949 27.3976 28.9818 27.2682C29.0147 27.1387 29.0212 27.004 29.0012 26.872C28.9811 26.74 28.9348 26.6133 28.865 26.4995ZM8.99997 11.9995C8.99997 10.615 9.41051 9.26165 10.1797 8.1105C10.9489 6.95936 12.0421 6.06215 13.3212 5.53234C14.6003 5.00252 16.0077 4.8639 17.3656 5.134C18.7235 5.40409 19.9708 6.07078 20.9497 7.04975C21.9287 8.02871 22.5954 9.276 22.8655 10.6339C23.1356 11.9917 22.9969 13.3992 22.4671 14.6783C21.9373 15.9574 21.0401 17.0506 19.889 17.8198C18.7378 18.589 17.3844 18.9995 16 18.9995C14.1441 18.9975 12.3647 18.2594 11.0524 16.9471C9.74009 15.6347 9.00196 13.8554 8.99997 11.9995Z"/>
</svg>
