<svg width="32" height="32" viewBox="0 0 32 32" fill="none" xmlns="http://www.w3.org/2000/svg">
<path fill-rule="evenodd" clip-rule="evenodd" d="M2.38535 2.38535C0.158203 4.61251 0.158203 8.19705 0.158203 15.3661V16.6334C0.158203 23.8025 0.158203 27.3871 2.38535 29.6142C4.61251 31.8414 8.19705 31.8414 15.3661 31.8414H16.6334C23.8025 31.8414 27.3871 31.8414 29.6142 29.6142C31.8414 27.3871 31.8414 23.8025 31.8414 16.6334V15.3661C31.8414 8.19705 31.8414 4.61251 29.6142 2.38535C27.3871 0.158203 23.8025 0.158203 16.6334 0.158203H15.3661C8.19705 0.158203 4.61251 0.158203 2.38535 2.38535ZM5.5048 9.79524C5.6764 18.0329 9.79518 22.9833 17.0163 22.9833H17.4256V18.2705C20.0791 18.5345 22.0856 20.4751 22.8908 22.9833H26.6401C25.6104 19.2342 22.904 17.1615 21.2142 16.3695C22.904 15.3926 25.2803 13.0163 25.8479 9.79524H22.4419C21.7026 12.4091 19.5114 14.7853 17.4256 15.0097V9.79524H14.0196V18.9305C11.9074 18.4025 9.24075 15.8414 9.12194 9.79524H5.5048Z" fill="#1A212B"/>
</svg>
