<svg width="266" height="101" viewBox="0 0 266 101" fill="none" xmlns="http://www.w3.org/2000/svg">
<path d="M257.977 61.1756C257.344 61.1756 256.653 60.9432 255.904 60.4785C255.155 59.9556 254.637 59.4037 254.348 58.8227C254.344 57.4865 254.513 55.6565 254.852 53.3327C255.192 51.0088 255.56 48.6269 255.957 46.1868C256.412 43.6887 256.809 41.5682 257.15 39.8253C256.119 41.452 254.944 43.2239 253.625 45.1411C252.307 47.0583 250.959 48.8592 249.583 50.544C248.206 52.1707 246.8 53.536 245.365 54.6398C243.987 55.6855 242.694 56.2084 241.486 56.2084C240.278 56.2084 239.328 55.8017 238.636 54.9884C237.944 54.1169 237.596 53.1293 237.594 52.0255C237.593 51.735 237.65 51.3574 237.764 50.8926C238.275 48.2202 239.276 45.7221 240.766 43.3982C242.313 41.0163 244.063 38.9248 246.014 37.1238C248.023 35.3228 250.004 33.8995 251.957 32.8538C253.911 31.808 255.577 31.2852 256.958 31.2852C257.993 31.2852 258.971 31.5175 259.893 31.9823C260.872 32.389 261.793 33.0861 262.659 34.0738C262.832 34.2481 262.918 34.4514 262.919 34.6838C262.919 34.9743 262.748 35.2647 262.403 35.5552C262.004 36.9495 261.576 38.6343 261.121 40.6096C260.723 42.5268 260.325 44.5311 259.927 46.6225C259.587 48.6559 259.303 50.544 259.077 52.2869C258.851 54.0298 258.74 55.366 258.742 56.2956C258.743 56.9346 258.83 57.2541 259.003 57.2541C259.463 57.2541 260.037 56.7603 260.725 55.7727C261.47 54.7851 262.187 53.6522 262.874 52.3741C263.561 51.0959 264.162 49.9631 264.678 48.9754C265.251 47.9878 265.595 47.494 265.71 47.494C265.882 47.494 265.969 47.7264 265.97 48.1911C265.972 49.1788 265.659 50.3988 265.03 51.8512C264.4 53.3036 263.627 54.756 262.71 56.2084C261.851 57.6027 260.962 58.7937 260.044 59.7813C259.183 60.7109 258.494 61.1756 257.977 61.1756ZM242.169 52.9841C242.974 52.9841 243.98 52.5193 245.185 51.5898C246.448 50.6602 247.74 49.4693 249.059 48.0169C250.436 46.5644 251.756 45.0249 253.017 43.3982C254.336 41.7715 255.454 40.232 256.371 38.7796C257.346 37.2691 258.033 36.049 258.433 35.1195C257.283 35.1195 255.961 35.5552 254.468 36.4267C252.974 37.24 251.452 38.3148 249.903 39.651C248.353 40.9291 246.918 42.3525 245.599 43.9211C244.279 45.4316 243.219 46.913 242.417 48.3654C241.615 49.8178 241.215 51.0669 241.218 52.1126C241.219 52.6936 241.536 52.9841 242.169 52.9841Z" fill="#728197"/>
<path d="M221.398 65.271C219.327 65.271 217.686 64.632 216.476 63.3539C215.322 62.0177 214.484 60.3329 213.962 58.2995C213.497 56.208 213.262 54.0294 213.256 51.7637C213.254 50.6599 213.28 49.527 213.335 48.3651C213.447 47.2031 213.559 46.0703 213.672 44.9664C213.442 45.1988 213.213 45.4312 212.983 45.6636C212.753 45.8379 212.495 46.0412 212.208 46.2736C211.979 46.506 211.662 46.6222 211.26 46.6222C210.857 46.6222 210.656 46.535 210.655 46.3607C210.655 46.3026 210.712 46.2155 210.827 46.0993C211.344 45.6345 211.86 45.1407 212.377 44.6179C212.893 44.0369 213.409 43.4269 213.925 42.7878L214.776 37.472C215.343 34.1605 215.996 30.5586 216.735 26.6661C217.531 22.7156 218.442 18.736 219.468 14.7274C220.551 10.7187 221.75 6.94249 223.065 3.39863C223.465 2.41099 223.809 1.59765 224.095 0.95859C224.438 0.31953 224.898 0 225.473 0C226.106 0 226.768 0.261433 227.459 0.784298C228.15 1.30716 228.669 1.85908 229.016 2.44004H229.102C230.487 4.18293 231.182 6.53582 231.189 9.49873C231.196 12.3454 230.657 15.5117 229.572 18.9974C228.487 22.4251 227.029 25.8818 225.196 29.3676C223.364 32.7953 221.329 35.9615 219.093 38.8663C217.956 44.7921 217.392 49.6141 217.401 53.3323C217.408 56.0628 217.7 58.2414 218.279 59.8681C218.858 61.4948 219.494 62.6567 220.185 63.3539C220.877 64.051 221.367 64.3996 221.655 64.3996C222.345 64.3996 222.918 63.7025 223.375 62.3081C223.89 60.8557 224.317 59.0548 224.657 56.9052C224.997 54.6975 225.25 52.4318 225.417 50.1079C225.585 47.7841 225.666 45.7217 225.662 43.9207C225.658 42.2359 225.569 40.9578 225.394 40.0864C224.53 39.5635 224.096 38.4016 224.092 36.6006C224.089 35.4968 224.26 34.9448 224.605 34.9448H224.778C224.836 35.0029 224.922 35.032 225.037 35.032H225.123C225.123 35.032 225.123 35.061 225.124 35.1191C225.181 35.1191 225.239 35.1191 225.296 35.1191C226.159 35.3515 227.282 35.642 228.663 35.9906C230.044 36.2811 231.511 36.5715 233.065 36.862C234.619 37.1525 236.029 37.3849 237.294 37.5592C238.618 37.7335 239.596 37.8206 240.228 37.8206C240.458 37.8206 240.631 37.7916 240.746 37.7335C240.861 37.6754 240.947 37.6463 241.004 37.6463C241.177 37.6463 241.263 37.7044 241.264 37.8206C241.264 38.1111 241.035 38.4016 240.575 38.692C240.174 38.9825 239.398 39.273 238.248 39.5635C237.098 39.854 235.776 40.0864 234.281 40.2606C232.843 40.4349 231.406 40.5221 229.968 40.5221C229.393 40.5221 228.846 40.5511 228.329 40.6092C227.811 40.6092 227.322 40.5802 226.862 40.5221C227.037 41.6259 227.184 42.9912 227.303 44.6179C227.421 46.1865 227.483 48.0165 227.488 50.1079C227.494 52.4318 227.326 54.7847 226.987 57.1666C226.705 59.4905 226.105 61.4367 225.189 63.0053C224.33 64.5158 223.066 65.271 221.398 65.271ZM219.946 34.6834C221.723 31.9529 223.326 29.1352 224.758 26.2304C226.189 23.2675 227.332 20.3918 228.189 17.6031C229.102 14.7564 229.556 12.2002 229.551 9.93445C229.549 9.1211 229.461 8.3368 229.287 7.58155C229.17 6.8263 228.967 6.15819 228.678 5.57723C226.962 9.81825 225.334 14.524 223.793 19.6946C222.31 24.8071 221.027 29.8033 219.946 34.6834Z" fill="#728197"/>
<path d="M183.269 71.1961C182.809 71.1961 182.06 70.7604 181.023 69.8889C179.986 69.0756 179.322 68.117 179.032 67.0132C178.626 65.5608 178.363 63.6436 178.242 61.2616C178.121 58.8797 178.058 56.2944 178.051 53.5058C178.044 50.5429 178.066 47.5219 178.116 44.4428C178.167 41.3056 178.189 38.4299 178.182 35.8155C178.179 34.5374 178.177 33.3755 178.174 32.3298C178.172 31.2259 178.112 30.2673 177.995 29.454C177.88 29.3378 177.534 29.2507 176.959 29.1926C176.441 29.0764 175.923 28.9892 175.406 28.9311C174.945 28.8149 174.715 28.7568 174.715 28.7568C174.715 28.6407 175.145 28.3792 176.007 27.9725C176.926 27.5078 178.22 27.2754 179.888 27.2754C181.556 27.2754 182.65 27.5949 183.169 28.234C183.688 28.873 183.948 29.4249 183.949 29.8897C183.95 30.064 183.95 30.2383 183.95 30.4126C183.951 30.5869 183.922 30.7612 183.865 30.9354C183.411 33.2012 183.07 35.2636 182.844 37.1227C182.619 38.9237 182.45 40.7827 182.34 42.6999C182.229 44.559 182.148 46.7376 182.096 49.2357C182.153 49.0615 182.41 48.161 182.866 46.5343C183.38 44.8495 184.208 42.2352 185.35 38.6913C186.264 35.7284 187.007 33.8112 187.58 32.9398C188.153 32.0102 188.641 31.5164 189.043 31.4583C189.158 31.5164 189.475 31.6326 189.993 31.8069C190.511 31.9812 191.029 32.2717 191.548 32.6783C192.067 33.0269 192.326 33.4917 192.328 34.0726L192.328 34.2469C191.931 36.3965 191.562 38.8365 191.224 41.567C190.943 44.2976 190.805 46.9409 190.811 49.4972C190.815 51.1239 190.876 52.6344 190.994 54.0287C191.17 55.423 191.46 56.5559 191.865 57.4273C191.864 57.1949 192.035 56.4397 192.377 55.1615C192.777 53.8834 193.234 52.431 193.747 50.8043C194.261 49.1195 194.746 47.5219 195.203 46.0114C195.66 44.5009 196.002 43.368 196.23 42.6128C196.687 41.2185 197.088 40.2889 197.432 39.8242C197.833 39.3594 198.379 39.127 199.069 39.127C200.047 39.127 200.739 39.737 201.144 40.957C201.607 42.119 201.898 43.5714 202.017 45.3142C202.136 47.0571 202.227 48.8 202.288 50.5429C202.35 52.2858 202.468 53.7672 202.644 54.9873C202.877 56.1492 203.309 56.7301 203.942 56.7301C204.69 56.7301 205.465 56.1782 206.268 55.0744C207.07 53.9125 207.843 52.5763 208.588 51.0658C209.389 49.5553 210.105 48.2481 210.735 47.1443C211.365 45.9824 211.853 45.4014 212.198 45.4014C212.371 45.4014 212.457 45.5466 212.458 45.8371C212.458 46.0695 212.373 46.4471 212.202 46.97C211.401 48.9453 210.543 50.9205 209.627 52.8958C208.712 54.8711 207.766 56.5268 206.792 57.863C205.817 59.1992 204.783 59.8673 203.69 59.8673C202.31 59.8673 201.216 59.4607 200.409 58.6473C199.833 58.1245 199.37 57.1659 199.022 55.7716C198.673 54.3192 198.382 52.8087 198.149 51.2401C197.915 49.6715 197.682 48.3352 197.449 47.2314C197.274 46.0695 197.071 45.4885 196.841 45.4885C196.668 45.4885 196.411 46.0114 196.068 47.0571C195.783 48.0448 195.469 49.2938 195.128 50.8043C194.786 52.3148 194.445 53.8544 194.103 55.423C193.819 56.9335 193.564 58.2697 193.336 59.4316C193.166 60.5935 193.082 61.3197 193.082 61.6102C193.084 62.3074 192.769 62.714 192.136 62.8302C191.561 62.9464 190.814 63.0045 189.893 63.0045C189.491 63.0045 189.087 62.3655 188.681 61.0874C188.275 59.7511 187.898 58.0664 187.548 56.033C187.255 53.9415 187.02 51.7339 186.842 49.41C186.664 47.0862 186.573 44.9366 186.568 42.9614C186.567 42.3223 186.565 41.7413 186.564 41.2185C186.563 40.6375 186.59 40.1146 186.647 39.6499C185.733 42.3223 184.791 45.5757 183.822 49.41C182.853 53.1863 182.374 57.2821 182.384 61.6974C182.388 63.4983 182.479 65.1831 182.655 66.7517C182.831 68.3203 183.122 69.5403 183.526 70.4118C183.584 70.528 183.613 70.6732 183.614 70.8475C183.614 71.0799 183.499 71.1961 183.269 71.1961Z" fill="#728197"/>
<path d="M150.735 66.4039C147.399 66.4039 144.779 65.5034 142.877 63.7024C141.032 61.9014 140.107 59.6938 140.101 57.0795C140.094 54.2909 140.663 51.5022 141.807 48.7136C142.95 45.8669 144.497 43.1654 146.447 40.6092C148.396 38.053 150.606 35.7872 153.074 33.812C155.543 31.8367 158.156 30.2681 160.914 29.1062C163.673 27.9442 166.375 27.3633 169.02 27.3633C170.631 27.3633 171.954 27.6538 172.991 28.2347C174.028 28.8157 174.547 29.3966 174.548 29.9776C174.549 30.1519 174.491 30.2971 174.377 30.4133C174.147 30.6457 173.803 31.2557 173.346 32.2434C172.945 33.1729 172.516 34.2477 172.059 35.4677C171.659 36.6877 171.288 37.9368 170.946 39.2149C170.661 40.4349 170.52 41.4807 170.522 42.3521C170.409 42.9912 170.122 43.3107 169.662 43.3107C169.259 43.3107 168.769 42.8459 168.192 41.9164C167.672 40.9287 167.41 39.6216 167.406 37.9949C167.404 36.9491 167.602 35.8453 168.002 34.6834C168.46 33.5215 168.889 32.4757 169.289 31.5462C169.747 30.5586 169.975 29.8614 169.974 29.4547C169.974 29.2224 169.858 29.1062 169.628 29.1062C169.456 29.1062 169.283 29.1062 169.111 29.1062C167.903 29.1062 166.207 29.6581 164.024 30.7619C161.841 31.8076 159.286 33.7539 156.359 36.6006C154.408 38.5177 152.601 40.7545 150.939 43.3107C149.277 45.8669 147.932 48.4522 146.903 51.0665C145.931 53.6808 145.448 56.0918 145.453 58.2995C145.459 60.8557 146.095 62.5115 147.362 63.2667C148.687 64.022 150.184 64.3996 151.852 64.3996C154.727 64.3996 157.602 63.8477 160.475 62.7438C163.406 61.64 166.135 60.1295 168.661 58.2123C171.245 56.2952 173.397 54.1166 175.117 51.6765C175.174 51.5603 175.231 51.5022 175.289 51.5022C175.346 51.4441 175.375 51.4151 175.375 51.4151C175.49 51.4151 175.548 51.5313 175.548 51.7637C175.549 52.0542 175.464 52.4608 175.292 52.9837C175.178 53.5066 175.007 53.9132 174.777 54.2037C173.631 56.0047 171.996 57.8638 169.873 59.7809C167.749 61.64 165.107 63.2086 161.946 64.4867C158.786 65.7648 155.048 66.4039 150.735 66.4039Z" fill="#728197"/>
<path d="M115.191 71.1961C114.731 71.1961 113.982 70.7604 112.945 69.8889C111.908 69.0756 111.244 68.117 110.954 67.0132C110.548 65.5608 110.284 63.6436 110.164 61.2616C110.043 58.8797 109.98 56.2944 109.973 53.5058C109.966 50.5429 109.988 47.5219 110.038 44.4428C110.088 41.3056 110.11 38.4299 110.104 35.8155C110.101 34.5374 110.099 33.3755 110.096 32.3298C110.094 31.2259 110.034 30.2673 109.917 29.454C109.802 29.3378 109.456 29.2507 108.881 29.1926C108.363 29.0764 107.845 28.9892 107.327 28.9311C106.867 28.8149 106.637 28.7568 106.637 28.7568C106.636 28.6407 107.067 28.3792 107.929 27.9725C108.848 27.5078 110.142 27.2754 111.81 27.2754C113.478 27.2754 114.572 27.5949 115.091 28.234C115.61 28.873 115.87 29.4249 115.871 29.8897C115.871 30.064 115.872 30.2383 115.872 30.4126C115.873 30.5869 115.844 30.7612 115.787 30.9354C115.332 33.2012 114.992 35.2636 114.766 37.1227C114.541 38.9237 114.372 40.7827 114.262 42.6999C114.151 44.559 114.07 46.7376 114.018 49.2357C114.075 49.0615 114.332 48.161 114.788 46.5343C115.302 44.8495 116.13 42.2352 117.272 38.6913C118.185 35.7284 118.929 33.8112 119.502 32.9398C120.075 32.0102 120.563 31.5164 120.965 31.4583C121.08 31.5164 121.397 31.6326 121.915 31.8069C122.433 31.9812 122.951 32.2717 123.47 32.6783C123.988 33.0269 124.248 33.4917 124.25 34.0726L124.25 34.2469C123.853 36.3965 123.484 38.8365 123.146 41.567C122.864 44.2976 122.727 46.9409 122.733 49.4972C122.737 51.1239 122.798 52.6344 122.916 54.0287C123.092 55.423 123.382 56.5559 123.787 57.4273C123.786 57.1949 123.957 56.4397 124.299 55.1615C124.699 53.8834 125.155 52.431 125.669 50.8043C126.183 49.1195 126.668 47.5219 127.125 46.0114C127.581 44.5009 127.924 43.368 128.152 42.6128C128.609 41.2185 129.01 40.2889 129.354 39.8242C129.755 39.3594 130.301 39.127 130.991 39.127C131.969 39.127 132.661 39.737 133.066 40.957C133.529 42.119 133.82 43.5714 133.939 45.3142C134.058 47.0571 134.149 48.8 134.21 50.5429C134.272 52.2858 134.39 53.7672 134.566 54.9873C134.798 56.1492 135.231 56.7301 135.864 56.7301C136.612 56.7301 137.387 56.1782 138.189 55.0744C138.992 53.9125 139.765 52.5763 140.51 51.0658C141.311 49.5553 142.027 48.2481 142.657 47.1443C143.287 45.9824 143.775 45.4014 144.12 45.4014C144.293 45.4014 144.379 45.5466 144.38 45.8371C144.38 46.0695 144.295 46.4471 144.124 46.97C143.323 48.9453 142.465 50.9205 141.549 52.8958C140.633 54.8711 139.688 56.5268 138.714 57.863C137.739 59.1992 136.705 59.8673 135.612 59.8673C134.232 59.8673 133.138 59.4607 132.331 58.6473C131.755 58.1245 131.292 57.1659 130.944 55.7716C130.595 54.3192 130.304 52.8087 130.07 51.2401C129.837 49.6715 129.603 48.3352 129.371 47.2314C129.196 46.0695 128.993 45.4885 128.763 45.4885C128.59 45.4885 128.333 46.0114 127.99 47.0571C127.705 48.0448 127.391 49.2938 127.05 50.8043C126.708 52.3148 126.367 53.8544 126.025 55.423C125.741 56.9335 125.485 58.2697 125.258 59.4316C125.088 60.5935 125.004 61.3197 125.004 61.6102C125.006 62.3074 124.691 62.714 124.058 62.8302C123.483 62.9464 122.736 63.0045 121.815 63.0045C121.413 63.0045 121.009 62.3655 120.603 61.0874C120.197 59.7511 119.819 58.0664 119.47 56.033C119.177 53.9415 118.942 51.7339 118.764 49.41C118.586 47.0862 118.495 44.9366 118.49 42.9614C118.488 42.3223 118.487 41.7413 118.486 41.2185C118.485 40.6375 118.512 40.1146 118.568 39.6499C117.654 42.3223 116.713 45.5757 115.744 49.41C114.775 53.1863 114.296 57.2821 114.306 61.6974C114.31 63.4983 114.401 65.1831 114.577 66.7517C114.753 68.3203 115.043 69.5403 115.448 70.4118C115.506 70.528 115.535 70.6732 115.535 70.8475C115.536 71.0799 115.421 71.1961 115.191 71.1961Z" fill="#728197"/>
<path d="M97.8937 63.2675C95.9381 63.2675 94.4124 62.6285 93.3166 61.3504C92.2782 60.0722 91.5555 58.4455 91.1482 56.4703C90.7984 54.4369 90.6211 52.4035 90.6163 50.3702C90.613 48.9759 90.6675 47.6687 90.7797 46.4487C90.8917 45.1706 91.0042 44.0667 91.117 43.1372C91.3991 40.7553 91.7676 38.4605 92.2226 36.2528C92.6775 34.0452 93.1045 32.157 93.5035 30.5884C93.9599 29.0198 94.2452 28.0031 94.3591 27.5384C94.5873 26.725 95.0177 26.3184 95.6504 26.3184C96.2831 26.3184 97.0031 26.7541 97.8104 27.6255C98.6175 28.4389 99.1943 29.107 99.5406 29.6298C100.864 30.0365 102.16 30.5303 103.427 31.1113C104.693 31.6342 105.73 32.2151 106.537 32.8542C107.401 33.4932 107.834 34.1904 107.836 34.9456C107.839 36.398 107.239 37.8504 106.034 39.3029C104.83 40.7553 103.308 42.0915 101.471 43.3115C99.633 44.5315 97.7661 45.5772 95.87 46.4487C95.7007 47.843 95.6177 49.2373 95.621 50.6316C95.6264 52.9555 95.9188 54.9888 96.498 56.7317C97.0773 58.4746 98.0571 59.346 99.4375 59.346C100.645 59.346 101.795 58.9103 102.886 58.0389C104.034 57.1674 105.095 56.0636 106.07 54.7274C107.045 53.3912 107.904 52.055 108.649 50.7187C109.451 49.3244 110.052 48.1625 110.453 47.233C110.567 46.8844 110.825 46.7101 111.228 46.7101C111.458 46.7101 111.574 46.9715 111.575 47.4944C111.576 47.9592 111.233 48.9468 110.547 50.4573C109.86 51.8516 109.144 53.1878 108.399 54.466C107.712 55.686 107.024 56.7608 106.336 57.6903C105.361 58.9684 104.156 60.2175 102.721 61.4375C101.343 62.6575 99.7343 63.2675 97.8937 63.2675ZM96.1232 44.0086C98.1337 42.9048 99.9137 41.5977 101.463 40.0872C103.07 38.5186 103.871 36.8338 103.867 35.0328C103.866 34.3937 103.375 33.7547 102.396 33.1156C101.474 32.4185 100.38 31.8375 99.1133 31.3727C98.4274 33.2318 97.8281 35.2071 97.3153 37.2985C96.8601 39.39 96.4627 41.6267 96.1232 44.0086Z" fill="#728197"/>
<path d="M67.0336 101C65.9983 101 65.2204 100.39 64.6999 99.1701C66.1877 95.9167 67.675 92.4309 69.1618 88.7128C70.7061 84.9946 72.1639 81.1893 73.5353 77.2969C74.9641 73.4044 76.1631 69.5991 77.1322 65.881C75.5247 67.1591 73.8887 68.5534 72.2242 70.0639C70.5597 71.5744 68.982 73.3173 67.4912 75.2925C65.5986 77.6745 64.1385 80.4921 63.1108 83.7455C62.1407 87.057 61.659 90.1071 61.6655 92.8957C61.6734 96.2653 62.3695 98.7924 63.7539 100.477C63.9268 100.652 64.0134 100.768 64.0135 100.826C64.0135 100.826 63.9847 100.826 63.9272 100.826C63.9274 100.884 63.8987 100.913 63.8412 100.913C63.6111 100.913 63.3233 100.826 62.9778 100.652C62.6898 100.477 62.4016 100.216 62.1132 99.8672C60.96 98.6472 60.0937 97.1657 59.5145 95.4229C58.9929 93.7381 58.7298 91.908 58.7251 89.9328C58.7198 87.667 59.1459 85.3722 60.0032 83.0484C60.8605 80.7245 62.1208 78.5459 63.7841 76.5126C66.1929 73.5497 68.5742 71.0806 70.9278 69.1053C73.2815 67.1881 75.5491 65.3 77.7304 63.4409C78.5852 60.0132 79.1813 56.6727 79.5188 53.4193C79.8004 50.8631 79.9678 48.6264 80.0208 46.7092C80.1313 44.7921 80.1849 43.1073 80.1815 41.6549C80.1794 40.7253 80.1486 39.8829 80.0893 39.1277C80.0301 38.3724 79.9709 37.6753 79.9119 37.0362L79.2221 37.2105C78.2479 38.7791 77.0732 40.6382 75.6978 42.7877C74.3224 44.9373 72.8318 47.0578 71.2262 49.1493C69.6205 51.1826 68.014 52.8965 66.4067 54.2908C64.7995 55.6851 63.2769 56.3822 61.8389 56.3822C60.6311 56.3822 59.6811 55.9756 58.9889 55.1622C58.2967 54.2908 57.9493 53.3031 57.9467 52.1993C57.946 51.9088 58.0026 51.5312 58.1166 51.0664C58.628 48.394 59.6287 45.8959 61.1188 43.572C62.6662 41.1901 64.4156 39.0986 66.367 37.2976C68.3759 35.4967 70.357 34.0733 72.3101 33.0276C74.2633 31.9818 75.9301 31.459 77.3105 31.459C78.3459 31.459 79.3242 31.6914 80.2456 32.1561C81.2244 32.5628 82.1463 33.26 83.0114 34.2476C83.1843 34.4219 83.2711 34.6252 83.2716 34.8576C83.2728 35.3805 82.7276 35.8743 81.6358 36.3391C82.098 37.2105 82.3882 38.3434 82.5065 39.7377C82.6822 41.0739 82.7718 42.4973 82.7753 44.0078C82.7812 46.5059 82.6435 49.1202 82.3623 51.8507C82.0811 54.5813 81.7137 57.3408 81.26 60.1294C82.752 58.6189 84.1859 56.9051 85.5619 54.9879C86.9378 53.0708 88.2554 50.776 89.5145 48.1035C89.858 47.4064 90.1735 47.0578 90.4611 47.0578C90.6912 47.0578 90.8067 47.2611 90.8077 47.6678C90.8092 48.3069 90.5237 49.2364 89.9514 50.4564C89.4366 51.6764 88.8068 52.9255 88.0621 54.2036C87.3173 55.4817 86.5722 56.5856 85.8266 57.5151C85.0811 58.4447 84.278 59.3742 83.4174 60.3037C82.6142 61.1752 81.7534 62.0176 80.835 62.8309C80.0966 66.8395 79.243 70.761 78.2742 74.5954C77.3053 78.4297 76.3357 81.9445 75.3654 85.1398C74.3951 88.3351 73.5098 91.0076 72.7096 93.1571C71.967 95.3648 71.424 96.8172 71.0805 97.5143C70.3933 98.7924 69.7052 99.6929 69.0162 100.216C68.3272 100.739 67.6663 101 67.0336 101ZM62.9522 52.8093C63.7574 52.8093 64.7629 52.3446 65.9686 51.415C67.1743 50.4855 68.437 49.3236 69.7567 47.9292C71.0762 46.4768 72.338 44.9373 73.5421 43.3106C74.8037 41.6839 75.893 40.1734 76.81 38.7791C77.7844 37.3267 78.4431 36.1648 78.7862 35.2933C77.5783 35.2933 76.2564 35.729 74.8205 36.6005C73.442 37.4138 72.0641 38.4886 70.6868 39.8248C69.3095 41.161 68.0186 42.5553 66.8141 44.0078C65.6096 45.4602 64.6062 46.8254 63.804 48.1035C63.0592 49.3816 62.5726 50.3693 62.3442 51.0664C62.1726 51.4731 62.087 51.7926 62.0876 52.025C62.0888 52.5479 62.377 52.8093 62.9522 52.8093Z" fill="#728197"/>
<path d="M10.7029 66.4039C7.36683 66.4039 4.74765 65.5034 2.84535 63.7024C1.00056 61.9014 0.0751074 59.6938 0.0689945 57.0795C0.0624741 54.2909 0.631134 51.5022 1.77498 48.7136C2.91868 45.8669 4.46535 43.1654 6.41499 40.6092C8.36463 38.053 10.5738 35.7872 13.0424 33.812C15.5111 31.8367 18.1245 30.2681 20.8826 29.1062C23.6408 27.9442 26.3428 27.3633 28.9886 27.3633C30.5991 27.3633 31.9227 27.6538 32.9594 28.2347C33.9961 28.8157 34.5151 29.3966 34.5165 29.9776C34.5169 30.1519 34.4597 30.2971 34.3449 30.4133C34.1154 30.6457 33.7717 31.2557 33.3139 32.2434C32.9134 33.1729 32.4846 34.2477 32.0273 35.4677C31.6275 36.6877 31.2565 37.9368 30.9144 39.2149C30.6297 40.4349 30.4883 41.4807 30.4904 42.3521C30.3768 42.9912 30.09 43.3107 29.6298 43.3107C29.2272 43.3107 28.7372 42.8459 28.1599 41.9164C27.6399 40.9287 27.378 39.6216 27.3742 37.9949C27.3718 36.9491 27.5705 35.8453 27.9704 34.6834C28.4278 33.5215 28.8568 32.4757 29.2572 31.5462C29.7151 30.5586 29.9435 29.8614 29.9426 29.4547C29.942 29.2224 29.8267 29.1062 29.5966 29.1062C29.4241 29.1062 29.2515 29.1062 29.079 29.1062C27.8711 29.1062 26.1756 29.6581 23.9925 30.7619C21.8093 31.8076 19.2542 33.7539 16.3275 36.6006C14.3764 38.5177 12.5698 40.7545 10.9077 43.3107C9.24567 45.8669 7.90004 48.4522 6.87083 51.0665C5.89913 53.6808 5.41587 56.0918 5.42103 58.2995C5.427 60.8557 6.06357 62.5115 7.33074 63.2667C8.65542 64.022 10.1518 64.3996 11.8198 64.3996C14.6957 64.3996 17.5703 63.8477 20.4436 62.7438C23.3745 61.64 26.1031 60.1295 28.6294 58.2123C31.2132 56.2952 33.365 54.1166 35.0849 51.6765C35.1421 51.5603 35.1995 51.5022 35.257 51.5022C35.3144 51.4441 35.3431 51.4151 35.3431 51.4151C35.4581 51.4151 35.5159 51.5313 35.5165 51.7637C35.5171 52.0542 35.4318 52.4608 35.2605 52.9837C35.1467 53.5066 34.9751 53.9132 34.7457 54.2037C33.5995 56.0047 31.9646 57.8638 29.8409 59.7809C27.7171 61.64 25.0749 63.2086 21.9144 64.4867C18.7539 65.7648 15.0167 66.4039 10.7029 66.4039Z" fill="#728197"/>
</svg>
