<svg width="40" height="40" viewBox="0 0 40 40" fill="none" xmlns="http://www.w3.org/2000/svg">
<circle cx="20" cy="20" r="19.5455" fill="#864349" fill-opacity="0.2" stroke="#864349" stroke-width="0.909091"/>
<path d="M28.4151 20.2824C29.2683 18.3642 29.8498 15.7641 32.7196 15.342C34.3877 15.0697 34.253 12.4356 33.0163 11.8432C32.0308 11.3711 30.6695 11.5683 30.4326 12.9175C30.0322 15.2213 28.3919 16.8198 27.4473 18.7942C26.2862 21.2123 24.8403 23.4824 23.4722 25.7995C22.9763 26.6021 22.2709 26.3983 22.0456 25.5523C21.1955 22.1899 20.6762 18.7874 20.5719 15.3036C20.53 14.0381 20.2904 12.8776 21.3139 11.8114C21.9405 11.1649 21.6515 10.2184 21.0543 9.73483C20.5981 9.37502 19.6874 9.19633 19.1854 9.41839C18.3758 9.78333 17.7566 10.8088 18.2574 11.584C19.6323 13.6827 18.8741 15.9128 18.7366 18.0154C18.5568 20.674 17.7473 23.2911 17.1881 25.9204C17.0299 26.5808 16.4712 26.09 16.3396 25.7079C15.2125 21.8625 13.0859 18.5458 10.9373 15.2367C10.5226 14.6042 10.3712 13.8071 10.015 13.1299C9.52807 12.2066 8.85093 10.3197 7.43444 10.7817C5.54134 11.3992 6.85425 14.4837 8.0393 15.0408C8.83042 15.4084 9.47567 16.2815 9.98743 17.0529C10.6747 18.0838 11.2709 19.2077 11.7422 20.3622C13.1412 23.7817 13.9196 27.3288 13.982 31.0486L14.0058 32.8185C17.0165 32.3792 21.7663 32.0628 25.3322 33.0005L25.5355 30.5409C25.9638 26.9598 26.9786 23.5091 28.4151 20.2824Z" fill="#864349"/>
</svg>
