<svg width="40" height="40" viewBox="0 0 40 40" fill="none" xmlns="http://www.w3.org/2000/svg">
<circle cx="20" cy="20" r="19.5455" fill="#CDAE64" fill-opacity="0.2" stroke="#DCB556" stroke-width="0.909091"/>
<path d="M28.4151 20.4055C29.2683 18.4872 29.8498 15.8871 32.7196 15.4651C34.3877 15.1927 34.253 12.5587 33.0163 11.9662C32.0308 11.4941 30.6695 11.6913 30.4326 13.0405C30.0322 15.3444 28.3919 16.9429 27.4473 18.9173C26.2862 21.3354 24.8403 23.6054 23.4722 25.9225C22.9763 26.7251 22.2709 26.5214 22.0456 25.6753C21.1955 22.313 20.6762 18.9105 20.5719 15.4267C20.53 14.1612 20.2904 13.0007 21.3139 11.9345C21.9405 11.288 21.6515 10.3414 21.0543 9.85788C20.5981 9.49807 19.6874 9.31938 19.1854 9.54144C18.3758 9.90638 17.7566 10.9318 18.2574 11.707C19.6323 13.8057 18.8741 16.0359 18.7366 18.1384C18.5568 20.7971 17.7473 23.4141 17.1881 26.0434C17.0299 26.7038 16.4712 26.2131 16.3396 25.8309C15.2125 21.9855 13.0859 18.6689 10.9373 15.3598C10.5226 14.7272 10.3712 13.9302 10.015 13.2529C9.52807 12.3297 8.85093 10.4428 7.43444 10.9048C5.54134 11.5222 6.85425 14.6068 8.0393 15.1639C8.83042 15.5314 9.47567 16.4045 9.98743 17.1759C10.6747 18.2069 11.2709 19.3307 11.7422 20.4852C13.1412 23.9048 13.9196 27.4519 13.982 31.1716L14.0058 32.9416C17.0165 32.5023 21.7663 32.1859 25.3322 33.1235L25.5355 30.6639C25.9638 27.0829 26.9786 23.6322 28.4151 20.4055Z" fill="#DCB556"/>
</svg>
