<svg width="300" height="43" viewBox="0 0 300 43" fill="none" xmlns="http://www.w3.org/2000/svg">
<g clip-path="url(#clip0_587_10750)">
<path d="M215.662 24.5224V33.829H210.139V11.937H215.834C218.25 16.4768 220.711 21.0973 223.329 26.0155C225.917 21.1427 228.333 16.5827 230.805 11.9219H236.459V33.7785H230.86V24.825C230.669 24.7595 230.482 24.6939 230.29 24.6283C228.57 27.7809 226.85 30.9386 225.125 34.1014H221.503C219.788 30.9336 218.018 27.6548 216.247 24.3811C216.051 24.4316 215.854 24.477 215.662 24.5274V24.5224Z" fill="black"/>
<path d="M76.0527 11.8828H82.131C84.7137 15.5903 87.3316 19.3483 89.9496 23.1062C90.106 23.0861 90.2674 23.0659 90.4237 23.0407V11.9282H96.5626V33.9261H90.4036C87.8865 30.2489 85.2585 26.4001 82.6304 22.5564L82.1916 22.6069V33.9816H76.0527V11.8828Z" fill="black"/>
<path d="M277.387 29.3656H274.492C274.416 30.8436 274.341 32.2307 274.26 33.8297H268.343V11.8318C271.879 11.8318 275.339 11.5292 278.724 11.8974C285.261 12.6036 288.439 20.407 284.51 25.6984C284.02 26.3592 283.45 26.9595 282.84 27.6758C284.247 29.6783 285.63 31.6405 287.203 33.8802H280.752C279.687 32.4476 278.542 30.9192 277.387 29.3656ZM274.547 16.9417V24.0641C276.58 24.3062 278.623 24.5433 279.511 22.5206C280.015 21.3755 280.02 19.6706 279.536 18.5155C278.674 16.4625 276.621 16.6995 274.547 16.9417Z" fill="black"/>
<path d="M169.33 11.7815C172.776 11.7815 175.964 11.6504 179.131 11.8168C182.501 11.9934 184.963 13.779 186.42 16.8056C187.893 19.8624 187.52 22.8133 185.603 25.5724C185.129 26.2534 184.534 26.8486 183.848 27.6456C185.185 29.5523 186.557 31.5045 188.161 33.7895H181.669C180.725 32.4982 179.601 30.9597 178.435 29.3657H175.389V33.8904H169.325V11.7765L169.33 11.7815ZM175.439 24.0491C177.537 24.3114 179.439 24.5182 180.564 22.6266C181.416 21.194 181.432 19.5547 180.423 18.1675C179.147 16.4121 177.326 16.7097 175.444 17.0225V24.0491H175.439Z" fill="black"/>
<path d="M53.4849 11.8828H59.4219C59.4219 15.7467 59.4219 19.4845 59.4219 23.2172C59.4219 24.0546 59.3816 24.8919 59.4421 25.7242C59.6086 28.0647 61.1168 29.4872 63.3211 29.4418C65.3792 29.3964 66.9126 27.979 66.9681 25.7595C67.0639 22.0873 66.9984 18.4101 66.9984 14.7328C66.9984 13.8349 66.9984 12.9371 66.9984 11.8929H72.9758C72.9758 14.7631 72.9758 17.5727 72.9758 20.3874C72.9758 22.3092 73.0313 24.2311 72.9556 26.1529C72.769 30.9399 69.3742 34.2742 64.6074 34.4053C63.6036 34.4305 62.5947 34.4356 61.5909 34.4053C57.1974 34.249 53.6816 31.0559 53.5202 26.6977C53.3386 21.8653 53.4798 17.0229 53.4798 11.8929L53.4849 11.8828Z" fill="black"/>
<path d="M47.2651 25.3351H40.869V29.0124H50.8919V33.8851H34.594V11.9629H50.3017V16.6944H40.869V20.2959H47.2651V25.3402V25.3351Z" fill="black"/>
<path d="M261.423 20.3405V25.294H254.961V29.062H264.949V33.8389H248.621V11.8965H264.338V16.6582H254.946V20.3355H261.423V20.3405Z" fill="black"/>
<path d="M154.672 29.2388V33.8492H148.725V11.9976C152.447 11.9976 156.236 11.589 159.893 12.1035C164.16 12.7038 166.965 16.9157 166.642 21.1025C166.309 25.4203 162.854 28.8706 158.45 29.2186C157.3 29.3094 156.14 29.2338 154.667 29.2338L154.672 29.2388ZM154.844 24.0785C156.952 24.3005 159.04 24.5527 159.893 22.5401C160.402 21.3345 160.372 19.5085 159.807 18.3331C158.874 16.3962 156.826 16.6686 154.844 16.9863V24.0735V24.0785Z" fill="black"/>
<path d="M106.01 16.7298V20.3365H112.653V25.295H106.06V28.9873H116.174V33.8399H99.876V11.9277H115.553V16.7298H106.005H106.01Z" fill="black"/>
<path d="M196.594 16.7404V20.3521H203.242V25.3005H196.644V28.9626H206.758V33.8101H190.48V11.9434H206.097V16.7404H196.594Z" fill="black"/>
<path d="M25.3779 11.832H31.3654C31.3654 13.5269 31.3654 15.1612 31.3654 16.7905C31.3604 20.3769 31.4663 23.9684 31.32 27.5498C31.1233 32.3267 26.9567 35.091 21.3274 34.3495C17.1558 33.7946 14.4823 29.9559 15.2793 25.5019H20.7473C20.8431 26.2535 20.8885 26.9092 21.0146 27.5549C21.2567 28.7958 22.0386 29.4566 23.3047 29.4011C24.6112 29.3456 25.2871 28.5335 25.3375 27.2976C25.4082 25.4666 25.3829 23.6305 25.3829 21.7944C25.3829 18.556 25.3829 15.3176 25.3829 11.832H25.3779Z" fill="black"/>
<path d="M245.231 33.799H239.803V11.9121H245.231V33.799Z" fill="black"/>
<path d="M274.547 16.9406C276.62 16.6934 278.673 16.4564 279.536 18.5144C280.02 19.6695 280.01 21.3745 279.511 22.5195C278.623 24.5423 276.58 24.3052 274.547 24.0631V16.9406Z" fill="white"/>
<path d="M175.439 24.0477V17.0211C177.32 16.7033 179.141 16.4057 180.417 18.1661C181.426 19.5533 181.411 21.1926 180.559 22.6252C179.434 24.5218 177.537 24.31 175.434 24.0477H175.439Z" fill="white"/>
<path d="M154.843 24.0793V16.9922C156.825 16.6744 158.873 16.402 159.806 18.339C160.371 19.5143 160.407 21.3403 159.892 22.5459C159.04 24.5586 156.946 24.3063 154.843 24.0844V24.0793Z" fill="white"/>
<path d="M132.632 15.5703C128.496 15.5703 125.575 18.5263 125.575 22.5566C125.575 26.5869 128.496 29.5428 132.632 29.5428C136.768 29.5428 139.689 26.5869 139.689 22.5566C139.689 18.5263 136.768 15.5703 132.632 15.5703ZM132.632 28.3272C129.187 28.3272 126.836 25.8858 126.836 22.5566C126.836 19.2274 129.212 16.786 132.632 16.786C136.052 16.786 138.428 19.2274 138.428 22.5566C137.777 26.0976 136.077 28.3272 132.632 28.3272ZM135.714 21.3813C135.714 20.09 134.821 19.182 133.363 19.182H129.953V25.916H131.209V23.6159H132.748L134.412 25.916H135.936L134.069 23.5351C135.144 23.2678 135.714 22.4658 135.714 21.3813ZM131.214 22.5061V20.2867H133.242C134.049 20.2867 134.417 20.7406 134.417 21.3964C134.417 22.0521 134.054 22.5011 133.242 22.5011H131.214V22.5061Z" fill="black"/>
</g>
<defs>
<clipPath id="clip0_587_10750">
<rect width="274.406" height="30.2654" fill="white" transform="translate(12.8049 6.52539)"/>
</clipPath>
</defs>
</svg>
