<svg width="405" height="43" viewBox="0 0 405 43" fill="none" xmlns="http://www.w3.org/2000/svg">
<g clip-path="url(#clip0_587_10772)">
<path d="M380.235 18.9275C379.655 18.9275 379.157 19.3834 379.157 20.0051C379.157 20.5854 379.655 21.0827 380.235 21.0827C380.815 21.0827 381.313 20.6268 381.313 20.0051C381.313 19.4249 380.815 18.9275 380.235 18.9275ZM377.5 15.8191C376.919 15.8191 376.422 16.275 376.422 16.8967C376.422 17.4769 376.878 17.9743 377.5 17.9743C378.08 17.9743 378.577 17.4769 378.577 16.8967C378.577 16.275 378.08 15.8191 377.5 15.8191ZM374.764 12.6692C374.184 12.6692 373.686 13.1251 373.686 13.7468C373.686 14.3271 374.184 14.8244 374.764 14.8244C375.344 14.8244 375.842 14.3685 375.842 13.7468C375.842 13.1666 375.386 12.6692 374.764 12.6692ZM281.925 27.4239C281.345 27.4654 280.889 28.0042 280.931 28.5844C280.972 29.1647 281.511 29.6206 282.091 29.5791C282.671 29.5377 283.127 28.9989 283.086 28.4186C283.044 27.7969 282.547 27.341 281.925 27.4239ZM279.48 24.4813C278.9 24.5227 278.444 25.0615 278.485 25.6418C278.527 26.222 279.066 26.6779 279.646 26.6365C280.226 26.595 280.682 26.0562 280.641 25.476C280.599 24.8543 280.06 24.4398 279.48 24.4813ZM284.412 30.3251C283.832 30.3666 283.376 30.9054 283.418 31.4856C283.459 32.0659 283.998 32.5218 284.578 32.4803C285.158 32.4389 285.614 31.9001 285.573 31.3198C285.49 30.7396 284.992 30.2837 284.412 30.3251ZM148.014 16.7309C148.014 16.1507 147.517 15.6533 146.936 15.6533C146.356 15.6533 145.859 16.1507 145.859 16.7309C145.859 17.3112 146.356 17.8085 146.936 17.8085C147.517 17.8085 148.014 17.3112 148.014 16.7309ZM140.429 27.4239C139.849 27.4239 139.352 27.9213 139.352 28.5015C139.352 29.0818 139.849 29.5791 140.429 29.5791C141.01 29.5791 141.507 29.0818 141.507 28.5015C141.507 27.9213 141.01 27.4239 140.429 27.4239ZM142.046 24.4813C141.466 24.4813 140.968 24.9786 140.968 25.5589C140.968 26.1391 141.466 26.6365 142.046 26.6365C142.626 26.6365 143.123 26.1391 143.123 25.5589C143.123 24.9786 142.626 24.4813 142.046 24.4813ZM143.662 21.5386C143.082 21.5386 142.585 22.036 142.585 22.6162C142.585 23.1965 143.082 23.6938 143.662 23.6938C144.242 23.6938 144.74 23.1965 144.74 22.6162C144.74 22.036 144.284 21.5386 143.662 21.5386ZM145.32 24.4813C144.74 24.4813 144.242 24.9786 144.242 25.5589C144.242 26.1391 144.74 26.6365 145.32 26.6365C145.9 26.6365 146.398 26.1391 146.398 25.5589C146.398 24.9786 145.9 24.4813 145.32 24.4813ZM138.772 30.3666C138.191 30.3666 137.694 30.8639 137.694 31.4442C137.694 32.0244 138.191 32.5218 138.772 32.5218C139.352 32.5218 139.849 32.0244 139.849 31.4442C139.849 30.8639 139.352 30.3666 138.772 30.3666ZM145.32 18.596C144.74 18.596 144.242 19.0933 144.242 19.6736C144.242 20.2538 144.74 20.7512 145.32 20.7512C145.9 20.7512 146.398 20.2538 146.398 19.6736C146.398 19.0933 145.9 18.596 145.32 18.596ZM148.594 24.4813C148.014 24.4813 147.517 24.9786 147.517 25.5589C147.517 26.1391 148.014 26.6365 148.594 26.6365C149.174 26.6365 149.672 26.1391 149.672 25.5589C149.672 24.9786 149.174 24.4813 148.594 24.4813ZM148.594 12.7107C148.014 12.7107 147.517 13.208 147.517 13.7883C147.517 14.3685 148.014 14.8659 148.594 14.8659C149.174 14.8659 149.672 14.3685 149.672 13.7883C149.672 13.1666 149.174 12.7107 148.594 12.7107ZM167.867 20.5025C167.286 20.5025 166.789 20.9584 166.789 21.5801C166.789 22.1603 167.245 22.6577 167.867 22.6577C168.447 22.6577 168.944 22.2018 168.944 21.5801C168.944 20.9998 168.447 20.5025 167.867 20.5025ZM170.27 23.1136C169.69 23.1136 169.193 23.5695 169.193 24.1912C169.193 24.7714 169.649 25.2688 170.27 25.2688C170.851 25.2688 171.348 24.8128 171.348 24.1912C171.307 23.5695 170.851 23.1136 170.27 23.1136ZM165.463 17.8914C164.882 17.8914 164.385 18.3473 164.385 18.969C164.385 19.5492 164.841 20.0466 165.463 20.0466C166.043 20.0466 166.54 19.5907 166.54 18.969C166.54 18.3887 166.084 17.8914 165.463 17.8914ZM160.696 12.6692C160.116 12.6692 159.619 13.1251 159.619 13.7468C159.619 14.3271 160.075 14.8244 160.696 14.8244C161.277 14.8244 161.774 14.3685 161.774 13.7468C161.774 13.1666 161.318 12.6692 160.696 12.6692ZM163.1 15.2803C162.52 15.2803 162.023 15.7362 162.023 16.3579C162.023 16.9381 162.479 17.4355 163.1 17.4355C163.681 17.4355 164.178 16.9796 164.178 16.3579C164.178 15.7777 163.681 15.2803 163.1 15.2803ZM117.303 12.7107C116.722 12.7107 116.225 13.208 116.225 13.7883C116.225 14.3685 116.722 14.8659 117.303 14.8659C117.883 14.8659 118.38 14.3685 118.38 13.7883C118.38 13.1666 117.883 12.7107 117.303 12.7107ZM121.737 30.3666C121.157 30.3666 120.66 30.8639 120.66 31.4442C120.66 32.0244 121.157 32.5218 121.737 32.5218C122.318 32.5218 122.815 32.0244 122.815 31.4442C122.815 30.8639 122.318 30.3666 121.737 30.3666ZM117.303 16.2336C116.722 16.2336 116.225 16.7309 116.225 17.3112C116.225 17.8914 116.722 18.3887 117.303 18.3887C117.883 18.3887 118.38 17.8914 118.38 17.3112C118.38 16.7309 117.883 16.2336 117.303 16.2336ZM117.303 19.7565C116.722 19.7565 116.225 20.2538 116.225 20.8341C116.225 21.4143 116.722 21.9116 117.303 21.9116C117.883 21.9116 118.38 21.4143 118.38 20.8341C118.38 20.2538 117.883 19.7565 117.303 19.7565ZM126.131 30.3666C125.55 30.3666 125.053 30.8639 125.053 31.4442C125.053 32.0244 125.55 32.5218 126.131 32.5218C126.711 32.5218 127.208 32.0244 127.208 31.4442C127.208 30.8639 126.711 30.3666 126.131 30.3666ZM94.1344 23.2794C93.5542 23.2794 93.0568 23.7767 93.0568 24.3569C93.0568 24.9372 93.5542 25.4345 94.1344 25.4345C94.7147 25.4345 95.212 24.9372 95.212 24.3569C95.212 23.7767 94.7147 23.2794 94.1344 23.2794ZM94.1344 19.7565C93.5542 19.7565 93.0568 20.2538 93.0568 20.8341C93.0568 21.4143 93.5542 21.9116 94.1344 21.9116C94.7147 21.9116 95.212 21.4143 95.212 20.8341C95.212 20.2538 94.7147 19.7565 94.1344 19.7565ZM94.1344 30.3666C93.5542 30.3666 93.0568 30.8639 93.0568 31.4442C93.0568 32.0244 93.5542 32.5218 94.1344 32.5218C94.7147 32.5218 95.212 32.0244 95.212 31.4442C95.212 30.8639 94.7147 30.3666 94.1344 30.3666ZM94.1344 26.8437C93.5542 26.8437 93.0568 27.341 93.0568 27.9213C93.0568 28.5015 93.5542 28.9989 94.1344 28.9989C94.7147 28.9989 95.212 28.5015 95.212 27.9213C95.212 27.2996 94.7147 26.8437 94.1344 26.8437ZM79.6698 12.7107C79.0896 12.7107 78.5922 13.208 78.5922 13.7883C78.5922 14.3685 79.0896 14.8659 79.6698 14.8659C80.2501 14.8659 80.7474 14.3685 80.7474 13.7883C80.7474 13.1666 80.2501 12.7107 79.6698 12.7107ZM94.1344 16.2336C93.5542 16.2336 93.0568 16.7309 93.0568 17.3112C93.0568 17.8914 93.5542 18.3887 94.1344 18.3887C94.7147 18.3887 95.212 17.8914 95.212 17.3112C95.212 16.7309 94.7147 16.2336 94.1344 16.2336ZM117.303 23.2794C116.722 23.2794 116.225 23.7767 116.225 24.3569C116.225 24.9372 116.722 25.4345 117.303 25.4345C117.883 25.4345 118.38 24.9372 118.38 24.3569C118.38 23.7767 117.883 23.2794 117.303 23.2794ZM117.303 30.3666C116.722 30.3666 116.225 30.8639 116.225 31.4442C116.225 32.0244 116.722 32.5218 117.303 32.5218C117.883 32.5218 118.38 32.0244 118.38 31.4442C118.38 30.8639 117.883 30.3666 117.303 30.3666ZM117.303 26.8437C116.722 26.8437 116.225 27.341 116.225 27.9213C116.225 28.5015 116.722 28.9989 117.303 28.9989C117.883 28.9989 118.38 28.5015 118.38 27.9213C118.38 27.2996 117.883 26.8437 117.303 26.8437ZM102.962 30.3666C102.382 30.3666 101.885 30.8639 101.885 31.4442C101.885 32.0244 102.382 32.5218 102.962 32.5218C103.543 32.5218 104.04 32.0244 104.04 31.4442C104.04 30.8639 103.584 30.3666 102.962 30.3666ZM94.1344 12.7107C93.5542 12.7107 93.0568 13.208 93.0568 13.7883C93.0568 14.3685 93.5542 14.8659 94.1344 14.8659C94.7147 14.8659 95.212 14.3685 95.212 13.7883C95.212 13.1666 94.7147 12.7107 94.1344 12.7107ZM98.5691 30.3666C97.9889 30.3666 97.4915 30.8639 97.4915 31.4442C97.4915 32.0244 97.9889 32.5218 98.5691 32.5218C99.1494 32.5218 99.6467 32.0244 99.6467 31.4442C99.6053 30.8639 99.1494 30.3666 98.5691 30.3666ZM179.886 23.2794C179.306 23.2794 178.808 23.7767 178.808 24.3569C178.808 24.9372 179.306 25.4345 179.886 25.4345C180.466 25.4345 180.963 24.9372 180.963 24.3569C180.963 23.7767 180.466 23.2794 179.886 23.2794ZM79.6698 30.3666C79.0896 30.3666 78.5922 30.8639 78.5922 31.4442C78.5922 32.0244 79.0896 32.5218 79.6698 32.5218C80.2501 32.5218 80.7474 32.0244 80.7474 31.4442C80.7474 30.8639 80.2501 30.3666 79.6698 30.3666ZM179.886 30.3666C179.306 30.3666 178.808 30.8639 178.808 31.4442C178.808 32.0244 179.306 32.5218 179.886 32.5218C180.466 32.5218 180.963 32.0244 180.963 31.4442C180.963 30.8639 180.466 30.3666 179.886 30.3666ZM179.886 19.7565C179.306 19.7565 178.808 20.2538 178.808 20.8341C178.808 21.4143 179.306 21.9116 179.886 21.9116C180.466 21.9116 180.963 21.4143 180.963 20.8341C180.963 20.2538 180.466 19.7565 179.886 19.7565ZM179.886 16.2336C179.306 16.2336 178.808 16.7309 178.808 17.3112C178.808 17.8914 179.306 18.3887 179.886 18.3887C180.466 18.3887 180.963 17.8914 180.963 17.3112C180.963 16.7309 180.466 16.2336 179.886 16.2336ZM160.655 23.2794C160.075 23.2794 159.577 23.7767 159.577 24.3569C159.577 24.9372 160.075 25.4345 160.655 25.4345C161.235 25.4345 161.733 24.9372 161.733 24.3569C161.733 23.7767 161.277 23.2794 160.655 23.2794ZM160.655 26.8437C160.075 26.8437 159.577 27.341 159.577 27.9213C159.577 28.5015 160.075 28.9989 160.655 28.9989C161.235 28.9989 161.733 28.5015 161.733 27.9213C161.733 27.2996 161.277 26.8437 160.655 26.8437ZM160.655 19.7565C160.075 19.7565 159.577 20.2538 159.577 20.8341C159.577 21.4143 160.075 21.9116 160.655 21.9116C161.235 21.9116 161.733 21.4143 161.733 20.8341C161.733 20.2538 161.277 19.7565 160.655 19.7565ZM160.655 30.3666C160.075 30.3666 159.577 30.8639 159.577 31.4442C159.577 32.0244 160.075 32.5218 160.655 32.5218C161.235 32.5218 161.733 32.0244 161.733 31.4442C161.733 30.8639 161.277 30.3666 160.655 30.3666ZM160.655 16.2336C160.075 16.2336 159.577 16.7309 159.577 17.3112C159.577 17.8914 160.075 18.3887 160.655 18.3887C161.235 18.3887 161.733 17.8914 161.733 17.3112C161.733 16.7309 161.277 16.2336 160.655 16.2336ZM179.886 26.8437C179.306 26.8437 178.808 27.341 178.808 27.9213C178.808 28.5015 179.306 28.9989 179.886 28.9989C180.466 28.9989 180.963 28.5015 180.963 27.9213C180.963 27.2996 180.466 26.8437 179.886 26.8437ZM277.159 14.8659C277.739 14.8659 278.237 14.3685 278.237 13.7883C278.237 13.208 277.739 12.7107 277.159 12.7107C276.579 12.7107 276.082 13.208 276.082 13.7883C276.082 14.3685 276.537 14.8659 277.159 14.8659ZM280.516 14.8659C281.097 14.8659 281.594 14.3685 281.594 13.7883C281.594 13.208 281.097 12.7107 280.516 12.7107C279.936 12.7107 279.439 13.208 279.439 13.7883C279.439 14.3685 279.936 14.8659 280.516 14.8659ZM283.459 16.0678C284.039 16.0678 284.537 15.5704 284.537 14.9902C284.537 14.4099 284.039 13.9126 283.459 13.9126C282.879 13.9126 282.381 14.4099 282.381 14.9902C282.381 15.6119 282.837 16.0678 283.459 16.0678ZM75.7325 12.7107C75.1522 12.7107 74.6549 13.208 74.6549 13.7883C74.6549 14.3685 75.1522 14.8659 75.7325 14.8659C76.3127 14.8659 76.8101 14.3685 76.8101 13.7883C76.8101 13.1666 76.3127 12.7107 75.7325 12.7107ZM67.8578 16.2336C67.2775 16.2336 66.7802 16.7309 66.7802 17.3112C66.7802 17.8914 67.2775 18.3887 67.8578 18.3887C68.438 18.3887 68.9354 17.8914 68.9354 17.3112C68.9354 16.7309 68.4795 16.2336 67.8578 16.2336ZM67.8578 12.7107C67.2775 12.7107 66.7802 13.208 66.7802 13.7883C66.7802 14.3685 67.2775 14.8659 67.8578 14.8659C68.438 14.8659 68.9354 14.3685 68.9354 13.7883C68.9354 13.1666 68.4795 12.7107 67.8578 12.7107ZM71.7951 30.3666C71.2149 30.3666 70.7175 30.8639 70.7175 31.4442C70.7175 32.0244 71.2149 32.5218 71.7951 32.5218C72.3754 32.5218 72.8727 32.0244 72.8727 31.4442C72.8727 30.8639 72.3754 30.3666 71.7951 30.3666ZM67.8578 23.2794C67.2775 23.2794 66.7802 23.7767 66.7802 24.3569C66.7802 24.9372 67.2775 25.4345 67.8578 25.4345C68.438 25.4345 68.9354 24.9372 68.9354 24.3569C68.9354 23.7767 68.4795 23.2794 67.8578 23.2794ZM71.7951 21.5386C71.2149 21.5386 70.7175 22.036 70.7175 22.6162C70.7175 23.1965 71.2149 23.6938 71.7951 23.6938C72.3754 23.6938 72.8727 23.1965 72.8727 22.6162C72.8727 21.9945 72.3754 21.5386 71.7951 21.5386ZM67.8578 26.8437C67.2775 26.8437 66.7802 27.341 66.7802 27.9213C66.7802 28.5015 67.2775 28.9989 67.8578 28.9989C68.438 28.9989 68.9354 28.5015 68.9354 27.9213C68.9354 27.2996 68.4795 26.8437 67.8578 26.8437ZM67.8578 19.7565C67.2775 19.7565 66.7802 20.2538 66.7802 20.8341C66.7802 21.4143 67.2775 21.9116 67.8578 21.9116C68.438 21.9116 68.9354 21.4143 68.9354 20.8341C68.9354 20.2538 68.4795 19.7565 67.8578 19.7565ZM71.7951 12.7107C71.2149 12.7107 70.7175 13.208 70.7175 13.7883C70.7175 14.3685 71.2149 14.8659 71.7951 14.8659C72.3754 14.8659 72.8727 14.3685 72.8727 13.7883C72.8727 13.1666 72.3754 12.7107 71.7951 12.7107ZM75.7325 21.5386C75.1522 21.5386 74.6549 22.036 74.6549 22.6162C74.6549 23.1965 75.1522 23.6938 75.7325 23.6938C76.3127 23.6938 76.8101 23.1965 76.8101 22.6162C76.8101 21.9945 76.3127 21.5386 75.7325 21.5386ZM75.7325 30.3666C75.1522 30.3666 74.6549 30.8639 74.6549 31.4442C74.6549 32.0244 75.1522 32.5218 75.7325 32.5218C76.3127 32.5218 76.8101 32.0244 76.8101 31.4442C76.8101 30.8639 76.3127 30.3666 75.7325 30.3666ZM42.6587 12.7107C42.0785 12.7107 41.5811 13.208 41.5811 13.7883C41.5811 14.3685 42.0785 14.8659 42.6587 14.8659C43.239 14.8659 43.7363 14.3685 43.7363 13.7883C43.7363 13.1666 43.239 12.7107 42.6587 12.7107ZM47.9638 30.3666C47.3835 30.3666 46.8862 30.8639 46.8862 31.4442C46.8862 32.0244 47.3835 32.5218 47.9638 32.5218C48.544 32.5218 49.0414 32.0244 49.0414 31.4442C49.0414 30.8639 48.544 30.3666 47.9638 30.3666ZM67.8578 30.3666C67.2775 30.3666 66.7802 30.8639 66.7802 31.4442C66.7802 32.0244 67.2775 32.5218 67.8578 32.5218C68.438 32.5218 68.9354 32.0244 68.9354 31.4442C68.9354 30.8639 68.4795 30.3666 67.8578 30.3666ZM47.9638 22.9892C47.3835 22.9892 46.8862 23.4866 46.8862 24.0668C46.8862 24.6471 47.3835 25.1444 47.9638 25.1444C48.544 25.1444 49.0414 24.6471 49.0414 24.0668C49.0414 23.4866 48.544 22.9892 47.9638 22.9892ZM39.1358 12.7107C38.5556 12.7107 38.0582 13.208 38.0582 13.7883C38.0582 14.3685 38.5556 14.8659 39.1358 14.8659C39.7161 14.8659 40.2134 14.3685 40.2134 13.7883C40.2134 13.1666 39.7161 12.7107 39.1358 12.7107ZM46.1816 12.7107C45.6014 12.7107 45.104 13.208 45.104 13.7883C45.104 14.3685 45.6014 14.8659 46.1816 14.8659C46.7619 14.8659 47.2592 14.3685 47.2592 13.7883C47.2592 13.1666 46.8033 12.7107 46.1816 12.7107ZM47.9638 26.6779C47.3835 26.6779 46.8862 27.1753 46.8862 27.7555C46.8862 28.3357 47.3835 28.8331 47.9638 28.8331C48.544 28.8331 49.0414 28.3357 49.0414 27.7555C49.0414 27.1753 48.544 26.6779 47.9638 26.6779ZM47.9638 19.342C47.3835 19.342 46.8862 19.8394 46.8862 20.4196C46.8862 20.9998 47.3835 21.4972 47.9638 21.4972C48.544 21.4972 49.0414 20.9998 49.0414 20.4196C49.0414 19.7979 48.544 19.342 47.9638 19.342ZM56.7917 12.7107C56.2115 12.7107 55.7142 13.208 55.7142 13.7883C55.7142 14.3685 56.2115 14.8659 56.7917 14.8659C57.372 14.8659 57.8693 14.3685 57.8693 13.7883C57.8693 13.1666 57.372 12.7107 56.7917 12.7107ZM49.746 12.7107C49.1657 12.7107 48.6684 13.208 48.6684 13.7883C48.6684 14.3685 49.1657 14.8659 49.746 14.8659C50.3262 14.8659 50.8235 14.3685 50.8235 13.7883C50.7821 13.1666 50.3262 12.7107 49.746 12.7107ZM53.2689 12.7107C52.6886 12.7107 52.1913 13.208 52.1913 13.7883C52.1913 14.3685 52.6886 14.8659 53.2689 14.8659C53.8491 14.8659 54.3464 14.3685 54.3464 13.7883C54.3464 13.1666 53.8491 12.7107 53.2689 12.7107ZM47.9638 15.6533C47.3835 15.6533 46.8862 16.1507 46.8862 16.7309C46.8862 17.3112 47.3835 17.8085 47.9638 17.8085C48.544 17.8085 49.0414 17.3112 49.0414 16.7309C49.0414 16.1092 48.544 15.6533 47.9638 15.6533ZM339.577 26.8437C338.996 26.8437 338.499 27.341 338.499 27.9213C338.499 28.5015 338.996 28.9989 339.577 28.9989C340.157 28.9989 340.654 28.5015 340.654 27.9213C340.654 27.2996 340.157 26.8437 339.577 26.8437ZM339.577 23.2794C338.996 23.2794 338.499 23.7767 338.499 24.3569C338.499 24.9372 338.996 25.4345 339.577 25.4345C340.157 25.4345 340.654 24.9372 340.654 24.3569C340.654 23.7767 340.157 23.2794 339.577 23.2794ZM339.577 16.2336C338.996 16.2336 338.499 16.7309 338.499 17.3112C338.499 17.8914 338.996 18.3887 339.577 18.3887C340.157 18.3887 340.654 17.8914 340.654 17.3112C340.654 16.7309 340.157 16.2336 339.577 16.2336ZM339.577 12.7107C338.996 12.7107 338.499 13.208 338.499 13.7883C338.499 14.3685 338.996 14.8659 339.577 14.8659C340.157 14.8659 340.654 14.3685 340.654 13.7883C340.654 13.1666 340.157 12.7107 339.577 12.7107ZM352.673 30.3666C352.093 30.3666 351.596 30.8639 351.596 31.4442C351.596 32.0244 352.093 32.5218 352.673 32.5218C353.254 32.5218 353.751 32.0244 353.751 31.4442C353.751 30.8639 353.254 30.3666 352.673 30.3666ZM339.577 19.7565C338.996 19.7565 338.499 20.2538 338.499 20.8341C338.499 21.4143 338.996 21.9116 339.577 21.9116C340.157 21.9116 340.654 21.4143 340.654 20.8341C340.654 20.2538 340.157 19.7565 339.577 19.7565ZM323.62 30.3666C323.04 30.3666 322.542 30.8639 322.542 31.4442C322.542 32.0244 323.04 32.5218 323.62 32.5218C324.2 32.5218 324.698 32.0244 324.698 31.4442C324.698 30.8639 324.2 30.3666 323.62 30.3666ZM308.741 12.7107C308.161 12.7107 307.663 13.208 307.663 13.7883C307.663 14.3685 308.161 14.8659 308.741 14.8659C309.321 14.8659 309.819 14.3685 309.819 13.7883C309.819 13.1666 309.321 12.7107 308.741 12.7107ZM312.264 12.7107C311.684 12.7107 311.186 13.208 311.186 13.7883C311.186 14.3685 311.684 14.8659 312.264 14.8659C312.844 14.8659 313.341 14.3685 313.341 13.7883C313.341 13.1666 312.885 12.7107 312.264 12.7107ZM305.218 12.7107C304.638 12.7107 304.14 13.208 304.14 13.7883C304.14 14.3685 304.638 14.8659 305.218 14.8659C305.798 14.8659 306.296 14.3685 306.296 13.7883C306.296 13.1666 305.798 12.7107 305.218 12.7107ZM303.436 19.342C302.856 19.342 302.358 19.8394 302.358 20.4196C302.358 20.9998 302.856 21.4972 303.436 21.4972C304.016 21.4972 304.513 20.9998 304.513 20.4196C304.513 19.7979 304.016 19.342 303.436 19.342ZM352.673 26.8437C352.093 26.8437 351.596 27.341 351.596 27.9213C351.596 28.5015 352.093 28.9989 352.673 28.9989C353.254 28.9989 353.751 28.5015 353.751 27.9213C353.751 27.2996 353.254 26.8437 352.673 26.8437ZM303.436 15.6533C302.856 15.6533 302.358 16.1507 302.358 16.7309C302.358 17.3112 302.856 17.8085 303.436 17.8085C304.016 17.8085 304.513 17.3112 304.513 16.7309C304.513 16.1092 304.016 15.6533 303.436 15.6533ZM323.62 19.7565C323.04 19.7565 322.542 20.2538 322.542 20.8341C322.542 21.4143 323.04 21.9116 323.62 21.9116C324.2 21.9116 324.698 21.4143 324.698 20.8341C324.698 20.2538 324.2 19.7565 323.62 19.7565ZM323.62 16.2336C323.04 16.2336 322.542 16.7309 322.542 17.3112C322.542 17.8914 323.04 18.3887 323.62 18.3887C324.2 18.3887 324.698 17.8914 324.698 17.3112C324.698 16.7309 324.2 16.2336 323.62 16.2336ZM323.62 26.8437C323.04 26.8437 322.542 27.341 322.542 27.9213C322.542 28.5015 323.04 28.9989 323.62 28.9989C324.2 28.9989 324.698 28.5015 324.698 27.9213C324.698 27.2996 324.2 26.8437 323.62 26.8437ZM323.62 23.2794C323.04 23.2794 322.542 23.7767 322.542 24.3569C322.542 24.9372 323.04 25.4345 323.62 25.4345C324.2 25.4345 324.698 24.9372 324.698 24.3569C324.698 23.7767 324.2 23.2794 323.62 23.2794ZM382.97 30.3666C382.39 30.3666 381.893 30.8639 381.893 31.4442C381.893 32.0244 382.39 32.5218 382.97 32.5218C383.551 32.5218 384.048 32.0244 384.048 31.4442C384.048 30.8639 383.551 30.3666 382.97 30.3666ZM364.444 12.7107C363.864 12.7107 363.366 13.208 363.366 13.7883C363.366 14.3685 363.864 14.8659 364.444 14.8659C365.024 14.8659 365.522 14.3685 365.522 13.7883C365.522 13.1666 365.024 12.7107 364.444 12.7107ZM364.444 30.3666C363.864 30.3666 363.366 30.8639 363.366 31.4442C363.366 32.0244 363.864 32.5218 364.444 32.5218C365.024 32.5218 365.522 32.0244 365.522 31.4442C365.522 30.8639 365.024 30.3666 364.444 30.3666ZM382.97 26.222C382.39 26.222 381.893 26.7194 381.893 27.2996C381.893 27.8798 382.39 28.3772 382.97 28.3772C383.551 28.3772 384.048 27.8798 384.048 27.2996C384.048 26.7194 383.551 26.222 382.97 26.222ZM352.673 12.7107C352.093 12.7107 351.596 13.208 351.596 13.7883C351.596 14.3685 352.093 14.8659 352.673 14.8659C353.254 14.8659 353.751 14.3685 353.751 13.7883C353.751 13.1666 353.254 12.7107 352.673 12.7107ZM360.507 12.7107C359.926 12.7107 359.429 13.208 359.429 13.7883C359.429 14.3685 359.926 14.8659 360.507 14.8659C361.087 14.8659 361.584 14.3685 361.584 13.7883C361.584 13.1666 361.128 12.7107 360.507 12.7107ZM356.569 21.5386C355.989 21.5386 355.492 22.036 355.492 22.6162C355.492 23.1965 355.989 23.6938 356.569 23.6938C357.15 23.6938 357.647 23.1965 357.647 22.6162C357.647 21.9945 357.191 21.5386 356.569 21.5386ZM356.569 30.3666C355.989 30.3666 355.492 30.8639 355.492 31.4442C355.492 32.0244 355.989 32.5218 356.569 32.5218C357.15 32.5218 357.647 32.0244 357.647 31.4442C357.647 30.8639 357.191 30.3666 356.569 30.3666ZM352.673 19.7565C352.093 19.7565 351.596 20.2538 351.596 20.8341C351.596 21.4143 352.093 21.9116 352.673 21.9116C353.254 21.9116 353.751 21.4143 353.751 20.8341C353.751 20.2538 353.254 19.7565 352.673 19.7565ZM352.673 16.2336C352.093 16.2336 351.596 16.7309 351.596 17.3112C351.596 17.8914 352.093 18.3887 352.673 18.3887C353.254 18.3887 353.751 17.8914 353.751 17.3112C353.751 16.7309 353.254 16.2336 352.673 16.2336ZM360.507 30.3666C359.926 30.3666 359.429 30.8639 359.429 31.4442C359.429 32.0244 359.926 32.5218 360.507 32.5218C361.087 32.5218 361.584 32.0244 361.584 31.4442C361.584 30.8639 361.128 30.3666 360.507 30.3666ZM360.507 21.5386C359.926 21.5386 359.429 22.036 359.429 22.6162C359.429 23.1965 359.926 23.6938 360.507 23.6938C361.087 23.6938 361.584 23.1965 361.584 22.6162C361.584 21.9945 361.128 21.5386 360.507 21.5386ZM352.673 23.2794C352.093 23.2794 351.596 23.7767 351.596 24.3569C351.596 24.9372 352.093 25.4345 352.673 25.4345C353.254 25.4345 353.751 24.9372 353.751 24.3569C353.751 23.7767 353.254 23.2794 352.673 23.2794ZM356.569 12.7107C355.989 12.7107 355.492 13.208 355.492 13.7883C355.492 14.3685 355.989 14.8659 356.569 14.8659C357.15 14.8659 357.647 14.3685 357.647 13.7883C357.647 13.1666 357.191 12.7107 356.569 12.7107ZM284.537 21.0827C284.537 20.5025 284.039 20.0051 283.459 20.0051C282.879 20.0051 282.381 20.5025 282.381 21.0827C282.381 21.663 282.879 22.1603 283.459 22.1603C284.039 22.1603 284.537 21.7044 284.537 21.0827ZM303.436 22.9892C302.856 22.9892 302.358 23.4866 302.358 24.0668C302.358 24.6471 302.856 25.1444 303.436 25.1444C304.016 25.1444 304.513 24.6471 304.513 24.0668C304.513 23.4866 304.016 22.9892 303.436 22.9892ZM382.97 22.0774C382.39 22.0774 381.893 22.5748 381.893 23.155C381.893 23.7353 382.39 24.2326 382.97 24.2326C383.551 24.2326 384.048 23.7353 384.048 23.155C384.048 22.5333 383.551 22.0774 382.97 22.0774ZM285.656 18.0572C285.656 17.4769 285.158 16.9796 284.578 16.9796C283.998 16.9796 283.5 17.4769 283.5 18.0572C283.5 18.6374 283.998 19.1348 284.578 19.1348C285.158 19.0933 285.656 18.6374 285.656 18.0572ZM303.436 30.3666C302.856 30.3666 302.358 30.8639 302.358 31.4442C302.358 32.0244 302.856 32.5218 303.436 32.5218C304.016 32.5218 304.513 32.0244 304.513 31.4442C304.513 30.8639 304.016 30.3666 303.436 30.3666ZM301.654 12.7107C301.073 12.7107 300.576 13.208 300.576 13.7883C300.576 14.3685 301.073 14.8659 301.654 14.8659C302.234 14.8659 302.731 14.3685 302.731 13.7883C302.731 13.1666 302.275 12.7107 301.654 12.7107ZM303.436 26.6779C302.856 26.6779 302.358 27.1753 302.358 27.7555C302.358 28.3357 302.856 28.8331 303.436 28.8331C304.016 28.8331 304.513 28.3357 304.513 27.7555C304.513 27.1753 304.016 26.6779 303.436 26.6779ZM294.608 12.7107C294.028 12.7107 293.53 13.208 293.53 13.7883C293.53 14.3685 294.028 14.8659 294.608 14.8659C295.188 14.8659 295.685 14.3685 295.685 13.7883C295.685 13.1666 295.188 12.7107 294.608 12.7107ZM298.131 12.7107C297.551 12.7107 297.053 13.208 297.053 13.7883C297.053 14.3685 297.551 14.8659 298.131 14.8659C298.711 14.8659 299.208 14.3685 299.208 13.7883C299.208 13.1666 298.711 12.7107 298.131 12.7107ZM270.362 23.2794C269.782 23.2794 269.284 23.7767 269.284 24.3569C269.284 24.9372 269.782 25.4345 270.362 25.4345C270.942 25.4345 271.44 24.9372 271.44 24.3569C271.44 23.7767 270.984 23.2794 270.362 23.2794ZM273.761 12.7107C273.18 12.7107 272.683 13.208 272.683 13.7883C272.683 14.3685 273.18 14.8659 273.761 14.8659C274.341 14.8659 274.838 14.3685 274.838 13.7883C274.838 13.1666 274.341 12.7107 273.761 12.7107ZM270.362 30.3666C269.782 30.3666 269.284 30.8639 269.284 31.4442C269.284 32.0244 269.782 32.5218 270.362 32.5218C270.942 32.5218 271.44 32.0244 271.44 31.4442C271.44 30.8639 270.984 30.3666 270.362 30.3666ZM270.362 26.8437C269.782 26.8437 269.284 27.341 269.284 27.9213C269.284 28.5015 269.782 28.9989 270.362 28.9989C270.942 28.9989 271.44 28.5015 271.44 27.9213C271.44 27.2996 270.984 26.8437 270.362 26.8437ZM270.362 12.7107C269.782 12.7107 269.284 13.208 269.284 13.7883C269.284 14.3685 269.782 14.8659 270.362 14.8659C270.942 14.8659 271.44 14.3685 271.44 13.7883C271.44 13.1666 270.984 12.7107 270.362 12.7107ZM277.118 23.6938C277.698 23.6938 278.195 23.1965 278.195 22.6162C278.195 22.036 277.698 21.5386 277.118 21.5386C276.538 21.5386 276.04 22.036 276.04 22.6162C276.04 23.1965 276.538 23.6938 277.118 23.6938ZM280.516 23.6938C281.097 23.6938 281.594 23.1965 281.594 22.6162C281.594 22.036 281.097 21.5386 280.516 21.5386C279.936 21.5386 279.439 22.036 279.439 22.6162C279.439 23.1965 279.936 23.6938 280.516 23.6938ZM273.678 21.5386C273.098 21.5386 272.6 22.036 272.6 22.6162C272.6 23.1965 273.098 23.6938 273.678 23.6938C274.258 23.6938 274.755 23.1965 274.755 22.6162C274.755 22.036 274.299 21.5386 273.678 21.5386ZM270.362 16.2336C269.782 16.2336 269.284 16.7309 269.284 17.3112C269.284 17.8914 269.782 18.3887 270.362 18.3887C270.942 18.3887 271.44 17.8914 271.44 17.3112C271.44 16.7309 270.984 16.2336 270.362 16.2336ZM270.362 19.7565C269.782 19.7565 269.284 20.2538 269.284 20.8341C269.284 21.4143 269.782 21.9116 270.362 21.9116C270.942 21.9116 271.44 21.4143 271.44 20.8341C271.44 20.2538 270.984 19.7565 270.362 19.7565ZM171.555 21.5801C171.555 22.1603 172.053 22.6577 172.633 22.6577C173.213 22.6577 173.71 22.1603 173.71 21.5801C173.71 20.9998 173.213 20.5025 172.633 20.5025C172.011 20.5025 171.555 20.9998 171.555 21.5801ZM173.959 19.0104C173.959 19.5907 174.456 20.088 175.037 20.088C175.617 20.088 176.114 19.5907 176.114 19.0104C176.114 18.4302 175.617 17.9328 175.037 17.9328C174.415 17.9328 173.918 18.3887 173.959 19.0104ZM178.725 13.7883C178.725 14.3685 179.223 14.8659 179.803 14.8659C180.383 14.8659 180.881 14.3685 180.881 13.7883C180.881 13.208 180.383 12.7107 179.803 12.7107C179.181 12.7107 178.725 13.1666 178.725 13.7883ZM176.321 16.3993C176.321 16.9796 176.819 17.4769 177.399 17.4769C177.979 17.4769 178.477 16.9796 178.477 16.3993C178.477 15.8191 177.979 15.3218 177.399 15.3218C176.819 15.3218 176.321 15.7777 176.321 16.3993ZM251.38 17.8085C251.96 17.8085 252.457 17.3112 252.457 16.7309C252.457 16.1507 251.96 15.6533 251.38 15.6533C250.8 15.6533 250.302 16.1507 250.302 16.7309C250.302 17.3112 250.8 17.8085 251.38 17.8085ZM256.851 28.5015C256.851 29.0818 257.348 29.5791 257.928 29.5791C258.509 29.5791 259.006 29.0818 259.006 28.5015C259.006 27.9213 258.509 27.4239 257.928 27.4239C257.348 27.4239 256.851 27.9213 256.851 28.5015ZM255.234 25.5589C255.234 26.1391 255.732 26.6365 256.312 26.6365C256.892 26.6365 257.39 26.1391 257.39 25.5589C257.39 24.9786 256.892 24.4813 256.312 24.4813C255.69 24.4813 255.234 24.9786 255.234 25.5589ZM253.577 22.6162C253.577 23.1965 254.074 23.6938 254.654 23.6938C255.234 23.6938 255.732 23.1965 255.732 22.6162C255.732 22.036 255.234 21.5386 254.654 21.5386C254.074 21.5386 253.577 22.036 253.577 22.6162ZM251.96 25.5589C251.96 26.1391 252.457 26.6365 253.038 26.6365C253.618 26.6365 254.115 26.1391 254.115 25.5589C254.115 24.9786 253.618 24.4813 253.038 24.4813C252.416 24.4813 251.96 24.9786 251.96 25.5589ZM258.509 31.4442C258.509 32.0244 259.006 32.5218 259.586 32.5218C260.166 32.5218 260.664 32.0244 260.664 31.4442C260.664 30.8639 260.166 30.3666 259.586 30.3666C258.964 30.3666 258.509 30.8639 258.509 31.4442ZM251.96 19.6736C251.96 20.2538 252.457 20.7512 253.038 20.7512C253.618 20.7512 254.115 20.2538 254.115 19.6736C254.115 19.0933 253.618 18.596 253.038 18.596C252.416 18.596 251.96 19.0933 251.96 19.6736ZM248.686 25.5589C248.686 26.1391 249.183 26.6365 249.763 26.6365C250.344 26.6365 250.841 26.1391 250.841 25.5589C250.841 24.9786 250.344 24.4813 249.763 24.4813C249.142 24.4813 248.686 24.9786 248.686 25.5589ZM248.686 13.7883C248.686 14.3685 249.183 14.8659 249.763 14.8659C250.344 14.8659 250.841 14.3685 250.841 13.7883C250.841 13.208 250.344 12.7107 249.763 12.7107C249.142 12.7107 248.686 13.1666 248.686 13.7883ZM384.628 20.0051C384.628 20.5854 385.126 21.0827 385.706 21.0827C386.286 21.0827 386.783 20.5854 386.783 20.0051C386.783 19.4249 386.286 18.9275 385.706 18.9275C385.084 18.9275 384.628 19.4249 384.628 20.0051ZM387.364 16.8967C387.364 17.4769 387.861 17.9743 388.441 17.9743C389.021 17.9743 389.519 17.4769 389.519 16.8967C389.519 16.3165 389.021 15.8191 388.441 15.8191C387.82 15.8191 387.364 16.275 387.364 16.8967ZM390.099 13.7468C390.099 14.3271 390.596 14.8244 391.177 14.8244C391.757 14.8244 392.254 14.3271 392.254 13.7468C392.254 13.1666 391.757 12.6692 391.177 12.6692C390.555 12.6692 390.099 13.1666 390.099 13.7468ZM336.924 27.4239C336.344 27.4239 335.846 27.9213 335.846 28.5015C335.846 29.0818 336.302 29.5791 336.924 29.5791C337.504 29.5791 338.002 29.0818 338.002 28.5015C338.002 27.9213 337.504 27.4239 336.924 27.4239ZM334.272 24.4813C333.691 24.4813 333.194 24.9372 333.194 25.5589C333.194 26.1391 333.691 26.6365 334.272 26.6365C334.852 26.6365 335.349 26.1391 335.349 25.5589C335.349 24.9786 334.852 24.4813 334.272 24.4813ZM339.577 30.3666C338.996 30.3666 338.499 30.8225 338.499 31.4442C338.499 32.0244 338.955 32.5218 339.577 32.5218C340.157 32.5218 340.654 32.0659 340.654 31.4442C340.654 30.8639 340.198 30.3666 339.577 30.3666ZM331.619 21.5386C331.039 21.5386 330.541 21.9945 330.541 22.6162C330.541 23.1965 330.997 23.6938 331.619 23.6938C332.199 23.6938 332.697 23.1965 332.697 22.6162C332.655 22.036 332.199 21.5386 331.619 21.5386ZM328.925 18.596C328.345 18.596 327.847 19.0519 327.847 19.6736C327.847 20.2538 328.303 20.7512 328.925 20.7512C329.505 20.7512 330.003 20.2953 330.003 19.6736C330.003 19.0933 329.547 18.596 328.925 18.596ZM326.272 15.6533C325.692 15.6533 325.195 16.1092 325.195 16.7309C325.195 17.3112 325.651 17.8085 326.272 17.8085C326.853 17.8085 327.35 17.3526 327.35 16.7309C327.35 16.1092 326.853 15.6533 326.272 15.6533ZM323.62 12.7107C323.04 12.7107 322.542 13.1666 322.542 13.7883C322.542 14.3685 322.998 14.8659 323.62 14.8659C324.2 14.8659 324.698 14.4099 324.698 13.7883C324.698 13.1666 324.2 12.7107 323.62 12.7107ZM205.748 28.4601C205.168 28.4601 204.67 28.9574 204.67 29.5377C204.67 30.1179 205.168 30.6153 205.748 30.6153C206.328 30.6153 206.826 30.1179 206.826 29.5377C206.784 28.9574 206.328 28.4601 205.748 28.4601ZM202.64 30.2008C202.059 30.2008 201.562 30.6982 201.562 31.2784C201.562 31.8586 202.059 32.356 202.64 32.356C203.22 32.356 203.717 31.8586 203.717 31.2784C203.717 30.6982 203.22 30.2008 202.64 30.2008ZM199.034 30.6982C198.454 30.6982 197.956 31.1955 197.956 31.7757C197.956 32.356 198.454 32.8533 199.034 32.8533C199.614 32.8533 200.111 32.356 200.111 31.7757C200.111 31.1955 199.614 30.6982 199.034 30.6982ZM195.594 29.9936C195.014 29.9936 194.516 30.4909 194.516 31.0712C194.516 31.6514 195.014 32.1488 195.594 32.1488C196.174 32.1488 196.671 31.6514 196.671 31.0712C196.671 30.4495 196.215 29.9936 195.594 29.9936ZM193.024 27.5483C192.444 27.5483 191.947 28.0456 191.947 28.6259C191.947 29.2061 192.444 29.7035 193.024 29.7035C193.604 29.7035 194.102 29.2061 194.102 28.6259C194.102 28.0042 193.646 27.5483 193.024 27.5483ZM192.112 24.0254C191.532 24.0254 191.035 24.5227 191.035 25.103C191.035 25.6832 191.532 26.1806 192.112 26.1806C192.693 26.1806 193.19 25.6832 193.19 25.103C193.19 24.5227 192.693 24.0254 192.112 24.0254ZM193.024 20.5439C192.444 20.5439 191.947 21.0413 191.947 21.6215C191.947 22.2018 192.444 22.6991 193.024 22.6991C193.604 22.6991 194.102 22.2018 194.102 21.6215C194.102 21.0413 193.646 20.5439 193.024 20.5439ZM195.594 18.0986C195.014 18.0986 194.516 18.596 194.516 19.1762C194.516 19.7565 195.014 20.2538 195.594 20.2538C196.174 20.2538 196.671 19.7565 196.671 19.1762C196.671 18.5545 196.215 18.0986 195.594 18.0986ZM199.034 17.3526C198.454 17.3526 197.956 17.85 197.956 18.4302C197.956 19.0104 198.454 19.5078 199.034 19.5078C199.614 19.5078 200.111 19.0104 200.111 18.4302C200.111 17.85 199.614 17.3526 199.034 17.3526ZM202.64 17.85C202.059 17.85 201.562 18.3473 201.562 18.9275C201.562 19.5078 202.059 20.0051 202.64 20.0051C203.22 20.0051 203.717 19.5078 203.717 18.9275C203.717 18.3473 203.22 17.85 202.64 17.85ZM205.748 19.5907C205.168 19.5907 204.67 20.088 204.67 20.6683C204.67 21.2485 205.168 21.7459 205.748 21.7459C206.328 21.7459 206.826 21.2485 206.826 20.6683C206.784 20.088 206.328 19.5907 205.748 19.5907ZM236.832 15.4875C236.252 15.4875 235.755 15.9849 235.755 16.5651C235.755 17.1454 236.252 17.6427 236.832 17.6427C237.413 17.6427 237.91 17.1454 237.91 16.5651C237.91 15.9849 237.454 15.4875 236.832 15.4875ZM233.973 13.4152C233.392 13.4152 232.895 13.9126 232.895 14.4928C232.895 15.0731 233.392 15.5704 233.973 15.5704C234.553 15.5704 235.05 15.0731 235.05 14.4928C235.05 13.9126 234.553 13.4152 233.973 13.4152ZM230.533 12.3377C229.952 12.3377 229.455 12.835 229.455 13.4152C229.455 13.9955 229.952 14.4928 230.533 14.4928C231.113 14.4928 231.61 13.9955 231.61 13.4152C231.61 12.835 231.113 12.3377 230.533 12.3377ZM226.802 12.1719C226.222 12.1719 225.725 12.6692 225.725 13.2495C225.725 13.8297 226.222 14.3271 226.802 14.3271C227.383 14.3271 227.88 13.8297 227.88 13.2495C227.88 12.6692 227.424 12.1719 226.802 12.1719ZM223.238 12.835C222.658 12.835 222.161 13.3324 222.161 13.9126C222.161 14.4928 222.658 14.9902 223.238 14.9902C223.818 14.9902 224.316 14.4928 224.316 13.9126C224.316 13.3324 223.818 12.835 223.238 12.835ZM220.378 14.7001C219.798 14.7001 219.301 15.1974 219.301 15.7777C219.301 16.3579 219.798 16.8553 220.378 16.8553C220.959 16.8553 221.456 16.3579 221.456 15.7777C221.456 15.1974 220.959 14.7001 220.378 14.7001ZM218.43 17.85C217.85 17.85 217.353 18.3473 217.353 18.9275C217.353 19.5078 217.85 20.0051 218.43 20.0051C219.011 20.0051 219.508 19.5078 219.508 18.9275C219.508 18.3473 219.011 17.85 218.43 17.85ZM217.684 21.4557C217.104 21.4557 216.607 21.9531 216.607 22.5333C216.607 23.1136 217.104 23.6109 217.684 23.6109C218.265 23.6109 218.762 23.1136 218.762 22.5333C218.762 21.9531 218.265 21.4557 217.684 21.4557ZM236.832 29.5791C236.252 29.5791 235.755 29.0818 235.755 28.5015C235.755 27.9213 236.252 27.4239 236.832 27.4239C237.413 27.4239 237.91 27.9213 237.91 28.5015C237.91 29.0818 237.454 29.5791 236.832 29.5791ZM233.973 31.6514C233.392 31.6514 232.895 31.1541 232.895 30.5738C232.895 29.9936 233.392 29.4962 233.973 29.4962C234.553 29.4962 235.05 29.9936 235.05 30.5738C235.05 31.1541 234.553 31.6514 233.973 31.6514ZM230.533 32.729C229.952 32.729 229.455 32.2317 229.455 31.6514C229.455 31.0712 229.952 30.5738 230.533 30.5738C231.113 30.5738 231.61 31.0712 231.61 31.6514C231.61 32.2317 231.113 32.729 230.533 32.729ZM226.802 32.8948C226.222 32.8948 225.725 32.3974 225.725 31.8172C225.725 31.237 226.222 30.7396 226.802 30.7396C227.383 30.7396 227.88 31.237 227.88 31.8172C227.88 32.4389 227.424 32.8948 226.802 32.8948ZM223.238 32.2317C222.658 32.2317 222.161 31.7343 222.161 31.1541C222.161 30.5738 222.658 30.0765 223.238 30.0765C223.818 30.0765 224.316 30.5738 224.316 31.1541C224.316 31.7343 223.818 32.2317 223.238 32.2317ZM220.378 30.3666C219.798 30.3666 219.301 29.8692 219.301 29.289C219.301 28.7088 219.798 28.2114 220.378 28.2114C220.959 28.2114 221.456 28.7088 221.456 29.289C221.456 29.8692 220.959 30.3666 220.378 30.3666ZM218.43 27.2167C217.85 27.2167 217.353 26.7194 217.353 26.1391C217.353 25.5589 217.85 25.0615 218.43 25.0615C219.011 25.0615 219.508 25.5589 219.508 26.1391C219.508 26.7194 219.011 27.2167 218.43 27.2167ZM20.9411 30.6567C20.3609 30.6567 19.8635 31.1541 19.8635 31.7343C19.8635 32.3145 20.3609 32.8119 20.9411 32.8119C21.5214 32.8119 22.0187 32.3145 22.0187 31.7343C22.0187 31.1541 21.5628 30.6567 20.9411 30.6567ZM21.6042 22.3675C21.6042 21.7873 21.1069 21.29 20.5267 21.29C19.9464 21.29 19.4491 21.7873 19.4491 22.3675C19.4491 22.9478 19.9464 23.4451 20.5267 23.4451C21.1483 23.4451 21.6042 22.9478 21.6042 22.3675ZM17.584 29.3719C17.0038 29.3719 16.5064 29.8692 16.5064 30.4495C16.5064 31.0297 17.0038 31.5271 17.584 31.5271C18.1642 31.5271 18.6616 31.0297 18.6616 30.4495C18.6616 29.8692 18.2057 29.3719 17.584 29.3719ZM15.4703 19.1762C16.0505 19.1762 16.5479 18.6789 16.5479 18.0986C16.5479 17.5184 16.0505 17.021 15.4703 17.021C14.89 17.021 14.3927 17.5184 14.3927 18.0986C14.3927 18.6789 14.89 19.1762 15.4703 19.1762ZM15.0144 26.7608C14.4341 26.7608 13.9368 27.2582 13.9368 27.8384C13.9368 28.4186 14.4341 28.916 15.0144 28.916C15.5946 28.916 16.092 28.4186 16.092 27.8384C16.092 27.2582 15.5946 26.7608 15.0144 26.7608ZM28.1112 30.035C27.531 30.035 27.0336 30.5324 27.0336 31.1126C27.0336 31.6929 27.531 32.1902 28.1112 32.1902C28.6915 32.1902 29.1888 31.6929 29.1888 31.1126C29.1888 30.5324 28.6915 30.035 28.1112 30.035ZM16.0505 21.2071C16.0505 21.7873 16.5479 22.2847 17.1281 22.2847C17.7083 22.2847 18.2057 21.7873 18.2057 21.2071C18.2057 20.6268 17.7083 20.1295 17.1281 20.1295C16.5064 20.1295 16.0505 20.6268 16.0505 21.2071ZM30.6809 27.5897C30.1006 27.5897 29.6033 28.0871 29.6033 28.6673C29.6033 29.2476 30.1006 29.7449 30.6809 29.7449C31.2611 29.7449 31.7585 29.2476 31.7585 28.6673C31.7585 28.0456 31.3026 27.5897 30.6809 27.5897ZM28.8573 23.0721C28.8573 22.4919 28.3599 21.9945 27.7797 21.9945C27.1994 21.9945 26.7021 22.4919 26.7021 23.0721C26.7021 23.6524 27.1994 24.1497 27.7797 24.1497C28.3599 24.1497 28.8573 23.6938 28.8573 23.0721ZM24.5883 30.8225C24.0081 30.8225 23.5108 31.3198 23.5108 31.9001C23.5108 32.4803 24.0081 32.9777 24.5883 32.9777C25.1686 32.9777 25.6659 32.4803 25.6659 31.9001C25.6659 31.3198 25.1686 30.8225 24.5883 30.8225ZM25.2515 22.6577C25.2515 22.0774 24.7541 21.5801 24.1739 21.5801C23.5936 21.5801 23.0963 22.0774 23.0963 22.6577C23.0963 23.2379 23.5936 23.7353 24.1739 23.7353C24.7541 23.7353 25.2515 23.2794 25.2515 22.6577ZM20.1122 14.6172C20.6924 14.6172 21.1898 14.1198 21.1898 13.5396C21.1898 12.9593 20.6924 12.462 20.1122 12.462C19.532 12.462 19.0346 12.9593 19.0346 13.5396C19.0346 14.1198 19.4905 14.6172 20.1122 14.6172ZM30.6809 24.0254C30.1006 24.0254 29.6033 24.5227 29.6033 25.103C29.6033 25.6832 30.1006 26.1806 30.6809 26.1806C31.2611 26.1806 31.7585 25.6832 31.7585 25.103C31.7585 24.5227 31.2611 24.0254 30.6809 24.0254ZM23.718 14.4099C24.2982 14.4099 24.7956 13.9126 24.7956 13.3324C24.7956 12.7521 24.2982 12.2548 23.718 12.2548C23.1377 12.2548 22.6404 12.7521 22.6404 13.3324C22.6404 13.9126 23.1377 14.4099 23.718 14.4099ZM16.7136 15.902C17.2939 15.902 17.7912 15.4046 17.7912 14.8244C17.7912 14.2442 17.2939 13.7468 16.7136 13.7468C16.092 13.7883 15.636 14.2442 15.636 14.8659C15.636 15.4461 16.092 15.902 16.7136 15.902ZM30.3079 17.021C30.8881 17.021 31.3855 16.5237 31.3855 15.9434C31.3855 15.3632 30.8881 14.8659 30.3079 14.8659C29.7276 14.8659 29.2303 15.3632 29.2303 15.9434C29.2303 16.5237 29.7276 17.021 30.3079 17.021ZM27.2823 15.0731C27.8626 15.0731 28.3599 14.5757 28.3599 13.9955C28.3599 13.4152 27.8626 12.9179 27.2823 12.9179C26.7021 12.9179 26.2047 13.4152 26.2047 13.9955C26.2047 14.5757 26.7021 15.0731 27.2823 15.0731Z" fill="black"/>
</g>
<defs>
<clipPath id="clip0_587_10772">
<rect width="378.317" height="20.8058" fill="white" transform="translate(13.9368 12.1719)"/>
</clipPath>
</defs>
</svg>
