<svg width="240" height="43" viewBox="0 0 240 43" fill="none" xmlns="http://www.w3.org/2000/svg">
<g clip-path="url(#clip0_587_10775)">
<path d="M85.7269 4.29688V38.0928H78.1235V15.2723L75.0852 38.0927H69.6892L66.5245 15.7988V38.0927H58.8735V4.29688H70.1323C70.4725 6.33083 70.8127 8.72373 71.1688 11.4756L72.4031 20.0741L74.4048 4.29688H85.7269Z" fill="black"/>
<path d="M114.012 14.5234H105.934V12.0188C106.002 11.2597 105.893 10.495 105.617 9.78534C105.384 9.45178 104.992 9.26934 104.589 9.30679C104.105 9.2835 103.648 9.53216 103.402 9.95285C103.093 10.5579 102.954 11.2362 102.999 11.9151C102.948 12.7898 103.103 13.6642 103.45 14.4675C104.088 15.3503 104.933 16.0601 105.91 16.5335C109.777 18.8519 112.216 20.7582 113.229 22.2525C114.242 23.7467 114.745 26.1396 114.74 29.4312C114.84 31.2473 114.554 33.0639 113.901 34.7594C113.172 36.0552 112.033 37.0665 110.665 37.6309C108.913 38.4326 107.004 38.8278 105.079 38.7875C103.014 38.8477 100.966 38.3871 99.1217 37.4475C97.6596 36.7625 96.505 35.5502 95.8857 34.0495C95.2905 32.1528 95.0228 30.167 95.0945 28.1789V25.9854H103.181V30.1012C103.107 30.9303 103.223 31.7655 103.521 32.5419C103.801 32.9451 104.278 33.1598 104.763 33.1003C105.287 33.1279 105.784 32.8608 106.053 32.4064C106.374 31.7767 106.519 31.0708 106.472 30.3644C106.472 28.3783 106.211 27.0701 105.681 26.4639C104.423 25.303 103.056 24.2692 101.598 23.377C100.097 22.4227 98.6589 21.3702 97.294 20.2263C96.5227 19.4596 95.9284 18.5309 95.5533 17.5064C95.0436 16.0917 94.8072 14.5917 94.8571 13.0875C94.8571 10.4978 95.1841 8.60477 95.8382 7.40832C96.5616 6.14981 97.6729 5.16399 99.003 4.6006C100.674 3.88251 102.48 3.53696 104.296 3.58761C106.278 3.53077 108.249 3.90911 110.072 4.69635C111.424 5.2112 112.547 6.19931 113.237 7.48009C113.759 8.60477 114.028 10.5032 114.028 13.1912L114.012 14.5234Z" fill="black"/>
<path d="M143.786 16.7406H135.082V13.6696C135.142 12.454 135.057 11.2355 134.829 10.0404C134.503 9.39722 133.721 9.14282 133.083 9.47198C132.865 9.58438 132.683 9.75648 132.558 9.96852C132.3 11.0108 132.204 12.0871 132.274 13.1591V29.3671C132.216 30.3757 132.312 31.3871 132.558 32.3662C132.746 32.8389 133.219 33.131 133.721 33.0841C134.279 33.135 134.803 32.8106 135.011 32.2865C135.303 31.2501 135.418 30.1712 135.351 29.0959V25.1237H133.595V19.955H143.786V38.0933H138.318L137.527 35.7004C137.009 36.6875 136.235 37.5144 135.288 38.0933C134.32 38.6313 133.229 38.9061 132.123 38.8909C130.685 38.8975 129.27 38.5263 128.017 37.8141C126.838 37.1898 125.836 36.2729 125.105 35.15C124.459 34.1439 124.036 33.0095 123.863 31.8238C123.668 30.0869 123.586 28.339 123.618 26.5913V16.4693C123.547 14.1127 123.719 11.755 124.132 9.43421C124.624 7.79366 125.675 6.38109 127.099 5.44598C128.957 4.16131 131.178 3.52028 133.429 3.61935C135.646 3.53846 137.84 4.09153 139.758 5.21462C141.253 6.05021 142.415 7.37998 143.05 8.97952C143.646 11.0348 143.913 13.1727 143.841 15.3127L143.786 16.7406Z" fill="black"/>
<path d="M180.362 4.29688V38.0928H172.759V15.2723L169.729 38.0927H164.341L161.176 15.7988V38.0927H153.572V4.29688H164.831C165.171 6.33083 165.512 8.72373 165.868 11.4756L167.102 20.0661L169.04 4.29688H180.362Z" fill="black"/>
</g>
<defs>
<clipPath id="clip0_587_10775">
<rect width="121.489" height="35.3096" fill="white" transform="translate(58.8735 3.58203)"/>
</clipPath>
</defs>
</svg>
