<svg width="240" height="43" viewBox="0 0 240 43" fill="none" xmlns="http://www.w3.org/2000/svg">
<g clip-path="url(#clip0_587_10783)">
<path d="M71.3103 6.16406C75.9716 6.16406 77.3862 8.84124 77.3862 12.6235V29.9739C77.3862 33.7561 75.9716 36.4333 71.3103 36.4333C66.6471 36.4333 65.2326 33.7561 65.2326 29.9739V12.6235C65.2326 8.84124 66.649 6.16406 71.3103 6.16406ZM222.539 6.16406C227.202 6.16406 228.614 8.84124 228.614 12.6235V29.9739C228.614 33.7561 227.202 36.4333 222.539 36.4333C217.877 36.4333 216.463 33.7561 216.463 29.9739V12.6235C216.463 8.84124 217.877 6.16406 222.539 6.16406ZM157.66 6.16406C162.323 6.16406 163.736 8.84124 163.736 12.6235V29.9739C163.736 33.7561 162.323 36.4333 157.66 36.4333C152.998 36.4333 151.584 33.7561 151.584 29.9739V12.6235C151.584 8.84124 152.998 6.16406 157.66 6.16406ZM175.128 6.53051C178.432 6.53051 180.473 7.10582 180.473 10.9298L180.482 20.0018C180.486 20.674 180.473 21.2683 180.431 21.7961C180.26 23.5448 179.736 24.5682 178.699 25.1246L181.339 36.2548L177.623 36.2586L175.378 26.184L172.151 26.879L172.145 36.2548H168.687V6.53051H175.128ZM103.949 6.53051L106.714 20.3645L109.48 6.53051H112.846L108.443 25.5708V36.2548H104.986V25.5708L100.583 6.53051H103.949ZM34.9975 6.53051L42.0285 26.8315V6.53431L45.4841 6.53051V36.2548H42.3778L35.3925 16.7968V36.2548H31.9368V6.53051H34.9975ZM86.0804 6.53051L93.1113 26.8315V6.53241H96.5669V36.2548H93.4606L86.4734 16.7968V36.2548H83.0177V6.53051H86.0804ZM212.931 6.53051V9.47351H208.526V36.2548H205.07V9.47541H200.665V6.53241H212.931V6.53051ZM22.2895 6.53241L27.4141 36.2567H23.9376L22.9635 29.8922H16.6351L15.6611 36.2567H12.1846L17.2921 6.53051H22.2895V6.53241ZM194.381 6.53241L199.505 36.2567H196.029L195.053 29.8922H188.726L187.752 36.2567H184.276L189.381 6.53051H194.381V6.53241ZM131.046 6.53241L137.239 24.4619L143.435 6.53051H146.511V36.2548H143.055V16.7968L138.283 29.8979H136.197L131.425 16.7968V36.2548H127.97V6.53051H131.046V6.53241ZM61.5813 6.50203V9.43933H57.1763V36.2206H53.7207V9.43933H49.3157V6.50203H61.5813ZM71.3103 9.10516C69.1078 9.10516 68.6901 10.6279 68.6901 12.7279V29.8694C68.6901 31.9694 69.1078 33.439 71.3103 33.439C73.509 33.439 73.9305 31.9694 73.9305 29.8694V12.7279C73.9305 10.6279 73.509 9.10516 71.3103 9.10516ZM222.539 9.10516C220.338 9.10516 219.918 10.6279 219.918 12.7279V29.8694C219.918 31.9694 220.338 33.439 222.539 33.439C224.741 33.439 225.159 31.9694 225.159 29.8694V12.7279C225.159 10.6279 224.741 9.10516 222.539 9.10516ZM157.66 9.10516C155.459 9.10516 155.04 10.6279 155.04 12.7279V29.8694C155.04 31.9694 155.459 33.439 157.66 33.439C159.86 33.439 160.28 31.9694 160.28 29.8694V12.7279C160.28 10.6279 159.86 9.10516 157.66 9.10516ZM19.7984 10.0678L17.106 26.8828H22.4946L19.7984 10.0678ZM191.89 10.0678L189.197 26.8828H194.582L191.89 10.0678ZM174.08 9.49629H172.143V23.7081L174.45 23.1822C176.026 22.7645 177.015 22.7132 177.015 20.4063V12.1146C177.015 9.86085 175.865 9.4944 174.082 9.4944L174.08 9.49629Z" fill="black"/>
</g>
<defs>
<clipPath id="clip0_587_10783">
<rect width="216.453" height="30.2654" fill="white" transform="translate(12.1846 6.16406)"/>
</clipPath>
</defs>
</svg>
