<svg width="257" height="37" viewBox="0 0 257 37" fill="none" xmlns="http://www.w3.org/2000/svg">
<path fill-rule="evenodd" clip-rule="evenodd" d="M12.8752 7.74657H15.8605H16.0999H20.3979C25.6545 7.74657 30.0728 12.401 30.0728 18.2555C30.0728 23.9888 25.6535 28.6432 20.3979 28.7645H16.0999H15.7413H12.8752V7.74657ZM16.0999 10.253V26.257H19.5628C24.3407 26.1356 26.728 22.3164 26.728 18.3714C26.728 14.3095 24.3396 10.9669 20.3979 10.3689L16.0999 10.253ZM42.733 7.26456C49.1833 7.26456 54.3164 12.1616 54.3164 18.2545C54.3164 24.3419 49.1822 29.24 42.733 29.24C36.4029 29.24 31.1495 24.343 31.1495 18.2545C31.1484 12.1627 36.4029 7.26456 42.733 7.26456ZM42.733 9.89342C47.3917 9.89342 51.2121 13.5957 51.2121 18.2555C51.2121 22.793 47.3917 26.4953 42.733 26.4953C38.1956 26.4953 34.3719 22.793 34.3719 18.2555C34.3719 13.5957 38.1945 9.89342 42.733 9.89342ZM55.2729 7.74657H58.3773V26.258H64.3488V28.7645H58.3773H56.9453H55.2729V7.74657ZM74.3812 7.14866C76.7696 7.14866 79.0399 7.86247 80.9496 9.0583V12.8819C79.3952 10.9669 77.0079 9.77211 74.3812 9.77211C69.7224 9.77211 66.0202 13.5957 66.0202 18.2555C66.0202 22.793 69.7224 26.6122 74.3812 26.6122C77.009 26.6122 79.3963 25.4218 80.9496 23.5079V27.4484C79.0388 28.6443 76.7685 29.3635 74.3812 29.3635C68.0511 29.3635 62.7977 24.3441 62.7977 18.2566C62.7977 12.1627 68.0522 7.14866 74.3812 7.14866ZM85.1295 26.257H92.6544V28.7634H85.1295H81.9049V26.257V18.8524V16.3405V10.1317V7.74657H85.1295H92.6544V10.1317H85.1295V16.3405H92.6544V18.8524H85.1295V26.257ZM104.478 27.3315C104.12 27.6911 103.76 27.9294 103.282 28.1666C102.924 28.4049 102.447 28.5262 101.969 28.6421C101.849 28.6421 101.73 28.6421 101.611 28.7634C101.491 28.7634 101.372 28.7634 101.253 28.7634C100.894 28.7634 100.655 28.6421 100.296 28.6421C99.9376 28.5262 99.6982 28.4038 99.3397 28.1666C99.1014 27.9283 98.8631 27.5687 98.6248 27.2091C98.5046 26.8549 98.3854 26.4953 98.2663 26.1356V26.0143C98.2663 25.8984 98.2663 25.8984 98.2663 25.8984C98.2663 25.7771 98.2663 25.7771 98.2663 25.7771C98.2663 25.6612 98.2663 25.6612 98.2663 25.5388H98.3854C98.3854 25.4229 98.3854 25.4229 98.3854 25.4229C98.3854 25.4229 98.3854 25.4229 98.3854 25.3016C98.5035 24.7037 98.744 24.2282 99.2206 23.7462C99.6972 23.392 100.175 23.0323 100.654 22.6727C100.415 22.3185 100.175 21.9589 99.9365 21.5993C99.6972 21.361 99.578 20.8855 99.578 20.5259V20.4046C99.578 20.2887 99.578 20.2887 99.578 20.1663C99.578 20.0449 99.578 20.0449 99.578 20.0449C99.6972 20.0449 99.6972 19.929 99.6972 19.929C99.8174 19.4535 100.057 19.0939 100.415 18.7332C100.892 18.4949 101.25 18.3736 101.728 18.3736C101.728 18.3736 101.728 18.3736 101.847 18.3736H101.966C101.966 18.3736 101.966 18.3736 102.087 18.3736C102.563 18.3736 103.161 18.6173 103.64 18.9715C103.997 19.3311 104.236 19.8066 104.236 20.527C104.236 21.1249 104.118 21.6004 103.758 21.96C103.28 22.4355 102.923 22.7951 102.445 23.0334L104.714 25.7782C104.834 25.5399 105.073 25.3027 105.312 24.9431C105.551 24.7048 105.67 24.4675 105.91 24.2292L106.626 24.9431C106.507 25.1814 106.268 25.424 106.149 25.6623C106.029 25.9006 105.79 26.1378 105.551 26.3761C105.551 26.3761 105.551 26.3761 105.431 26.4974C105.431 26.4974 105.431 26.6133 105.312 26.6133L106.984 28.5284H105.551L104.478 27.3315ZM101.73 27.6911C102.089 27.6911 102.447 27.5698 102.805 27.3315C103.044 27.0932 103.402 26.8559 103.642 26.6122C103.76 26.6122 103.76 26.6122 103.76 26.6122C103.76 26.6122 103.76 26.6122 103.88 26.4963L101.254 23.5079C101.254 23.6292 101.254 23.6292 101.133 23.6292C101.014 23.7451 101.014 23.7451 101.014 23.7451C100.775 23.8664 100.656 23.9888 100.419 24.1047C100.177 24.343 100.06 24.4643 99.9398 24.7026C99.8217 24.7026 99.8217 24.8239 99.8217 24.9409C99.7015 25.0622 99.7015 25.1792 99.7015 25.3005C99.5823 25.4218 99.5823 25.5388 99.5823 25.5388C99.5823 25.6601 99.5823 25.7771 99.5823 25.8984C99.5823 26.3739 99.7015 26.7335 100.061 27.2101C100.538 27.5698 100.896 27.6911 101.493 27.6911H101.613C101.612 27.6911 101.612 27.6911 101.73 27.6911ZM100.775 20.2865C100.775 20.4024 100.775 20.4024 100.775 20.4024V20.5237C100.775 20.762 100.775 20.9992 100.895 21.2375C101.014 21.4758 101.254 21.7184 101.372 21.8354C101.491 21.9567 101.491 21.9567 101.611 22.0737L101.73 22.195H101.849C101.849 22.195 101.969 22.195 101.969 22.0737C102.208 21.9578 102.447 21.8354 102.687 21.5982C102.925 21.3599 103.045 21.1227 103.163 20.7631C103.163 20.6418 103.163 20.6418 103.163 20.6418C103.163 20.5259 103.163 20.5259 103.163 20.5259C103.163 20.1663 103.044 19.928 102.805 19.6907C102.565 19.5694 102.328 19.4524 102.089 19.4524C101.969 19.4524 101.969 19.4524 101.969 19.4524C101.969 19.4524 101.969 19.4524 101.849 19.4524C101.611 19.4524 101.372 19.4524 101.132 19.6907C100.895 19.8045 100.775 20.0428 100.775 20.2865ZM123.825 7.02734C128.005 7.02734 131.707 9.17961 133.857 12.2851L131.11 13.7181C129.558 11.3275 126.929 9.77211 123.944 9.77211C119.167 9.77211 115.465 13.5957 115.465 18.2555C115.465 22.9099 119.167 26.6122 123.944 26.6122C127.886 26.6122 130.99 24.7026 131.231 20.6407H124.423V18.1342H130.99C130.99 18.1342 134.334 18.1342 134.575 18.1342C134.575 18.1342 134.575 11.6872 134.575 18.2555C134.575 24.8239 130.99 29.4783 123.826 29.4783C116.66 29.4783 112.121 24.4643 112.121 18.2555C112.121 12.0403 117.376 7.02734 123.825 7.02734ZM132.782 28.7645L141.501 7.74657H143.532L152.248 28.7645H148.906L146.517 22.793H138.515L136.128 28.7645H132.782ZM139.711 20.1641L142.575 12.6382L145.323 20.1641H139.711ZM182.823 28.7645L191.423 7.74657H193.451L202.17 28.7645H198.827L196.44 22.793H188.435L186.047 28.7645H182.823ZM189.631 20.1641L192.497 12.6382L195.363 20.1641H189.631ZM224.384 28.7645L233.103 7.74657H235.134L243.854 28.7645H240.508L238.001 22.793H230.118L227.731 28.7645H224.384ZM231.312 20.1641L234.06 12.6382L236.925 20.1641H231.312ZM159.773 10.1317C161.923 10.37 162.638 11.2051 162.638 13.3585C162.638 15.3895 161.205 16.4629 159.414 16.4629H156.667V10.1317H159.773ZM160.013 18.9693H160.131C161.684 18.9693 164.431 19.329 164.431 22.793C164.431 25.5377 162.044 26.257 159.773 26.257H160.249H156.666V18.9683H159.413H160.013V18.9693ZM155.953 28.7645H156.667H161.327C165.029 28.7645 167.777 26.258 167.777 22.793C167.777 20.0428 166.102 18.0172 163.715 17.181C165.029 16.3405 165.746 14.7905 165.746 12.8808C165.746 9.77103 163.715 7.74549 160.49 7.74549C158.817 7.62417 157.026 7.74549 155.355 7.74549H155.234C155.234 7.74549 155.234 7.74549 155.116 7.74549H153.444V28.7634H155.953V28.7645ZM175.776 10.1317C177.807 10.37 178.524 11.2051 178.642 13.3585C178.642 15.3895 177.209 16.4629 175.418 16.4629H172.671V10.1317H175.776ZM175.897 18.9693C176.017 18.9693 176.017 18.9693 176.017 18.9693C177.569 18.9693 180.314 19.329 180.314 22.793C180.314 25.5377 177.925 26.257 175.657 26.257H176.254H172.671V18.9683H175.418H175.897V18.9693ZM171.836 28.7645H172.671H177.331C181.033 28.7645 183.658 26.258 183.658 22.793C183.658 20.0428 181.987 18.0172 179.6 17.181C181.033 16.3405 181.747 14.7905 181.747 12.8808C181.747 9.77103 179.6 7.74549 176.492 7.74549C174.702 7.62417 173.03 7.74549 171.237 7.74549C171.118 7.74549 171.118 7.74549 171.118 7.74549H170.999H169.328V28.7634H171.836V28.7645ZM203.604 7.74657H205.635L220.325 23.2696V7.74657H223.191V28.7645H221.041L206.589 13.3574V28.7645H203.604V7.74657Z" fill="black"/>
</svg>
