<svg width="253" height="37" viewBox="0 0 253 37" fill="none" xmlns="http://www.w3.org/2000/svg">
<g clip-path="url(#clip0_587_10698)">
<path d="M29.2484 10.0001L29.8522 5.57227H18.5814C16.1663 5.57227 15.5625 6.77985 15.3612 7.98742C14.9587 10.2013 14.3549 15.4342 13.9524 17.8493C13.7511 19.2582 14.3549 20.2645 16.1663 20.2645H23.8143L23.0092 26.5036H12.9461L12.3423 31.1327H24.6193C27.0345 31.1327 27.8395 30.1264 28.0408 28.9188C28.4433 26.5036 29.2484 20.2645 29.6509 17.8493C29.8522 16.843 29.0471 15.6354 27.2358 15.6354H19.789L20.5941 10.0001H29.2484Z" fill="black"/>
<path d="M48.9719 5.57227C44.3429 5.57227 34.2797 5.57227 34.2797 5.57227L30.657 31.1327H36.0911L37.2987 22.0758H45.953C47.9656 22.0758 49.3744 21.2708 49.5757 19.2582L51.1858 8.38994C51.3871 6.57858 50.3808 5.57227 48.9719 5.57227ZM44.5441 17.2455H38.1037L39.11 10.0001H45.5505L44.5441 17.2455Z" fill="black"/>
<path d="M69.9047 5.57227C65.2757 5.57227 54.81 5.57227 54.81 5.57227L51.1873 31.1327H56.6214L57.8289 22.0758H61.0491L63.4643 31.1327H69.0997L66.6845 22.0758H67.6908C69.5022 22.0758 70.5085 21.0695 70.7098 19.6607L72.3199 7.78616C72.5211 6.17605 71.5148 5.57227 69.9047 5.57227ZM65.6782 17.4468H58.634L59.6403 10.0001H66.6845L65.6782 17.4468Z" fill="black"/>
<path d="M80.9747 5.57227L71.1128 31.1327H76.5469L78.3583 26.5036H86.0063L86.6101 31.1327H92.2454L89.629 5.57227H80.9747ZM79.9684 21.8746L83.7924 11.4089H84.5974L85.6037 21.8746H79.9684Z" fill="black"/>
<path d="M108.345 5.57227L102.71 15.4342H102.307L99.6909 5.57227H93.8542L98.8858 22.0758L97.477 30.9314H102.911L104.119 22.0758L113.578 5.57227H108.345Z" fill="black"/>
<path d="M122.838 20.0632H126.259L125.253 26.5036H118.209L120.423 10.0001H130.486L131.09 5.57227H118.41C115.995 5.57227 115.391 7.38363 115.19 8.18868C114.989 10.2013 112.775 25.8998 112.372 28.7175C112.171 30.1264 113.177 30.9314 114.586 30.9314H130.083L132.297 15.4342H123.442L122.838 20.0632Z" fill="black"/>
<path d="M151.818 5.57227C147.189 5.57227 136.723 5.57227 136.723 5.57227L133.1 31.1327H138.534L139.742 22.0758H142.962L145.377 31.1327H151.013L148.598 22.0758H149.604C151.415 22.0758 152.422 21.0695 152.623 19.6607L154.233 7.78616C154.635 6.17605 153.629 5.57227 151.818 5.57227ZM147.591 17.4468H140.547L141.553 10.0001H148.598L147.591 17.4468Z" fill="black"/>
<path d="M172.951 5.57227H160.674C159.466 5.57227 157.655 6.17605 157.453 7.78616C157.252 9.79879 154.837 25.6986 154.636 28.5163C154.434 29.3213 155.441 31.1327 156.85 31.1327H169.73C171.139 31.1327 172.347 29.3213 172.548 28.5163C172.951 25.6986 175.165 9.79879 175.366 7.78616C175.567 6.77984 174.561 5.57227 172.951 5.57227ZM167.517 26.5036H160.271L162.686 10.0001H169.932L167.517 26.5036Z" fill="black"/>
<path d="M191.467 5.57227L188.448 26.5036H181.202L184.221 5.57227H178.787C178.787 5.57227 175.969 25.296 175.567 28.5163C175.366 30.1264 176.171 31.1327 178.586 31.1327H193.077L196.7 5.57227H191.467Z" fill="black"/>
<path d="M213.206 5.57227L211.193 19.8619H210.992L205.357 5.57227H199.922L196.501 30.9314H201.734L203.545 17.4468H203.948L209.784 30.9314H215.017L218.64 5.57227H213.206Z" fill="black"/>
<path d="M236.549 5.57227C231.92 5.57227 221.857 5.57227 221.857 5.57227L218.234 31.1327H232.926C234.738 31.1327 236.549 29.9251 236.75 27.7112C237.153 24.8935 239.165 10.8051 239.367 8.59121C239.769 6.57858 238.964 5.57227 236.549 5.57227ZM231.719 26.5036H224.473L226.687 10.0001H233.933L231.719 26.5036Z" fill="black"/>
</g>
<defs>
<clipPath id="clip0_587_10698">
<rect width="227.427" height="26.1642" fill="white" transform="translate(12.5425 5.16992)"/>
</clipPath>
</defs>
</svg>
