<svg width="209" height="37" viewBox="0 0 209 37" fill="none" xmlns="http://www.w3.org/2000/svg">
<g clip-path="url(#clip0_587_10712)">
<mask id="mask0_587_10712" style="mask-type:luminance" maskUnits="userSpaceOnUse" x="61" y="3" width="86" height="31">
<path d="M146.633 3.43555H61.9756V33.9604H146.633V3.43555Z" fill="white"/>
</mask>
<g mask="url(#mask0_587_10712)">
<g clip-path="url(#clip1_587_10712)">
<path d="M82.4273 27.856H82.5311V3.43604H86.4993V33.9609H81.9206L66.1453 9.54102H65.9438V33.9609H61.9756V3.43604H66.5543L82.4273 27.856ZM103.795 9.03431C103.795 5.98182 101.249 3.43604 98.1964 3.43604C95.1439 3.43604 92.5982 5.98182 92.5982 9.03431C92.5982 12.0868 95.1439 14.6326 98.1964 14.6326C101.249 14.6326 103.795 12.1906 103.795 9.03431ZM102.372 9.03431C102.372 11.3725 100.437 13.3078 98.0987 13.3078C95.7605 13.3078 93.8253 11.3725 93.8253 9.03431C93.8253 6.6961 95.7605 4.76082 98.0987 4.76082C100.437 4.76082 102.372 6.6961 102.372 9.03431ZM146.633 3.43604H144.191C143.581 4.76082 142.464 6.07949 140.834 7.50806C139.204 8.93662 137.372 10.0538 135.339 11.0673V14.6265C136.56 14.2174 137.885 13.5093 139.307 12.6912C140.73 11.8731 141.951 10.9635 142.867 10.1454V33.9609H146.633V3.43604ZM119.362 6.79378C121.603 6.79378 123.025 7.70953 123.837 8.62527C125.26 10.1515 125.26 11.6778 125.26 12.6973C125.26 14.6326 123.734 16.5617 122.409 17.7827C121.292 18.8023 118.441 21.1405 116.505 22.6667C114.778 24.193 112.128 26.4335 110.706 28.7717C109.991 29.8889 109.076 31.6227 108.978 33.9609H129.02V30.4017H114.369C115.18 28.3688 120.37 24.193 122.812 22.2638C126.066 19.6203 129.222 17.1783 129.222 12.1906C129.222 10.2553 128.508 7.81331 126.981 6.28706C125.046 4.35179 122.604 3.43604 119.552 3.43604C117.922 3.43604 116.603 3.74129 115.382 4.248C114.161 4.75472 113.044 5.57278 112.226 6.48853C111.408 7.40428 110.699 8.62527 110.29 9.95005C109.881 11.2748 109.68 12.6973 109.784 14.6326H113.648C113.648 8.93663 116.597 6.79988 119.344 6.79988L119.362 6.79378Z" fill="black"/>
</g>
</g>
</g>
<defs>
<clipPath id="clip0_587_10712">
<rect width="84.6578" height="30.5249" fill="white" transform="translate(61.9756 3.43555)"/>
</clipPath>
<clipPath id="clip1_587_10712">
<rect width="84.6578" height="30.5249" fill="white" transform="matrix(1 0 0 -1 61.9756 33.9609)"/>
</clipPath>
</defs>
</svg>
