<svg width="353" height="37" viewBox="0 0 353 37" fill="none" xmlns="http://www.w3.org/2000/svg">
<g clip-path="url(#clip0_587_10737)">
<path fill-rule="evenodd" clip-rule="evenodd" d="M338.775 25.4445C338.598 25.4445 338.173 25.4026 337.901 25.3639C337.317 25.2849 337.202 24.8445 337.148 24.2623C337.048 23.4188 337.048 21.8397 337.048 19.914V16.7027C337.048 13.5786 337.048 13.0157 337.087 12.3786C337.122 11.6754 337.283 11.3334 337.804 11.2334C337.963 11.1993 338.125 11.1793 338.288 11.1738C338.369 11.1738 338.449 10.9754 338.449 10.8996C338.449 10.7754 338.346 10.7383 338.131 10.7383C337.552 10.7383 336.331 10.7963 336.228 10.7963C336.136 10.7963 334.91 10.7383 334.267 10.7383C334.059 10.7383 333.959 10.7754 333.959 10.8996C333.959 10.9754 334.039 11.1738 334.116 11.1738C334.251 11.1738 334.504 11.1931 334.715 11.2528C335.145 11.356 335.34 11.6963 335.376 12.3786C335.414 13.0157 335.414 13.5786 335.414 16.7027V19.914C335.414 21.8397 335.414 23.4188 335.317 24.2623C335.242 24.8445 335.145 25.2849 334.758 25.3639C334.584 25.4026 334.348 25.4445 334.171 25.4445C334.059 25.4445 334.015 25.6591 334.015 25.7187C334.015 25.8413 334.116 25.8816 334.325 25.8816C334.91 25.8816 336.136 25.822 336.228 25.822C336.331 25.822 337.552 25.8816 338.618 25.8816C338.836 25.8816 338.93 25.822 338.93 25.7187C338.93 25.6591 338.893 25.4445 338.775 25.4445ZM218.865 10.7383C218.282 10.7383 217.372 10.7963 217.234 10.7963C217.119 10.7963 216.048 10.7383 215.174 10.7383C214.959 10.7383 214.864 10.7786 214.864 10.8996C214.864 10.9786 214.944 11.1754 215.02 11.1754C215.197 11.1754 215.523 11.1931 215.684 11.2367C216.32 11.377 216.475 11.6931 216.514 12.3737C216.552 13.0157 216.552 13.5786 216.552 16.7027V19.0479C216.552 21.114 216.32 22.8155 215.428 23.9559C215.058 24.4008 214.594 24.7607 214.067 25.0101C213.54 25.2595 212.964 25.3924 212.38 25.3994C211.271 25.3994 210.397 25.2171 209.449 24.2962C208.612 23.4784 207.99 22.2365 207.99 19.3511V16.7027C207.99 13.5786 207.99 13.0157 208.03 12.3737C208.067 11.6754 208.221 11.3125 208.746 11.2367C208.981 11.1931 209.096 11.1754 209.234 11.1754C209.311 11.1754 209.391 10.9786 209.391 10.8996C209.391 10.7786 209.294 10.7383 209.079 10.7383C208.497 10.7383 207.331 10.7963 207.155 10.7963C206.978 10.7963 205.792 10.7383 204.921 10.7383C204.709 10.7383 204.611 10.7786 204.611 10.8996C204.611 10.9786 204.691 11.1754 204.765 11.1754C204.941 11.1754 205.274 11.1931 205.428 11.2367C206.068 11.377 206.222 11.6931 206.261 12.3737C206.302 13.0157 206.302 13.5786 206.302 16.7027V19.4688C206.302 22.3946 207.039 23.7962 207.99 24.7397C209.368 26.0816 211.328 26.1607 211.99 26.1607C213.136 26.1607 214.595 25.9607 215.991 24.6768C217.546 23.2591 217.779 20.8527 217.779 18.6898V16.7027C217.779 13.5786 217.779 13.0157 217.818 12.3737C217.856 11.6754 218.01 11.3334 218.535 11.2367C218.766 11.1754 218.884 11.1754 219.022 11.1754C219.099 11.1754 219.176 10.9786 219.176 10.8996C219.176 10.7786 219.076 10.7383 218.865 10.7383Z" fill="#1A1919"/>
<path fill-rule="evenodd" clip-rule="evenodd" d="M68.3934 10.7374C67.811 10.7374 66.9006 10.7955 66.7628 10.7955C66.648 10.7955 65.58 10.7374 64.704 10.7374C64.4908 10.7374 64.394 10.7777 64.394 10.8987C64.394 10.9777 64.4727 11.1745 64.5515 11.1745C64.7221 11.1745 65.0534 11.1922 65.2093 11.2358C65.8507 11.3761 66.0049 11.6922 66.0426 12.3729C66.082 13.0148 66.082 13.5777 66.082 16.7019V19.047C66.082 21.1131 65.8507 22.8147 64.9567 23.955C64.5868 24.4 64.1222 24.7598 63.5956 25.0092C63.069 25.2586 62.4932 25.3915 61.9087 25.3985C60.8014 25.3985 59.9254 25.2163 58.9756 24.2953C58.1406 23.4776 57.5188 22.2357 57.5188 19.3502V16.7019C57.5188 13.5777 57.5188 13.0148 57.5582 12.3729C57.5976 11.6745 57.7518 11.3116 58.2767 11.2358C58.508 11.1922 58.6261 11.1745 58.7623 11.1745C58.8394 11.1745 58.9181 10.9777 58.9181 10.8987C58.9181 10.7777 58.8197 10.7374 58.6048 10.7374C58.0225 10.7374 56.8594 10.7955 56.6838 10.7955C56.5083 10.7955 55.3239 10.7374 54.4528 10.7374C54.2379 10.7374 54.1395 10.7777 54.1395 10.8987C54.1395 10.9777 54.2182 11.1745 54.2953 11.1745C54.4692 11.1745 54.799 11.1922 54.9548 11.2358C55.5962 11.3761 55.7521 11.6922 55.7914 12.3729C55.8308 13.0148 55.8308 13.5777 55.8308 16.7019V19.4679C55.8308 22.3937 56.5674 23.7953 57.5188 24.7389C58.8985 26.0808 60.8588 26.1598 61.5199 26.1598C62.6649 26.1598 64.1233 25.9598 65.5193 24.6759C67.0712 23.2582 67.3058 20.8518 67.3058 18.6889V16.7019C67.3058 13.5777 67.3058 13.0148 67.3452 12.3729C67.3845 11.6745 67.5404 11.3326 68.062 11.2358C68.2966 11.1745 68.4147 11.1745 68.5509 11.1745C68.6247 11.1745 68.7035 10.9777 68.7035 10.8987C68.7035 10.7777 68.6067 10.7374 68.3934 10.7374ZM158.664 25.3985C155.17 25.3985 152.452 22.3937 152.452 17.7276C152.452 13.3422 154.88 11.1374 158.123 11.1374C161.189 11.1374 164.025 13.7213 164.025 18.5276C164.025 24.355 160.411 25.3985 158.664 25.3985ZM158.257 10.4552C152.898 10.4552 150.605 15.0454 150.605 18.2889C150.605 21.8953 152.819 26.1598 158.141 26.1598C162.823 26.1598 165.889 22.4566 165.889 17.9647C165.889 13.3003 162.626 10.4552 158.257 10.4552ZM197.215 22.2534C197.131 22.2563 197.051 22.2881 196.988 22.3432C196.925 22.3983 196.884 22.4732 196.872 22.555C196.815 22.9163 196.562 23.7953 196.154 24.2356C195.376 25.0582 194.229 25.2372 192.774 25.2372C188.619 25.2372 186.821 21.7324 186.821 17.9099C186.821 15.8664 187.147 14.0825 188.566 12.6809C189.249 12.0003 189.393 11.2181 191.977 11.2181C193.688 11.2181 195.184 11.7584 195.863 12.3584C196.368 12.7971 196.677 13.6196 196.677 14.4019C196.677 14.6825 196.852 14.8228 196.984 14.8228C197.103 14.8228 197.141 14.7035 197.158 14.4019C197.179 14.1003 197.179 13.0003 197.215 12.3406C197.253 11.618 197.313 11.3777 197.313 11.2181C197.313 11.0987 197.276 11.0181 197.061 10.9955C196.359 11.0697 195.817 10.8374 195.081 10.6987C194.151 10.5336 193.209 10.4521 192.264 10.4552C189.272 10.4552 188.414 11.3971 187.244 12.6003C185.517 14.3809 185.076 16.7261 185.076 18.068C185.076 19.9712 185.54 22.2534 187.423 23.9953C188.955 25.4211 190.012 26.1598 192.928 26.1598C194.169 26.1598 195.276 26.0211 196.055 25.6969C196.401 25.5388 196.439 25.4969 196.559 25.1179C196.751 24.4356 197.356 22.6953 197.356 22.555C197.356 22.3937 197.313 22.2534 197.215 22.2534ZM252.49 25.4437C252.315 25.4437 251.888 25.4017 251.616 25.363C251.037 25.284 250.917 24.8437 250.859 24.2614C250.761 23.4179 250.761 21.8389 250.761 19.9131V16.7019C250.761 13.5777 250.761 13.0148 250.799 12.3777C250.836 11.6745 250.994 11.3326 251.517 11.2326C251.677 11.1986 251.839 11.1787 252.003 11.1729C252.08 11.1729 252.16 10.9745 252.16 10.8987C252.16 10.7745 252.064 10.7374 251.85 10.7374C251.266 10.7374 250.042 10.7955 249.946 10.7955C249.851 10.7955 248.623 10.7374 247.985 10.7374C247.77 10.7374 247.675 10.7745 247.675 10.8987C247.675 10.9745 247.752 11.1729 247.828 11.1729C247.966 11.1729 248.217 11.1922 248.432 11.2519C248.86 11.3551 249.053 11.6955 249.091 12.3777C249.125 13.0148 249.125 13.5777 249.125 16.7019V19.9131C249.125 21.8389 249.125 23.4179 249.03 24.2614C248.956 24.8437 248.86 25.284 248.469 25.363C248.297 25.4017 248.062 25.4437 247.89 25.4437C247.77 25.4437 247.733 25.6582 247.733 25.7179C247.733 25.8404 247.828 25.8808 248.043 25.8808C248.623 25.8808 249.851 25.8211 249.946 25.8211C250.042 25.8211 251.266 25.8808 252.334 25.8808C252.547 25.8808 252.644 25.8211 252.644 25.7179C252.644 25.6582 252.607 25.4437 252.49 25.4437ZM90.9349 10.7374C90.1393 10.7374 89.4995 10.7955 89.2829 10.7955C89.0697 10.7955 88.1412 10.7374 87.2668 10.7374C87.0322 10.7374 86.8764 10.7584 86.8764 10.8777C86.8764 10.9584 86.8944 11.1729 87.0322 11.1729C87.1881 11.1729 87.6343 11.1922 87.9837 11.2745C88.5857 11.4358 88.7235 11.8745 88.7399 13.1777L88.9548 23.1986C88.3331 22.5324 79.9471 11.439 79.6436 11.0842C79.6112 11.0331 79.5701 10.9878 79.5222 10.9503C79.4421 10.885 79.3409 10.8501 79.2368 10.8519C79.1695 10.8519 79.0153 10.8406 78.7857 10.8326C77.9739 10.8076 77.1618 10.7941 76.3496 10.7923C76.1183 10.7923 76.0002 10.8326 76.0002 10.9503C76.0002 11.0326 76.056 11.2245 76.1527 11.2245C76.3283 11.2245 76.7564 11.2455 77.1239 11.3471C77.6488 11.5068 77.8916 12.2987 77.9294 13.9422L77.913 22.7792C77.913 24.6018 77.8178 25.184 77.3306 25.3243C77.073 25.4031 76.8048 25.4433 76.535 25.4437C76.4382 25.4437 76.3791 25.6372 76.3791 25.7179C76.3791 25.8582 76.4956 25.8808 76.6925 25.8808C77.5652 25.8808 78.3805 25.8211 78.556 25.8211C78.7299 25.8211 79.5075 25.8808 80.6131 25.8808C80.8444 25.8808 80.9626 25.8372 80.9626 25.7179C80.9626 25.6372 80.9068 25.4437 80.81 25.4437C80.6345 25.4437 80.2063 25.4227 79.8389 25.3243C79.3139 25.163 79.1203 24.6437 79.081 23.0018V13.1745C79.7027 13.8922 87.9657 24.6147 88.1806 24.8163C89.2108 25.8759 89.5192 26.0211 89.6734 26.0211C89.8079 26.0211 89.8866 25.9211 89.8866 24.6018V13.0148C89.8866 11.8148 89.9654 11.3729 90.6051 11.2358C90.8397 11.1729 90.9742 11.1729 91.0727 11.1729C91.2088 11.1729 91.2876 10.9584 91.2876 10.8777C91.2876 10.7584 91.1498 10.7374 90.9349 10.7374ZM108.77 22.2421C108.632 22.2421 108.586 22.3405 108.56 22.5018C108.46 22.9558 108.276 23.3878 108.017 23.776C107.699 24.255 107.52 24.7098 106.839 24.9469C106.226 25.1389 105.266 25.1388 104.687 25.1388C102.403 25.1388 102.054 24.8792 101.987 23.4953C101.962 23.0744 101.987 20.7534 101.987 20.0728V18.3051C101.987 18.2293 102.033 18.1696 102.146 18.1696C102.346 18.1696 103.025 18.1793 103.735 18.1938C104.05 18.2051 104.372 18.2115 104.657 18.226L105.079 18.2422C105.243 18.2502 105.382 18.2599 105.479 18.268L105.704 18.2889C106.317 18.4051 106.764 19.4905 106.896 19.8018C107.016 20.055 107.036 20.2502 107.057 20.4502C107.065 20.5502 107.121 20.6244 107.238 20.6131C107.398 20.5954 107.379 20.3792 107.361 20.2163C107.336 19.5284 107.323 18.8402 107.323 18.1518C107.325 17.4889 107.407 16.3615 107.395 16.2422L107.389 16.197C107.374 16.1164 107.331 16.0873 107.274 16.0873C107.182 16.0873 107.088 16.189 106.924 16.3502C106.714 16.5486 106.39 17.3648 105.829 17.4083C105.294 17.4454 102.43 17.4454 102.126 17.4454C102.008 17.4454 101.987 17.3857 101.987 17.2454V11.7197C101.987 11.5793 102.033 11.5148 102.126 11.5148C102.38 11.5148 104.921 11.5374 105.317 11.5793L105.443 11.589L105.715 11.618C106.703 11.7551 107.188 12.9229 107.41 13.1632C107.585 13.3632 107.7 13.6825 107.736 13.8196C107.779 13.9712 107.851 14.0551 107.986 14.0116C108.074 13.989 108.089 13.8616 108.084 13.7567C108.012 13.0617 107.931 12.3676 107.841 11.6745C107.768 11.1584 107.792 10.9503 107.769 10.8035C107.764 10.7148 101.168 10.7955 101.007 10.7955C100.889 10.7955 99.4226 10.7374 98.3727 10.7374C98.1151 10.7374 98.0003 10.7745 98.0003 10.8987C98.0003 10.9745 98.0938 11.1729 98.1857 11.1729C98.3957 11.1729 98.7926 11.1922 98.9797 11.2326C99.7474 11.3729 99.9344 11.6955 99.9803 12.3777C100.028 13.0148 100.028 13.5777 100.028 16.7019V19.9131C100.028 21.8389 100.028 23.4179 99.9114 24.2614C99.8179 24.8437 99.7015 25.284 99.2339 25.363C99.0256 25.4017 98.7467 25.4437 98.5367 25.4437C98.3957 25.4437 98.3481 25.6582 98.3481 25.7179C98.3481 25.8404 98.4662 25.8808 98.7221 25.8808C99.4226 25.8808 100.889 25.8211 101.007 25.8211C101.683 25.8211 103.243 25.9404 106.76 25.9404H107.572C108.296 25.9404 108.45 25.9405 108.557 25.6066C108.744 25.0259 108.913 22.7582 108.913 22.5405C108.913 22.3195 108.89 22.2421 108.77 22.2421ZM38.2255 18.8502C37.2002 18.8502 36.672 18.7099 36.3193 18.5276C36.2028 18.468 36.1569 18.3873 36.1569 18.2889V11.7374C36.1569 11.618 36.2274 11.5374 36.3439 11.4987C36.5801 11.439 36.7704 11.3777 37.4676 11.3777C39.9627 11.3777 41.3948 12.8777 41.3948 15.3857C41.3948 16.9051 40.7895 17.9873 39.9742 18.468C39.4361 18.7873 38.7832 18.8502 38.2255 18.8502ZM48.3914 25.4437C48.2519 25.4372 47.9255 25.4437 47.4842 25.384C46.9002 25.3034 45.9274 25.2066 44.6396 24.0953C43.1386 22.8034 42.3036 21.326 40.5319 18.9696C42.6284 17.3051 43.347 16.1502 43.347 14.668C43.347 13.2858 42.3282 11.9809 41.7426 11.618C40.509 10.8552 39.0539 10.7374 37.5857 10.7374C36.8622 10.7374 35.5286 10.7955 35.2726 10.7955C35.1545 10.7955 33.6863 10.7374 32.6397 10.7374C32.3805 10.7374 32.2657 10.7745 32.2657 10.8987C32.2657 10.9745 32.3576 11.1729 32.4527 11.1729C32.661 11.1729 33.058 11.1922 33.245 11.2326C34.0128 11.3729 34.1998 11.6955 34.2474 12.3777C34.2933 13.0148 34.2933 13.5777 34.2933 16.7019V19.9131C34.2933 21.8389 34.2933 23.4179 34.1768 24.2614C34.085 24.8437 33.9668 25.284 33.501 25.363C33.2926 25.4017 33.0121 25.4437 32.8005 25.4437C32.661 25.4437 32.6151 25.6582 32.6151 25.7179C32.6151 25.8404 32.7332 25.8808 32.9875 25.8808C33.6863 25.8808 35.1545 25.8211 35.1791 25.8211C35.294 25.8211 36.7638 25.8808 38.0467 25.8808C38.2993 25.8808 38.4174 25.8211 38.4174 25.7179C38.4174 25.6582 38.3715 25.4437 38.232 25.4437C38.022 25.4437 37.5069 25.4017 37.1821 25.363C36.4833 25.284 36.3439 24.8437 36.2733 24.2614C36.1569 23.4179 36.1569 21.8389 36.1569 19.9131V19.5905C36.1569 19.4905 36.2028 19.4309 36.3193 19.4309L38.6421 19.4679C38.7832 19.4679 38.8538 19.5099 38.9489 19.5905C39.4148 20.1115 40.0857 21.4034 41.0093 22.555C42.1642 23.9953 42.8926 25.0372 43.8949 25.5001C44.5002 25.7808 45.0842 25.8808 46.3884 25.8808H48.0419C48.4619 25.8808 48.6013 25.8404 48.6013 25.7179C48.6013 25.6582 48.5948 25.4517 48.3914 25.4437ZM239.598 22.2534C239.513 22.2555 239.432 22.287 239.369 22.3422C239.305 22.3973 239.264 22.4727 239.252 22.555C239.194 22.9163 238.943 23.7953 238.533 24.2356C237.755 25.0582 236.612 25.2372 235.154 25.2372C230.998 25.2372 229.197 21.7324 229.197 17.9099C229.197 15.8664 229.53 14.0825 230.946 12.6809C231.627 12.0003 231.776 11.2181 234.36 11.2181C236.064 11.2181 237.56 11.7584 238.243 12.3584C238.745 12.7971 239.056 13.6196 239.056 14.4019C239.056 14.6825 239.229 14.8228 239.363 14.8228C239.483 14.8228 239.521 14.7035 239.54 14.4019C239.555 14.1003 239.555 13.0003 239.598 12.3406C239.635 11.618 239.693 11.3777 239.693 11.2181C239.693 11.0987 239.652 11.0181 239.444 10.9955C238.738 11.0697 238.2 10.8374 237.46 10.6987C236.531 10.5336 235.588 10.4521 234.644 10.4552C231.655 10.4552 230.79 11.3971 229.627 12.6003C227.896 14.3809 227.452 16.7261 227.452 18.068C227.452 19.9712 227.919 22.2534 229.799 23.9953C231.335 25.4211 232.394 26.1598 235.305 26.1598C236.548 26.1598 237.652 26.0211 238.431 25.6969C238.784 25.5388 238.822 25.4969 238.935 25.1179C239.13 24.4356 239.732 22.6953 239.732 22.555C239.732 22.3937 239.693 22.2534 239.598 22.2534ZM19.8032 25.2969C19.2303 25.3074 18.661 25.2059 18.1283 24.9985C17.4065 24.6953 17.4065 24.4147 17.3376 23.4356C17.313 23.1373 17.313 20.6518 17.313 19.1099V17.9647C17.313 17.868 17.3589 17.826 17.4524 17.826C17.8018 17.826 18.5909 17.826 18.8927 17.868C19.4521 17.9276 20.0361 17.9873 20.8268 18.447C22.6231 19.5099 23.0874 21.2534 23.0874 22.4566C23.0874 24.7179 21.0598 25.2969 19.8032 25.2969ZM17.313 11.618C17.313 11.4987 17.3819 11.439 17.5918 11.4003C17.9659 11.3197 18.9075 11.2987 19.1634 11.2987C21.4485 11.2987 22.3098 13.0777 22.3098 14.7422C22.3098 15.5648 21.9587 16.2841 21.4699 16.7648C20.981 17.2454 20.2018 17.2889 18.8976 17.2889C18.0348 17.2889 17.6148 17.2277 17.4754 17.2083C17.3589 17.1648 17.313 17.1277 17.313 16.9857V11.618ZM21.4387 17.3486C22.6723 16.6486 24.0355 15.6664 24.0355 14.0229C24.0355 13.018 23.2563 10.7374 18.9682 10.7374C17.8937 10.7374 16.9865 10.7955 16.4271 10.7955C16.3123 10.7955 14.8424 10.7374 13.7942 10.7374C13.5383 10.7374 13.4202 10.7777 13.4202 10.8987C13.4202 10.9777 13.5137 11.1745 13.6072 11.1745C13.8188 11.1745 14.2141 11.1922 14.4012 11.2326C15.1672 11.3729 15.3543 11.6922 15.4018 12.3729C15.4478 13.0148 15.4478 13.5003 15.4478 16.6244V19.9905C15.4478 21.9163 15.4478 23.4985 15.3313 24.3389C15.2394 24.9211 15.1213 25.3598 14.6554 25.4405C14.4471 25.4808 14.1666 25.5211 13.9582 25.5211C13.8188 25.5211 13.7712 25.6582 13.7712 25.7179C13.7712 25.8372 13.8861 25.8808 14.1452 25.8808C14.8424 25.8808 16.3123 25.8211 16.4271 25.8211C16.6141 25.8211 18.9911 25.9404 19.5259 25.9404C23.5122 25.9404 24.8656 23.7179 24.8656 21.5728C24.8656 19.2309 23.1628 17.8083 21.4387 17.3486ZM274.623 10.8035C273.829 10.8035 273.188 10.8632 272.974 10.8632C272.759 10.8632 271.829 10.8035 270.955 10.8035C270.722 10.8035 270.568 10.8213 270.568 10.9439C270.568 11.0213 270.588 11.239 270.722 11.239C270.878 11.239 271.324 11.26 271.677 11.3374C272.276 11.4987 272.41 11.9406 272.433 13.2438L272.643 23.2615C272.023 22.6002 263.637 11.5019 263.333 11.1519C263.3 11.0998 263.259 11.0535 263.21 11.0148C263.131 10.9499 263.03 10.9145 262.927 10.9148C261.965 10.8784 261.002 10.8585 260.039 10.8552C259.805 10.8552 259.687 10.8987 259.687 11.0181C259.687 11.0987 259.747 11.2922 259.844 11.2922C260.02 11.2922 260.45 11.3116 260.814 11.4148C261.34 11.5729 261.58 12.3664 261.619 14.0083L261.606 22.8469C261.606 24.6695 261.509 25.2469 261.022 25.3888C260.764 25.4677 260.495 25.5074 260.225 25.5066C260.13 25.5066 260.067 25.7034 260.067 25.784C260.067 25.9259 260.187 25.9437 260.379 25.9437C261.253 25.9437 262.07 25.884 262.244 25.884C262.42 25.884 263.199 25.9437 264.303 25.9437C264.538 25.9437 264.652 25.9034 264.652 25.784C264.652 25.7034 264.595 25.5066 264.497 25.5066C264.323 25.5066 263.893 25.4888 263.525 25.3888C263 25.2292 262.807 24.7066 262.769 23.0647L262.772 13.2374C263.391 13.96 271.657 24.6824 271.872 24.884C272.901 25.9437 273.207 26.084 273.362 26.084C273.499 26.084 273.576 25.9888 273.576 24.6647V13.0825C273.576 11.8809 273.654 11.439 274.297 11.2987C274.528 11.239 274.666 11.239 274.761 11.239C274.895 11.239 274.976 11.0213 274.976 10.9439C274.976 10.8213 274.838 10.8035 274.623 10.8035ZM123.887 25.9356C123.859 25.9356 123.837 25.9356 123.81 25.9324H123.552L123.887 25.9356Z" fill="#1A1919"/>
<path fill-rule="evenodd" clip-rule="evenodd" d="M126.323 22.2365C126.183 22.2365 126.137 22.3365 126.116 22.4994C126.072 22.7172 125.711 23.5252 125.255 24.1252C124.922 24.5639 124.528 24.8446 124.241 24.9478C123.838 25.0554 123.426 25.1251 123.009 25.1558C121.19 25.1558 120.585 25.0171 120.211 24.6962C119.791 24.3365 119.699 23.0575 119.699 20.1124V16.7027C119.699 13.5786 119.699 13.0157 119.746 12.3737C119.791 11.6754 119.976 11.3334 120.655 11.2367C120.934 11.1931 121.26 11.1738 121.423 11.1738C121.516 11.1738 121.61 10.9786 121.61 10.8996C121.61 10.7754 121.495 10.7383 121.237 10.7383C120.537 10.7383 118.836 10.7963 118.719 10.7963C118.603 10.7963 117.135 10.7383 116.088 10.7383C115.831 10.7383 115.712 10.7754 115.712 10.8996C115.712 10.9786 115.808 11.1738 115.901 11.1738C116.109 11.1738 116.506 11.1931 116.692 11.2367C117.461 11.3738 117.65 11.6963 117.694 12.3737C117.742 13.0157 117.742 13.5786 117.742 16.7027V19.914C117.742 21.8398 117.742 23.422 117.624 24.2623C117.53 24.8446 117.415 25.2849 116.949 25.3639C116.719 25.4111 116.484 25.437 116.249 25.4413C116.109 25.4413 116.063 25.6591 116.063 25.7187C116.063 25.8381 116.18 25.8816 116.436 25.8816C117.135 25.8816 118.509 25.822 118.719 25.822C119.905 25.822 121.237 25.9123 123.81 25.9333L124.617 25.9365H124.466C124.466 25.9365 125.152 25.9074 125.16 25.8849C125.506 25.8591 126.464 22.7591 126.464 22.5381C126.464 22.3172 126.441 22.2365 126.323 22.2365ZM143.731 22.2365C143.592 22.2365 143.546 22.3365 143.521 22.4994C143.482 22.7172 143.116 23.5252 142.663 24.1252C142.327 24.5639 141.935 24.8446 141.648 24.9478C141.245 25.0556 140.832 25.1252 140.416 25.1558C138.597 25.1558 137.991 25.0171 137.617 24.6962C137.199 24.3365 137.106 23.0575 137.106 20.1124V16.7027C137.106 13.5786 137.106 13.0157 137.151 12.3737C137.199 11.6754 137.386 11.3334 138.06 11.2367C138.342 11.1931 138.667 11.1738 138.83 11.1738C138.923 11.1738 139.017 10.9786 139.017 10.8996C139.017 10.7754 138.9 10.7383 138.643 10.7383C137.945 10.7383 136.243 10.7963 136.129 10.7963C136.011 10.7963 134.543 10.7383 133.495 10.7383C133.236 10.7383 133.123 10.7754 133.123 10.8996C133.123 10.9786 133.214 11.1738 133.308 11.1738C133.518 11.1738 133.912 11.1931 134.099 11.2367C134.868 11.3738 135.055 11.6963 135.103 12.3737C135.148 13.0157 135.148 13.5786 135.148 16.7027V19.914C135.148 21.8398 135.148 23.422 135.032 24.2623C134.939 24.8446 134.822 25.2849 134.358 25.3639C134.127 25.4112 133.893 25.4371 133.657 25.4413C133.518 25.4413 133.47 25.6591 133.47 25.7187C133.47 25.8381 133.588 25.8816 133.843 25.8816C134.543 25.8816 135.918 25.822 136.129 25.822C137.312 25.822 138.644 25.9123 141.22 25.9333L142.022 25.9365H141.871C141.871 25.9365 142.558 25.9074 142.567 25.8849C142.913 25.8591 143.871 22.7591 143.871 22.5381C143.871 22.3172 143.849 22.2365 143.731 22.2365ZM141.294 25.9365C141.267 25.9365 141.246 25.9365 141.22 25.9333H140.961L141.294 25.9365ZM309.896 22.2365C309.755 22.2365 309.711 22.3365 309.685 22.4994C309.647 22.7172 309.281 23.5252 308.823 24.1252C308.494 24.5639 308.1 24.8446 307.814 24.9478C307.41 25.0553 306.996 25.125 306.578 25.1558C304.762 25.1558 304.151 25.0171 303.784 24.6962C303.361 24.3365 303.267 23.0575 303.267 20.1124V16.7027C303.267 13.5786 303.267 13.0157 303.316 12.3737C303.361 11.6754 303.549 11.3334 304.225 11.2367C304.507 11.1931 304.829 11.1738 304.991 11.1738C305.091 11.1738 305.18 10.9786 305.18 10.8996C305.18 10.7754 305.065 10.7383 304.806 10.7383C304.107 10.7383 302.406 10.7963 302.294 10.7963C302.175 10.7963 300.708 10.7383 299.656 10.7383C299.401 10.7383 299.282 10.7754 299.282 10.8996C299.282 10.9786 299.378 11.1738 299.471 11.1738C299.679 11.1738 300.076 11.1931 300.262 11.2367C301.031 11.3738 301.217 11.6963 301.266 12.3737C301.313 13.0157 301.313 13.5786 301.313 16.7027V19.914C301.313 21.8398 301.313 23.422 301.199 24.2623C301.105 24.8446 300.987 25.2849 300.523 25.3639C300.293 25.4108 300.059 25.4367 299.824 25.4413C299.679 25.4413 299.637 25.6591 299.637 25.7187C299.637 25.8381 299.75 25.8816 300.003 25.8816C300.708 25.8816 302.083 25.822 302.294 25.822C303.475 25.822 304.812 25.9123 307.381 25.9333L308.188 25.9365H308.036C308.036 25.9365 308.722 25.9074 308.728 25.8849C309.076 25.8591 310.034 22.7591 310.034 22.5381C310.034 22.3172 310.009 22.2365 309.896 22.2365ZM307.455 25.9365C307.432 25.9365 307.411 25.9365 307.381 25.9333H307.122L307.455 25.9365ZM324.657 25.9365C324.632 25.9365 324.613 25.9365 324.585 25.9333H324.321L324.657 25.9365Z" fill="#1A1919"/>
<path fill-rule="evenodd" clip-rule="evenodd" d="M327.096 22.2365C326.958 22.2365 326.912 22.3365 326.887 22.4994C326.845 22.7172 326.484 23.5252 326.024 24.1252C325.691 24.5639 325.301 24.8446 325.016 24.9478C324.611 25.0557 324.197 25.1254 323.779 25.1558C321.963 25.1558 321.354 25.0171 320.982 24.6962C320.565 24.3365 320.473 23.0575 320.473 20.1124V16.7027C320.473 13.5786 320.473 13.0157 320.514 12.3737C320.565 11.6754 320.752 11.3334 321.428 11.2367C321.71 11.1931 322.03 11.1738 322.192 11.1738C322.289 11.1738 322.383 10.9786 322.383 10.8996C322.383 10.7754 322.263 10.7383 322.007 10.7383C321.308 10.7383 319.607 10.7963 319.495 10.7963C319.377 10.7963 317.909 10.7383 316.859 10.7383C316.602 10.7383 316.487 10.7754 316.487 10.8996C316.487 10.9786 316.58 11.1738 316.672 11.1738C316.884 11.1738 317.274 11.1931 317.468 11.2367C318.232 11.3738 318.419 11.6963 318.467 12.3737C318.514 13.0157 318.514 13.5786 318.514 16.7027V19.914C318.514 21.8398 318.514 23.422 318.396 24.2623C318.303 24.8446 318.188 25.2849 317.724 25.3639C317.493 25.411 317.258 25.4369 317.022 25.4413C316.884 25.4413 316.833 25.6591 316.833 25.7187C316.833 25.8381 316.951 25.8816 317.204 25.8816C317.909 25.8816 319.284 25.822 319.495 25.822C320.678 25.822 322.007 25.9123 324.584 25.9333L325.388 25.9365H325.237C325.237 25.9365 325.923 25.9074 325.929 25.8849C326.279 25.8591 327.237 22.7591 327.237 22.5381C327.237 22.3172 327.211 22.2365 327.096 22.2365ZM292.784 22.243C292.64 22.243 292.595 22.3414 292.572 22.5026C292.468 22.955 292.285 23.3862 292.031 23.7768C291.708 24.2559 291.531 24.7107 290.852 24.9478C290.233 25.1397 289.275 25.1397 288.699 25.1397C286.417 25.1397 286.065 24.88 285.994 23.4962C285.971 23.0752 285.994 20.7543 285.994 20.0736V18.3059C285.994 18.2301 286.038 18.1704 286.158 18.1704C286.357 18.1704 287.033 18.1801 287.743 18.1946C288.061 18.2059 288.381 18.2124 288.67 18.2269L289.086 18.243C289.255 18.2511 289.39 18.2608 289.49 18.2688L289.715 18.2898C290.327 18.4059 290.774 19.4914 290.909 19.8027C291.024 20.0559 291.043 20.2511 291.07 20.4511C291.076 20.5511 291.13 20.6253 291.249 20.614C291.413 20.5962 291.386 20.3801 291.367 20.2172C291.347 19.5292 291.336 18.841 291.332 18.1527C291.335 17.4898 291.419 16.3624 291.406 16.243L291.396 16.1979C291.386 16.1172 291.345 16.0882 291.288 16.0882C291.194 16.0882 291.101 16.1898 290.932 16.3511C290.727 16.5495 290.4 17.3656 289.839 17.4092C289.305 17.4463 286.44 17.4463 286.132 17.4463C286.017 17.4463 285.994 17.3866 285.994 17.2463V11.7205C285.994 11.5802 286.038 11.5157 286.132 11.5157C286.391 11.5157 288.929 11.5383 289.326 11.5802L289.452 11.5899L289.726 11.6189C290.71 11.756 291.201 12.9237 291.419 13.1641C291.598 13.3641 291.708 13.6834 291.749 13.8205C291.79 13.9721 291.86 14.056 291.998 14.0124C292.085 13.9899 292.098 13.8624 292.095 13.7576C292.022 13.0627 291.942 12.3686 291.854 11.6754C291.78 11.1592 291.803 10.9512 291.78 10.8044C291.775 10.7157 285.18 10.7963 285.016 10.7963C284.902 10.7963 283.435 10.7383 282.383 10.7383C282.128 10.7383 282.008 10.7754 282.008 10.8996C282.008 10.9754 282.101 11.1738 282.198 11.1738C282.463 11.1727 282.727 11.1927 282.989 11.2334C283.758 11.3738 283.944 11.6963 283.991 12.3786C284.037 13.0157 284.037 13.5786 284.037 16.7027V19.914C284.037 21.8398 284.037 23.4188 283.917 24.2623C283.825 24.8446 283.712 25.2849 283.245 25.3639C283.033 25.4026 282.754 25.4445 282.548 25.4445C282.406 25.4445 282.357 25.6591 282.357 25.7187C282.357 25.8413 282.477 25.8816 282.733 25.8816C283.435 25.8816 284.902 25.822 285.016 25.822C285.692 25.822 287.251 25.9413 290.771 25.9413H291.578C292.31 25.9413 292.458 25.9413 292.569 25.6075C292.754 25.0268 292.922 22.7591 292.922 22.5414C292.922 22.3204 292.896 22.243 292.784 22.243Z" fill="#1A1919"/>
</g>
<defs>
<clipPath id="clip0_587_10737">
<rect width="327.052" height="17.7744" fill="white" transform="translate(13.1411 9.49414)"/>
</clipPath>
</defs>
</svg>
