<svg width="32" height="32" viewBox="0 0 32 32" fill="none" xmlns="http://www.w3.org/2000/svg">
<path d="M19.6081 4.93584C19.9502 4.16665 20.1834 3.12408 21.3341 2.95484C22.003 2.84564 21.9489 1.78945 21.453 1.55189C21.0579 1.36259 20.5121 1.44166 20.4171 1.98265C20.2565 2.90645 19.5988 3.54742 19.22 4.3391C18.7544 5.3087 18.1747 6.21894 17.6261 7.14805C17.4272 7.46988 17.1444 7.38819 17.054 7.04894C16.7132 5.7007 16.5049 4.33638 16.4631 2.93944C16.4463 2.43202 16.3502 1.96669 16.7607 1.53915C17.0119 1.27993 16.896 0.900377 16.6565 0.70649C16.4736 0.562214 16.1085 0.490562 15.9072 0.579605C15.5825 0.725935 15.3343 1.13711 15.5351 1.44795C16.0864 2.28948 15.7824 3.18372 15.7272 4.02681C15.6551 5.09287 15.3305 6.14224 15.1063 7.19652C15.0429 7.46134 14.8188 7.26456 14.7661 7.11133C14.3141 5.56941 13.4614 4.2395 12.5999 2.91262C12.4336 2.65899 12.3729 2.33939 12.23 2.06782C12.0348 1.69762 11.7633 0.941013 11.1953 1.12627C10.4362 1.37386 10.9627 2.61069 11.4378 2.83407C11.7551 2.98145 12.0138 3.33155 12.219 3.64086C12.4946 4.05425 12.7336 4.50489 12.9226 4.96782C13.4836 6.33898 13.7957 7.76129 13.8207 9.25282L13.8303 9.96254C15.0375 9.78638 16.9421 9.65953 18.3719 10.0355L18.4534 9.04926C18.6252 7.61333 19.0321 6.22968 19.6081 4.93584Z" fill="#CCAC69"/>
<path d="M7.53223 31.0004C7.95889 30.0004 8.4389 29.0204 8.80556 28.0004C10.8256 22.4537 12.8122 16.9004 14.8189 11.3471C15.1522 10.4137 15.3789 10.2804 16.2256 10.3404C16.7256 10.3737 17.0322 10.587 17.1989 11.0804C17.7789 12.8004 18.3722 14.5204 18.9989 16.2271C19.6989 18.1404 20.4522 20.0337 21.1456 21.947C21.8056 23.7604 22.4189 25.587 23.0722 27.4004C23.4656 28.487 23.9056 29.5604 24.3189 30.647C24.7256 31.7137 24.5789 31.9404 23.4922 31.9737C21.4389 32.0404 21.1856 31.8337 20.5656 29.8871C20.0456 28.2604 19.4389 26.6604 18.9122 25.0404C18.7722 24.6137 18.6122 24.3737 18.1322 24.3804C16.7989 24.4004 15.4722 24.3804 14.1389 24.3804C13.6456 24.3804 13.3522 24.5737 13.1789 25.0937C12.6389 26.7737 12.0389 28.4337 11.4456 30.0937C11.2989 30.5071 11.0789 30.9004 10.9056 31.3071C10.7056 31.7671 10.3656 31.9737 9.86556 31.9737C9.09223 31.9737 8.31223 31.9937 7.5389 32.0004C7.5389 31.6671 7.5389 31.3337 7.5389 31.0004H7.53223ZM15.9656 21.327C16.2389 21.327 16.5122 21.3404 16.7922 21.327C17.4922 21.287 17.5722 21.2071 17.3122 20.5604C16.8989 19.5337 16.4189 18.5337 15.9722 17.5204C15.5389 18.5804 15.0989 19.6404 14.6789 20.707C14.5056 21.1404 14.7456 21.307 15.1456 21.327C15.4189 21.3404 15.6922 21.327 15.9722 21.327H15.9656Z" fill="#8A8A8A"/>
</svg>
